<?xml version="1.0" encoding="UTF-8"?><svg id="Layer_1" xmlns="http://www.w3.org/2000/svg" width="609.83" height="733.42" viewBox="0 0 609.83 733.42"><defs><style>.cls-1{fill:#d8bf87;}.cls-2{fill:#4f7359;}</style></defs><path class="cls-2" d="M286.03,186.32c-.39-26.07-3.82-55.36-9.46-84.45-3.5-18.02-9.27-34.93-20.23-49.83-2.44-3.31-3-6.92-1.68-10.74,2.94-8.53,14.74-11.03,21.21-4.9,7.11,6.74,11.69,15.11,15.43,23.84,6.02,14.04,10.13,28.73,12.58,43.85,.61,3.76,.72,7.67,1.87,11.26,.8,2.48,2.85,4.65,4.72,6.59,.2,.21,3.42-1.64,4.34-3.1,4.07-6.44,7.72-13.14,11.68-19.65,11.96-19.63,25.88-37.77,42.63-53.56,6.92-6.52,14.31-12.59,21.85-18.4C411.98,11.02,436.28,2.88,462.37,.83c15.14-1.19,30.62-1.17,45.69,.55,31.31,3.58,61.9,10.86,91.3,22.52,2.63,1.04,5.04,2.66,7.55,4,2.53,1.35,3.63,4.5,2.45,6.92-17.54,35.89-42.85,65.21-75.58,87.94-23.1,16.05-48.54,25.49-77.05,27.41-28.5,1.92-57.07,4.16-85.08,10.43-18.72,4.19-36.52,10.62-52.69,21.18-4.31,2.81-6.95,6.64-6.9,11.7,.08,8.57,.63,17.14,1.02,25.71,.07,1.61,4.66,4.78,6.6,4.47,7.48-1.22,15.06-2.01,22.39-3.85,11.07-2.78,21.98-6.25,32.92-9.53,27.26-8.17,54.36-7.57,81.68,.27,19.37,5.56,37.74,13.2,55.06,23.35,49.37,28.95,76.71,72.21,85.16,128.65,5.5,36.72,1.37,72.38-8.47,107.49-16.35,58.34-42.41,112.15-79,160.64-16.72,22.16-35.59,42.34-57.35,59.68-21.8,17.37-45.63,30.95-72.39,39.34-8.5,2.67-16.82,3.38-25.33,1.54-10.24-2.22-20.35-5-30.54-7.42-16.05-3.8-32-4.47-47.9,1.12-7.18,2.52-14.51,4.71-21.92,6.42-15.26,3.53-30.13,2.86-44.53-4.36-16.24-8.14-31.84-17.23-46.24-28.32-16.68-12.84-32.06-27.1-45.93-42.91-51.07-58.23-87.53-124.49-108.5-199.1-4.38-15.58-8.13-31.39-8.66-47.71-1.78-54.71,15.1-103.17,49.38-145.58,14.56-18.01,32.45-32.08,53.19-42.59,34.65-17.56,70.82-21.29,108.36-12.21,14.8,3.58,29.34,8.28,44.17,11.76,8.27,1.94,16.88,2.44,25.35,3.49,2.23,.28,5.42-2.86,5.43-5.31,.05-9.54,.02-19.07,.02-32.16Zm286.99,211.51c.25-18.44-1.5-35.39-5.87-52.15-9.04-34.66-27.98-62.25-57.59-82.4-21.49-14.62-45.12-24.31-70.3-30.64-15.17-3.82-30.16-4.12-45.2-.22-12.89,3.34-25.82,6.66-38.49,10.74-22.98,7.4-46.4,10.16-70.45,8.76-15.34-.9-30.04-4.89-44.82-8.53-14.78-3.64-29.41-7.93-44.25-11.32-17.92-4.09-35.64-3.5-53.64,1.4-29.58,8.06-54.11,23.64-73.15,47.25-39.66,49.21-52.96,104.93-36.69,166.27,22.55,84.99,67.11,157.16,131.18,217.18,11.06,10.36,23.66,19.23,36.32,27.64,8.63,5.73,18.56,9.52,27.98,14.03,4.43,2.12,9.13,2.44,13.93,1.19,13.81-3.6,27.67-7.03,41.44-10.78,10.36-2.82,20.67-2.96,31.1-.59,12.07,2.74,24.14,5.47,36.23,8.06,11.47,2.46,22.43,1.58,33.45-3.29,14.9-6.58,28.89-14.47,42.01-24.07,18.57-13.58,35.01-29.41,49.92-46.87,37.6-44.02,65.18-93.74,83.03-148.69,8.84-27.23,15.09-55.16,13.84-82.98ZM373.44,132.55c24.54-2.62,46.76-8.64,69.73-7.31,1.89,.11,3.8-.03,5.69-.19,27.1-2.29,52.13-10.94,73.76-27.27,17.43-13.16,32.3-29.32,45.91-46.49,.57-.72,.74-1.74,1.23-2.54,1.25-2.08-.09-6.24-2.3-7.2-27.45-11.97-57.16-12.51-86.1-16.88-3.6-.54-7.49,.77-11.24,1.32-5.62,.83-11.21,2.26-16.85,2.5-9.76,.42-18.59,3.64-27.15,7.81-19.01,9.27-35.87,21.6-49.04,38.16-10.61,13.34-20.3,27.45-29.77,41.64-4.16,6.23-6.79,13.48-10.02,20.31-.36,.76-.37,2.48-.03,2.63,1.6,.72,3.55,1.77,5.07,1.41,11.05-2.62,22.04-5.56,31.13-7.9Z"/><path class="cls-1" d="M373.44,132.55c-9.09,2.34-20.07,5.28-31.13,7.9-1.52,.36-3.47-.69-5.07-1.41-.33-.15-.32-1.87,.03-2.63,3.23-6.83,5.87-14.08,10.02-20.31,9.47-14.19,19.16-28.3,29.77-41.64,13.17-16.56,30.03-28.89,49.04-38.16,8.56-4.18,17.4-7.39,27.15-7.81,5.64-.25,11.23-1.68,16.85-2.5,3.74-.55,7.64-1.86,11.24-1.32,28.94,4.37,58.65,4.91,86.1,16.88,2.21,.96,3.55,5.12,2.3,7.2-.48,.8-.66,1.82-1.23,2.54-13.61,17.17-28.48,33.33-45.91,46.49-21.62,16.32-46.66,24.98-73.76,27.27-1.89,.16-3.8,.3-5.69,.19-22.97-1.33-45.19,4.68-69.73,7.31Z"/></svg>