<svg width="99" height="100" viewBox="0 0 99 100" fill="none" xmlns="http://www.w3.org/2000/svg">
<path d="M18.5625 54.5322V81.251C18.5625 82.0798 18.8884 82.8746 19.4686 83.4607C20.0488 84.0467 20.8357 84.376 21.6562 84.376H77.3438C78.1643 84.376 78.9512 84.0467 79.5314 83.4607C80.1116 82.8746 80.4375 82.0798 80.4375 81.251V54.5322" stroke="#4F7359" stroke-width="2" stroke-linecap="round" stroke-linejoin="round"/>
<path d="M20.8828 15.625H78.1172C78.7883 15.6306 79.44 15.8538 79.9761 16.2616C80.5121 16.6695 80.9044 17.2406 81.0949 17.8906L86.625 37.5H12.375L17.9051 17.8906C18.0956 17.2406 18.4879 16.6695 19.0239 16.2616C19.56 15.8538 20.2117 15.6306 20.8828 15.625V15.625Z" stroke="#4F7359" stroke-width="2" stroke-linecap="round" stroke-linejoin="round"/>
<path d="M37.125 37.5V43.75C37.125 47.0652 35.8212 50.2446 33.5004 52.5888C31.1797 54.933 28.0321 56.25 24.75 56.25C21.4679 56.25 18.3203 54.933 15.9996 52.5888C13.6788 50.2446 12.375 47.0652 12.375 43.75V37.5" stroke="#4F7359" stroke-width="2" stroke-linecap="round" stroke-linejoin="round"/>
<path d="M61.875 37.5V43.75C61.875 47.0652 60.5712 50.2446 58.2504 52.5888C55.9297 54.933 52.7821 56.25 49.5 56.25C46.2179 56.25 43.0703 54.933 40.7496 52.5888C38.4288 50.2446 37.125 47.0652 37.125 43.75V37.5" stroke="#4F7359" stroke-width="2" stroke-linecap="round" stroke-linejoin="round"/>
<path d="M86.625 37.5V43.75C86.625 47.0652 85.3212 50.2446 83.0004 52.5888C80.6797 54.933 77.5321 56.25 74.25 56.25C70.9679 56.25 67.8203 54.933 65.4996 52.5888C63.1788 50.2446 61.875 47.0652 61.875 43.75V37.5" stroke="#4F7359" stroke-width="2" stroke-linecap="round" stroke-linejoin="round"/>
</svg>
