<svg width="592" height="51" viewBox="0 0 592 51" fill="none" xmlns="http://www.w3.org/2000/svg">
<path d="M30.5 38H163" stroke="#4F7359" stroke-width="2"/>
<path d="M164 38H296.5" stroke="#4F7359" stroke-width="2"/>
<path d="M293 38H425.5" stroke="#4F7359" stroke-width="2"/>
<path d="M423 38H555.5" stroke="#4F7359" stroke-width="2"/>
<circle cx="425" cy="38" r="13" fill="#64876E"/>
<circle cx="32" cy="38" r="9" fill="#4F7359"/>
<circle cx="162" cy="38" r="9" fill="#4F7359"/>
<circle cx="292" cy="38" r="9" fill="#4F7359"/>
<circle cx="555" cy="38" r="9" fill="#9A9FA5"/>
<path d="M7.408 16H10.24L5.504 10.368L10.112 4.832H7.408L3.344 9.84V4.832H1.104V16H3.344V11.024L7.408 16ZM20.2734 11.568C20.2734 8.768 18.2734 6.992 15.7134 6.992C13.1534 6.992 11.1534 8.768 11.1534 11.568C11.1534 14.352 13.0894 16.144 15.6494 16.144C18.2254 16.144 20.2734 14.352 20.2734 11.568ZM13.4254 11.568C13.4254 9.792 14.4974 8.944 15.6814 8.944C16.8654 8.944 17.9694 9.792 17.9694 11.568C17.9694 13.328 16.8334 14.192 15.6494 14.192C14.4494 14.192 13.4254 13.328 13.4254 11.568ZM28.1245 16H30.3645V10.8C30.3645 8.352 28.8925 7.008 26.8285 7.008C25.6925 7.008 24.7325 7.488 24.1565 8.24V7.136H21.9165V16H24.1565V11.104C24.1565 9.68 24.9405 8.912 26.1565 8.912C27.3405 8.912 28.1245 9.68 28.1245 11.104V16ZM32.8466 13.248C32.8466 15.28 33.9826 16 35.6786 16H37.0866V14.112H36.0466C35.3426 14.112 35.1026 13.856 35.1026 13.264V8.976H37.0866V7.136H35.1026V4.944H32.8466V7.136H31.7906V8.976H32.8466V13.248ZM38.1217 11.536C38.1217 14.304 39.9138 16.144 42.1538 16.144C43.5618 16.144 44.5698 15.472 45.0978 14.704V16H47.3538V7.136H45.0978V8.4C44.5698 7.664 43.5938 6.992 42.1698 6.992C39.9138 6.992 38.1217 8.768 38.1217 11.536ZM45.0978 11.568C45.0978 13.248 43.9778 14.176 42.7458 14.176C41.5458 14.176 40.4098 13.216 40.4098 11.536C40.4098 9.856 41.5458 8.96 42.7458 8.96C43.9778 8.96 45.0978 9.888 45.0978 11.568ZM49.5415 16H51.7815V12.224L54.7895 16H57.7015L53.7655 11.584L57.6695 7.136H54.7575L51.7815 10.896V4.16H49.5415V16ZM59.2373 13.248C59.2373 15.28 60.3733 16 62.0693 16H63.4773V14.112H62.4373C61.7333 14.112 61.4933 13.856 61.4933 13.264V8.976H63.4773V7.136H61.4933V4.944H59.2373V7.136H58.1813V8.976H59.2373V13.248Z" fill="#4F7359"/>
<path d="M128.104 4.832V16H134.024V14.224H130.344V4.832H128.104ZM139.256 8.832C140.408 8.832 141.336 9.568 141.368 10.736H137.16C137.336 9.52 138.184 8.832 139.256 8.832ZM143.464 13.216H141.048C140.76 13.808 140.232 14.288 139.272 14.288C138.152 14.288 137.256 13.552 137.144 12.24H143.624C143.672 11.952 143.688 11.664 143.688 11.376C143.688 8.736 141.88 6.992 139.32 6.992C136.696 6.992 134.872 8.768 134.872 11.568C134.872 14.352 136.744 16.144 139.32 16.144C141.512 16.144 142.984 14.848 143.464 13.216ZM144.379 7.136L147.643 16H150.363L153.643 7.136H151.259L149.019 13.936L146.779 7.136H144.379ZM158.709 8.832C159.861 8.832 160.789 9.568 160.821 10.736H156.613C156.789 9.52 157.637 8.832 158.709 8.832ZM162.917 13.216H160.501C160.213 13.808 159.685 14.288 158.725 14.288C157.605 14.288 156.709 13.552 156.597 12.24H163.077C163.125 11.952 163.141 11.664 163.141 11.376C163.141 8.736 161.333 6.992 158.773 6.992C156.149 6.992 154.325 8.768 154.325 11.568C154.325 14.352 156.197 16.144 158.773 16.144C160.965 16.144 162.437 14.848 162.917 13.216ZM167.016 11.584C167.016 9.872 167.816 9.36 169.144 9.36H169.736V7.008C168.504 7.008 167.576 7.6 167.016 8.512V7.136H164.776V16H167.016V11.584ZM171.245 16H173.485V7.136H171.245V16ZM172.381 6.08C173.165 6.08 173.757 5.504 173.757 4.768C173.757 4.032 173.165 3.456 172.381 3.456C171.581 3.456 171.005 4.032 171.005 4.768C171.005 5.504 171.581 6.08 172.381 6.08ZM181.906 16H184.146V10.8C184.146 8.352 182.674 7.008 180.61 7.008C179.474 7.008 178.514 7.488 177.938 8.24V7.136H175.698V16H177.938V11.104C177.938 9.68 178.722 8.912 179.938 8.912C181.122 8.912 181.906 9.68 181.906 11.104V16ZM185.7 11.536C185.7 14.304 187.492 16.144 189.748 16.144C191.14 16.144 192.148 15.456 192.676 14.688V16.064C192.676 17.712 191.716 18.416 190.484 18.416C189.364 18.416 188.532 17.888 188.308 17.088H186.084C186.308 19.12 188.052 20.368 190.548 20.368C193.46 20.368 194.932 18.464 194.932 16.064V7.136H192.676V8.4C192.148 7.632 191.14 6.992 189.748 6.992C187.492 6.992 185.7 8.768 185.7 11.536ZM192.676 11.568C192.676 13.248 191.556 14.176 190.324 14.176C189.124 14.176 187.988 13.216 187.988 11.536C187.988 9.856 189.124 8.96 190.324 8.96C191.556 8.96 192.676 9.888 192.676 11.568Z" fill="#4F7359"/>
<path d="M278.104 16H280.344V4.832H278.104V16ZM288.765 16H291.005V10.8C291.005 8.352 289.533 7.008 287.469 7.008C286.333 7.008 285.373 7.488 284.797 8.24V7.136H282.557V16H284.797V11.104C284.797 9.68 285.581 8.912 286.797 8.912C287.981 8.912 288.765 9.68 288.765 11.104V16ZM293.375 16H295.647V8.976H297.199V7.136H295.647V6.768C295.647 5.776 296.015 5.424 297.103 5.456V3.568C294.607 3.504 293.375 4.512 293.375 6.688V7.136H292.367V8.976H293.375V16ZM307.211 11.568C307.211 8.768 305.211 6.992 302.651 6.992C300.091 6.992 298.091 8.768 298.091 11.568C298.091 14.352 300.027 16.144 302.587 16.144C305.163 16.144 307.211 14.352 307.211 11.568ZM300.363 11.568C300.363 9.792 301.435 8.944 302.619 8.944C303.803 8.944 304.907 9.792 304.907 11.568C304.907 13.328 303.771 14.192 302.587 14.192C301.387 14.192 300.363 13.328 300.363 11.568Z" fill="#4F7359"/>
<path d="M398.44 10.272C399.069 10.3893 399.587 10.704 399.992 11.216C400.397 11.728 400.6 12.3147 400.6 12.976C400.6 13.5733 400.451 14.1013 400.152 14.56C399.864 15.008 399.443 15.36 398.888 15.616C398.333 15.872 397.677 16 396.92 16H392.104V4.832H396.712C397.469 4.832 398.12 4.95467 398.664 5.2C399.219 5.44533 399.635 5.78667 399.912 6.224C400.2 6.66133 400.344 7.15733 400.344 7.712C400.344 8.36267 400.168 8.90667 399.816 9.344C399.475 9.78133 399.016 10.0907 398.44 10.272ZM394.344 9.44H396.392C396.925 9.44 397.336 9.32267 397.624 9.088C397.912 8.84267 398.056 8.496 398.056 8.048C398.056 7.6 397.912 7.25333 397.624 7.008C397.336 6.76267 396.925 6.64 396.392 6.64H394.344V9.44ZM396.6 14.176C397.144 14.176 397.565 14.048 397.864 13.792C398.173 13.536 398.328 13.1733 398.328 12.704C398.328 12.224 398.168 11.8507 397.848 11.584C397.528 11.3067 397.096 11.168 396.552 11.168H394.344V14.176H396.6ZM410.625 11.376C410.625 11.696 410.604 11.984 410.561 12.24H404.081C404.135 12.88 404.359 13.3813 404.753 13.744C405.148 14.1067 405.633 14.288 406.209 14.288C407.041 14.288 407.633 13.9307 407.985 13.216H410.401C410.145 14.0693 409.655 14.7733 408.929 15.328C408.204 15.872 407.313 16.144 406.257 16.144C405.404 16.144 404.636 15.9573 403.953 15.584C403.281 15.2 402.753 14.6613 402.369 13.968C401.996 13.2747 401.809 12.4747 401.809 11.568C401.809 10.6507 401.996 9.84533 402.369 9.152C402.743 8.45867 403.265 7.92533 403.937 7.552C404.609 7.17867 405.383 6.992 406.257 6.992C407.1 6.992 407.852 7.17333 408.513 7.536C409.185 7.89867 409.703 8.416 410.065 9.088C410.439 9.74933 410.625 10.512 410.625 11.376ZM408.305 10.736C408.295 10.16 408.087 9.70133 407.681 9.36C407.276 9.008 406.78 8.832 406.193 8.832C405.639 8.832 405.169 9.00267 404.785 9.344C404.412 9.67467 404.183 10.1387 404.097 10.736H408.305ZM414.868 8.976V13.264C414.868 13.5627 414.938 13.7813 415.076 13.92C415.226 14.048 415.471 14.112 415.812 14.112H416.852V16H415.444C413.556 16 412.612 15.0827 412.612 13.248V8.976H411.556V7.136H412.612V4.944H414.868V7.136H416.852V8.976H414.868ZM417.887 11.536C417.887 10.64 418.063 9.84533 418.415 9.152C418.778 8.45867 419.263 7.92533 419.871 7.552C420.49 7.17867 421.178 6.992 421.935 6.992C422.597 6.992 423.173 7.12533 423.663 7.392C424.165 7.65867 424.565 7.99467 424.863 8.4V7.136H427.119V16H424.863V14.704C424.575 15.12 424.175 15.4667 423.663 15.744C423.162 16.0107 422.581 16.144 421.919 16.144C421.173 16.144 420.49 15.952 419.871 15.568C419.263 15.184 418.778 14.6453 418.415 13.952C418.063 13.248 417.887 12.4427 417.887 11.536ZM424.863 11.568C424.863 11.024 424.757 10.56 424.543 10.176C424.33 9.78133 424.042 9.48267 423.679 9.28C423.317 9.06667 422.927 8.96 422.511 8.96C422.095 8.96 421.711 9.06133 421.359 9.264C421.007 9.46667 420.719 9.76533 420.495 10.16C420.282 10.544 420.175 11.0027 420.175 11.536C420.175 12.0693 420.282 12.5387 420.495 12.944C420.719 13.3387 421.007 13.6427 421.359 13.856C421.722 14.0693 422.106 14.176 422.511 14.176C422.927 14.176 423.317 14.0747 423.679 13.872C424.042 13.6587 424.33 13.36 424.543 12.976C424.757 12.5813 424.863 12.112 424.863 11.568ZM431.547 4.16V16H429.307V4.16H431.547ZM434.896 6.08C434.502 6.08 434.171 5.95733 433.904 5.712C433.648 5.456 433.52 5.14133 433.52 4.768C433.52 4.39467 433.648 4.08533 433.904 3.84C434.171 3.584 434.502 3.456 434.896 3.456C435.291 3.456 435.616 3.584 435.872 3.84C436.139 4.08533 436.272 4.39467 436.272 4.768C436.272 5.14133 436.139 5.456 435.872 5.712C435.616 5.95733 435.291 6.08 434.896 6.08ZM436 7.136V16H433.76V7.136H436ZM443.125 7.008C444.181 7.008 445.035 7.344 445.685 8.016C446.336 8.67733 446.661 9.60533 446.661 10.8V16H444.421V11.104C444.421 10.4 444.245 9.86133 443.893 9.488C443.541 9.104 443.061 8.912 442.453 8.912C441.835 8.912 441.344 9.104 440.981 9.488C440.629 9.86133 440.453 10.4 440.453 11.104V16H438.213V7.136H440.453V8.24C440.752 7.856 441.131 7.55733 441.589 7.344C442.059 7.12 442.571 7.008 443.125 7.008ZM452.264 6.992C452.925 6.992 453.506 7.12533 454.008 7.392C454.509 7.648 454.904 7.984 455.192 8.4V7.136H457.448V16.064C457.448 16.8853 457.282 17.616 456.952 18.256C456.621 18.9067 456.125 19.4187 455.464 19.792C454.802 20.176 454.002 20.368 453.064 20.368C451.805 20.368 450.77 20.0747 449.96 19.488C449.16 18.9013 448.706 18.1013 448.6 17.088H450.824C450.941 17.4933 451.192 17.8133 451.576 18.048C451.97 18.2933 452.445 18.416 453 18.416C453.65 18.416 454.178 18.2187 454.584 17.824C454.989 17.44 455.192 16.8533 455.192 16.064V14.688C454.904 15.104 454.504 15.4507 453.992 15.728C453.49 16.0053 452.914 16.144 452.264 16.144C451.517 16.144 450.834 15.952 450.216 15.568C449.597 15.184 449.106 14.6453 448.743 13.952C448.391 13.248 448.215 12.4427 448.215 11.536C448.215 10.64 448.391 9.84533 448.743 9.152C449.106 8.45867 449.592 7.92533 450.2 7.552C450.818 7.17867 451.506 6.992 452.264 6.992ZM455.192 11.568C455.192 11.024 455.085 10.56 454.872 10.176C454.658 9.78133 454.37 9.48267 454.008 9.28C453.645 9.06667 453.256 8.96 452.84 8.96C452.424 8.96 452.04 9.06133 451.688 9.264C451.336 9.46667 451.048 9.76533 450.824 10.16C450.61 10.544 450.504 11.0027 450.504 11.536C450.504 12.0693 450.61 12.5387 450.824 12.944C451.048 13.3387 451.336 13.6427 451.688 13.856C452.05 14.0693 452.434 14.176 452.84 14.176C453.256 14.176 453.645 14.0747 454.008 13.872C454.37 13.6587 454.658 13.36 454.872 12.976C455.085 12.5813 455.192 12.112 455.192 11.568Z" fill="#4F7359"/>
<path d="M519.88 8.192C519.624 7.72267 519.272 7.36533 518.824 7.12C518.376 6.87467 517.853 6.752 517.256 6.752C516.595 6.752 516.008 6.90133 515.496 7.2C514.984 7.49867 514.584 7.92533 514.296 8.48C514.008 9.03467 513.864 9.67467 513.864 10.4C513.864 11.1467 514.008 11.7973 514.296 12.352C514.595 12.9067 515.005 13.3333 515.528 13.632C516.051 13.9307 516.659 14.08 517.352 14.08C518.205 14.08 518.904 13.856 519.448 13.408C519.992 12.9493 520.349 12.3147 520.52 11.504H516.68V9.792H522.728V11.744C522.579 12.5227 522.259 13.2427 521.768 13.904C521.277 14.5653 520.643 15.0987 519.864 15.504C519.096 15.8987 518.232 16.096 517.272 16.096C516.195 16.096 515.219 15.856 514.344 15.376C513.48 14.8853 512.797 14.208 512.296 13.344C511.805 12.48 511.56 11.4987 511.56 10.4C511.56 9.30133 511.805 8.32 512.296 7.456C512.797 6.58133 513.48 5.904 514.344 5.424C515.219 4.93333 516.189 4.688 517.256 4.688C518.515 4.688 519.608 4.99733 520.536 5.616C521.464 6.224 522.104 7.08267 522.456 8.192H519.88ZM528.321 16.144C527.468 16.144 526.7 15.9573 526.017 15.584C525.335 15.2 524.796 14.6613 524.401 13.968C524.017 13.2747 523.825 12.4747 523.825 11.568C523.825 10.6613 524.023 9.86133 524.417 9.168C524.823 8.47467 525.372 7.94133 526.065 7.568C526.759 7.184 527.532 6.992 528.385 6.992C529.239 6.992 530.012 7.184 530.705 7.568C531.399 7.94133 531.943 8.47467 532.337 9.168C532.743 9.86133 532.945 10.6613 532.945 11.568C532.945 12.4747 532.737 13.2747 532.321 13.968C531.916 14.6613 531.361 15.2 530.657 15.584C529.964 15.9573 529.185 16.144 528.321 16.144ZM528.321 14.192C528.727 14.192 529.105 14.096 529.457 13.904C529.82 13.7013 530.108 13.4027 530.321 13.008C530.535 12.6133 530.641 12.1333 530.641 11.568C530.641 10.7253 530.417 10.08 529.969 9.632C529.532 9.17333 528.993 8.944 528.353 8.944C527.713 8.944 527.175 9.17333 526.737 9.632C526.311 10.08 526.097 10.7253 526.097 11.568C526.097 12.4107 526.305 13.0613 526.721 13.52C527.148 13.968 527.681 14.192 528.321 14.192ZM534.012 11.536C534.012 10.64 534.188 9.84533 534.54 9.152C534.903 8.45867 535.394 7.92533 536.012 7.552C536.631 7.17867 537.319 6.992 538.076 6.992C538.652 6.992 539.202 7.12 539.724 7.376C540.247 7.62133 540.663 7.952 540.972 8.368V4.16H543.244V16H540.972V14.688C540.695 15.1253 540.306 15.4773 539.804 15.744C539.303 16.0107 538.722 16.144 538.06 16.144C537.314 16.144 536.631 15.952 536.012 15.568C535.394 15.184 534.903 14.6453 534.54 13.952C534.188 13.248 534.012 12.4427 534.012 11.536ZM540.988 11.568C540.988 11.024 540.882 10.56 540.668 10.176C540.455 9.78133 540.167 9.48267 539.804 9.28C539.442 9.06667 539.052 8.96 538.636 8.96C538.22 8.96 537.836 9.06133 537.484 9.264C537.132 9.46667 536.844 9.76533 536.62 10.16C536.407 10.544 536.3 11.0027 536.3 11.536C536.3 12.0693 536.407 12.5387 536.62 12.944C536.844 13.3387 537.132 13.6427 537.484 13.856C537.847 14.0693 538.231 14.176 538.636 14.176C539.052 14.176 539.442 14.0747 539.804 13.872C540.167 13.6587 540.455 13.36 540.668 12.976C540.882 12.5813 540.988 12.112 540.988 11.568ZM550.68 16L547.672 12.224V16H545.432V4.16H547.672V10.896L550.648 7.136H553.56L549.656 11.584L553.592 16H550.68ZM563.016 11.376C563.016 11.696 562.995 11.984 562.952 12.24H556.472C556.525 12.88 556.749 13.3813 557.144 13.744C557.539 14.1067 558.024 14.288 558.6 14.288C559.432 14.288 560.024 13.9307 560.376 13.216H562.792C562.536 14.0693 562.045 14.7733 561.32 15.328C560.595 15.872 559.704 16.144 558.648 16.144C557.795 16.144 557.027 15.9573 556.344 15.584C555.672 15.2 555.144 14.6613 554.76 13.968C554.387 13.2747 554.2 12.4747 554.2 11.568C554.2 10.6507 554.387 9.84533 554.76 9.152C555.133 8.45867 555.656 7.92533 556.328 7.552C557 7.17867 557.773 6.992 558.648 6.992C559.491 6.992 560.243 7.17333 560.904 7.536C561.576 7.89867 562.093 8.416 562.456 9.088C562.829 9.74933 563.016 10.512 563.016 11.376ZM560.696 10.736C560.685 10.16 560.477 9.70133 560.072 9.36C559.667 9.008 559.171 8.832 558.584 8.832C558.029 8.832 557.56 9.00267 557.176 9.344C556.803 9.67467 556.573 10.1387 556.488 10.736H560.696ZM569.563 7.008C570.619 7.008 571.472 7.344 572.123 8.016C572.774 8.67733 573.099 9.60533 573.099 10.8V16H570.859V11.104C570.859 10.4 570.683 9.86133 570.331 9.488C569.979 9.104 569.499 8.912 568.891 8.912C568.272 8.912 567.782 9.104 567.419 9.488C567.067 9.86133 566.891 10.4 566.891 11.104V16H564.651V7.136H566.891V8.24C567.19 7.856 567.568 7.55733 568.027 7.344C568.496 7.12 569.008 7.008 569.563 7.008ZM574.653 11.536C574.653 10.64 574.829 9.84533 575.181 9.152C575.544 8.45867 576.034 7.92533 576.653 7.552C577.272 7.17867 577.96 6.992 578.717 6.992C579.293 6.992 579.842 7.12 580.365 7.376C580.888 7.62133 581.304 7.952 581.613 8.368V4.16H583.885V16H581.613V14.688C581.336 15.1253 580.946 15.4773 580.445 15.744C579.944 16.0107 579.362 16.144 578.701 16.144C577.954 16.144 577.272 15.952 576.653 15.568C576.034 15.184 575.544 14.6453 575.181 13.952C574.829 13.248 574.653 12.4427 574.653 11.536ZM581.629 11.568C581.629 11.024 581.522 10.56 581.309 10.176C581.096 9.78133 580.808 9.48267 580.445 9.28C580.082 9.06667 579.693 8.96 579.277 8.96C578.861 8.96 578.477 9.06133 578.125 9.264C577.773 9.46667 577.485 9.76533 577.261 10.16C577.048 10.544 576.941 11.0027 576.941 11.536C576.941 12.0693 577.048 12.5387 577.261 12.944C577.485 13.3387 577.773 13.6427 578.125 13.856C578.488 14.0693 578.872 14.176 579.277 14.176C579.693 14.176 580.082 14.0747 580.445 13.872C580.808 13.6587 581.096 13.36 581.309 12.976C581.522 12.5813 581.629 12.112 581.629 11.568ZM588.681 8.976V13.264C588.681 13.5627 588.75 13.7813 588.889 13.92C589.038 14.048 589.283 14.112 589.625 14.112H590.665V16H589.257C587.369 16 586.425 15.0827 586.425 13.248V8.976H585.369V7.136H586.425V4.944H588.681V7.136H590.665V8.976H588.681Z" fill="#9A9FA5"/>
</svg>
