<svg xmlns="http://www.w3.org/2000/svg" width="479" height="593" viewBox="0 0 479 593">
  <g>
    <path d="M83.5,447.27c-9.375-.828-9.367-.828-9.375-10.6q-.042-49.07-.092-98.14c0-1.793,0-3.587,0-5.47l9.04-1.613,18.087-.126,6.7.069,5.76-.049,44.726-.326,18.491.135,9.351,0,16.746.134,69.269.158,5.266-1.187c11.2.349,22.4.828,33.6,1,5.915.089,11.838-.363,17.758-.572l23.129.267,3.9-.152,11.176.51,8.951-.924,13.756.726,8.144.374q-.038,58.306-.073,116.614-1.906.086-3.816.168l-18.138.153-46.879-.187-50.214-.042-6.386.209q-28.082-.141-56.162-.277c-3.741-.017-7.483.012-11.224.021l-20.008-.088h-6.956L159,448.182l-38.008.02-8,.05-5.121.155-3.764-.065-4.129-.075-3.014-.186-6.108-.387Z" fill="#bc9a78"/>
    <path d="M83.215,309.511l-8.952-1.557V244.5h7.593l5.193-.951,17-.024,11.848.008,8.34-.058,36.714.1,20.013-.134,5.324.58,17.493.113c4.928-.157,9.856-.429,14.785-.45,18.219-.078,36.438-.074,54.657-.1l3.824-1.065,6.946.09,22.206.8,21.967-.049,27.61.137,8.221.061,11.025.032,11.924-.076,10.988,1.077c-.271,9.277-.616,18.552-.767,27.831-.046,2.791.674,5.592.649,8.385-.085,9.605-.345,19.208-.538,28.812l-21.552.552-8.637.113-11.107.051-27.939.01a7.456,7.456,0,0,0-1.887-.5q-25.224.179-50.446.42l-.477,1.352.951,5.788q-.486,1.1-.971,2.2l-3.046-3.037c-.379-6.949-.379-6.95-7.347-6.95-16.748,0-33.495-.028-50.243.028-3.289.011-6.577.349-9.866.536l-46.536,0q-21.468-.191-42.937-.384l-7.568-.013-6.448.113Z" fill="#d5ad79"/>
    <path d="M77.1,574.739l-13.042.222-2.18-1.949c-5.823-8.965-12.176-17.64-17.319-26.978-4.95-8.986-6.419-19.1-5.276-29.351,1-8.976,7.382-14.612,18.02-16.293,4.088-.646,8.231-.94,12.348-1.392q1.256,1.094,2.51,2.183l3.816,8.811c3.71-3.59,4.763-6.453,2.27-9.944a1.794,1.794,0,0,1,.562-.661c1.178-4.059,1.238-8.639,5.3-11.355l16.82-3.1,4,1.458c.748,1.171,1.224,2.764,2.287,3.448,10.306,6.627,13.609,16.6,13.759,28.118.076,5.814.583,11.7-.141,17.424a165.715,165.715,0,0,1-4.436,20.584c-.632,2.441-2.3,4.615-3.5,6.91-3.348,1.431-6.758,2.74-10.006,4.371-.886.446-1.284,1.859-1.907,2.828C92.2,567.47,84.706,571.384,77.1,574.739Z" fill="#d2ba50"/>
    <path d="M328.164,243.363l-21.968.049c-.028-1.494-.078-2.99-.079-4.485-.014-14.667-.01-14.564-14.758-14.238-4.552.1-6.858,2.1-7.114,6.458-.225,3.812-.18,7.64-.254,11.462l-6.946-.09q-.471-7.581-.941-15.162l.958-27.571c4.171-10.226,10.466-19,18.083-26.948a8.247,8.247,0,0,0,1.713-4.855c1.219-17.469,2.294-34.949,3.436-52.424.128-1.967.417-3.924.632-5.886l27.151.231Z" fill="#703502"/>
    <path d="M397.8,448.093q.038-58.307.076-116.613l8.307-.1,12.121-.045,10.7.625v5.543q0,50.529.006,101.059c0,7.888-.029,7.851-7.98,8.532a11.824,11.824,0,0,0-3.082,1.191L399,448.246Z" fill="#986b41"/>
    <path d="M328.164,243.363,328.077,109.9l1.924-.055c0,7.776-.02,15.553.021,23.329.007,1.3-.193,3.282.515,3.768,2.906,1.993,1.867,4.386,1.545,7-.978,7.949,1.04,10.794,8.991,14.055,1.238.508,2.012,2.065,3.1,3.025,2.934,2.587,5.921,5.113,8.887,7.663,7.978,9.406,16.184,18.658,20.735,30.4q.613,22.254,1.225,44.506L364,243.561q-.313-7.37-.626-14.741.183-1,.364-2.011l-.559-1.339-.032-.024-1.279-.549c-3.743-.481-7.37-.834-5.541,4.928l-.549,13.675Z" fill="#120b01"/>
    <path d="M277.062,199.786q-.48,13.785-.958,27.572l-2.883,16.226c-18.219.027-36.438.023-54.657.1-4.929.021-9.857.293-14.784.452-1.852-8.661-2.831-17.643-5.834-25.889-2.4-6.6-7.267-12.315-11.039-18.423q26.886-.033,53.773-.064Q258.871,199.751,277.062,199.786Z" fill="#a47051"/>
    <path d="M417.94,469.184l11.266,1.7v103.1c-3.494.015-6.991-.077-10.479.07-4.9.207-9.8.592-14.693.9l-6.407-1.892c-.153-19.212-.356-38.422-.451-57.633-.075-15.1-.016-30.192-.016-45.287l12.9-.951Z" fill="#986b41"/>
    <path d="M397.276,309.622c.193-9.6.453-19.207.538-28.812.025-2.793-.695-5.594-.649-8.385.151-9.279.5-18.554.767-27.831l2.143-.054,6.82.014h21.832v63.555l-10.684,1.419Z" fill="#986b41"/>
    <path d="M349.775,21.145v9.444h-8.743c2,20.767,3.942,40.971,5.887,61.175l-18.91.557c-.343-10.933-.525-21.874-1.091-32.795-.316-6.085-1.195-12.147-2.009-18.194-.151-1.122-1.011-2.833-1.868-3.061-4.919-1.314-9.935-2.262-14.918-3.335-.117-1.47-.234-2.939-.391-4.919h-8.8V20.759l1.734-.7a15.036,15.036,0,0,0,3.3.708c12.739-.151,25.477-.375,38.216-.579l5.043.33Z" fill="#040302"/>
    <path d="M230.988,575.048c-18.914-.006-37.827.012-56.74-.048-2.647-.008-5.292-.4-7.939-.619a46.561,46.561,0,0,1-4.529-2.578c-3.766-2.708-9.148-3.835-9.776-9.7l1.1-.215c1.678,1.1,3.308,2.279,5.045,3.275,3.6,2.065,7.259,4.031,10.893,6.038,11.038,4.44,22.462,4.389,32.5-1.317a50.116,50.116,0,0,0,24.436-31.928c2.289-9,1.62-17.975-.986-26.837,3.324,2.476,7.132,4.509,9.89,7.506,11.75,12.766,12.654,39.052,2.125,52.434l-4.1,3.629Z" fill="#865f37"/>
    <path d="M166.365,134.988l7.383,56.308-7.727,1.114a79.23,79.23,0,0,1-9.775-.885c-1.24-.253-3.04-1.954-3.109-3.085-.576-9.412-.9-18.844-1.115-28.274-.195-8.687,1.313-17.672-5.155-24.762l-13.725-2.217-.157,1.421c-3.75-.421-4.351-2.646-2.167-8.025l2.206-.071,27.94.3,4.782,1.277C165.958,130.454,166.161,132.721,166.365,134.988Z" fill="#040302"/>
    <path d="M308.123,34.936c4.983,1.073,10,2.021,14.918,3.335.857.228,1.717,1.939,1.868,3.061.814,6.047,1.693,12.109,2.009,18.194.566,10.921.748,21.862,1.091,32.795l-25.019.43c.007-4.855-.352-9.744.093-14.559,1.261-13.645,2.844-27.261,4.333-40.885A13.439,13.439,0,0,1,308.123,34.936Z" fill="#0e0c09"/>
    <path d="M104.047,243.521l-17,.024-.069-75.9c3.929-.139,7.885-.576,11.771-.226,1.1.1,2.794,2.463,2.849,3.842.305,7.58.119,15.178.263,22.767a26.1,26.1,0,0,0,1.095,5.063l1.14.743Z" fill="#a07346"/>
    <path d="M132.985,134.608l.157-1.421,13.725,2.217c6.468,7.09,4.96,16.075,5.155,24.762.212,9.43.539,18.862,1.115,28.274.069,1.131,1.869,2.832,3.109,3.085a79.23,79.23,0,0,0,9.775.885l-14,.422-9.038-.028-4.964-.006-7.863-.406a25.4,25.4,0,0,1-.48-5.15c1.759-16.416,3.676-32.814,5.361-49.237C135.146,136.954,133.705,135.744,132.985,134.608Z" fill="#171510"/>
    <path d="M353.06,168.691c-2.966-2.55-5.953-5.076-8.887-7.663-1.088-.96-1.862-2.517-3.1-3.025-7.951-3.261-9.969-6.106-8.991-14.055.322-2.616,1.361-5.009-1.545-7-.708-.486-.508-2.471-.515-3.768-.041-7.776-.021-15.553-.021-23.329l19-.214c.958,7.822,2.055,15.63,2.838,23.469.891,8.917,1.64,17.854,2.155,26.8C354.164,162.805,353.4,165.76,353.06,168.691Zm-13.736-20.516-2.256-.016a28.131,28.131,0,0,0,.1,3.922c.024.168,1.4.145,2.156.211Z" fill="#0a0601"/>
    <path d="M419.094,244.554H406.9q.062-18.873.124-37.747.086-19.858.208-39.716l9.664-.06,1.154.644a41.884,41.884,0,0,1,.806,5.738Q419.037,208.983,419.094,244.554Z" fill="#91613c"/>
    <path d="M65.364,484.438c-4.315-.574-8.618-1.4-12.949-1.582-1.456-.062-3.1,1.355-4.444,2.373-1.455,1.1-2.519,3.417-4.007,3.661-10.6,1.736-21.257,3.077-32.281,4.6a17.894,17.894,0,0,1,1.089-3.823c4-7.548,7.144-15.88,15.8-19.618,2.924-1.263,6.135-2.719,9.193-2.67C49.778,467.565,59.686,471.987,65.364,484.438Z" fill="#3b5312"/>
    <path d="M349,109.635l-19,.214-1.924.055-27.151-.231,2.064-16.922,25.019-.43,18.91-.557Z" fill="#efe3b8"/>
    <path d="M186.907,199.825c3.772,6.108,8.635,11.819,11.039,18.423,3,8.246,3.982,17.228,5.834,25.889q-8.748-.06-17.5-.111c-.356-1.763-.644-3.547-1.075-5.3q-3.593-14.57-7.243-29.125L176.23,198.88Z" fill="#774d2a"/>
    <path d="M397.276,309.622l20.767-.094q.132,10.906.265,21.813l-12.123.045c-.344-3.428-.907-6.852-.975-10.285-.088-4.454-2.721-5.589-6.468-5.617-1.653-.012-3.583-.491-4.889.192-1.567.821-3.446,2.517-3.7,4.076-.606,3.709-.334,7.56-.417,11.354l-13.756-.726q-.126-10.1-.255-20.206Z" fill="#6b4527"/>
    <path d="M104.047,243.521l.051-43.684a.65.65,0,0,0,.158-.622l16.43.06a97.653,97.653,0,0,1-.219,10.375c-1.393,11.309-3.029,22.588-4.572,33.878Z" fill="#774d2a"/>
    <path d="M100.929,484.933l-16.82,3.1q.018-1.434.036-2.864c1.592-5.985,2.835-12.158,8.558-15.932q.792-.187,1.584-.373l4.795-3.684,1.933-.961,4.1-1.176,1.3.075,4.062-2.187c7.719.314,13.755,3.923,18.761,9.546q-3.7,2.855-7.388,5.71c-2.358.568-5.013.633-7.01,1.811-3.868,2.282-7.43,4.321-12.043-.242C102.036,480.677,101.482,482.805,100.929,484.933Z" fill="#3b5312"/>
    <path d="M400.075,244.54l-2.143.054-10.987-1.077-.963-43.913,13.918.123Q399.989,222.134,400.075,244.54Z" fill="#a47051"/>
    <path d="M397.624,573.064l6.41,1.892c.069.441.14.882.21,1.323-4.3.187-8.6.53-12.894.536q-61.746.087-123.492.032a61.665,61.665,0,0,1-7.89-1c1.5-.6,2.957-1.541,4.509-1.736,4.163-.523,8.366-.727,12.553-1.058Z" fill="#c0a793"/>
    <path d="M385.982,199.6l.963,43.913-11.925.076q-.612-22.254-1.225-44.507Z" fill="#774d2a"/>
    <path d="M400.075,244.54l-.174-44.813c.427-1.693,1.189-3.379,1.228-5.08.168-7.481.263-14.969.113-22.449-.089-4.422,1.546-6.253,5.984-5.107q-.1,19.857-.207,39.716-.081,18.874-.124,37.747Z" fill="#d3aa76"/>
    <path d="M130.158,192.392l7.863.406,4.964.006,9.038.028c.657,1.049,1.774,2.049,1.892,3.155.517,4.817.744,9.665,1.077,14.5l-5.014.021-2.957.006-5.031,0h-.98l-6.03.006-5.965.028a2.053,2.053,0,0,1-.806.3l-.429-10.991Q128.97,196.128,130.158,192.392Z" fill="#efe3b8"/>
    <path d="M77.1,574.739c7.608-3.355,15.106-7.269,23.883-4.666,5.1-1.751,10.5-2.962,15.2-5.471,2.539-1.356,4.43-4.7,5.65-7.555,1.778-4.163,2.687-8.7,3.967-13.07q1.966,4.788,3.929,9.571c-1.624,1.27-3.611,2.268-4.8,3.86-3.332,4.463-2.609,5.943,3.009,6.59-1,5.036,1.143,8.321,5.923,9.988a3.05,3.05,0,0,1,.136.869Z" fill="#865f37"/>
    <path d="M154.992,210.489c-.333-4.837-.56-9.685-1.077-14.5-.118-1.106-1.235-2.106-1.892-3.155l14-.422,7.727-1.114q1.24,3.792,2.482,7.584.869,5.363,1.736,10.726l-2.987,1.216-17.9.1Z" fill="#e4daae"/>
    <path d="M86.98,167.648l.069,75.9-5.193.951q.108-29.179.214-58.357c.02-5.946,0-11.893,0-18.167Z" fill="#e8c794"/>
    <path d="M127.78,199.865l.429,10.991q-1.988,16.308-3.974,32.615l-8.34.058c1.543-11.291,3.179-22.57,4.572-33.879a97.653,97.653,0,0,0,.219-10.375Z" fill="#bc9a78"/>
    <path d="M133.991,574.855a3.05,3.05,0,0,0-.136-.869q-.3-2.845-.61-5.69l7.4-6.376-5.842-4.538,8.285-.012c-1.226,2.421-.532,3.951,2.183,4.281,2.229.27,4.486.31,6.73.452.629,5.865,6.011,6.992,9.777,9.7a46.561,46.561,0,0,0,4.529,2.578Z" fill="#d3aa76"/>
    <path d="M349.775,21.145l-2.549-.63a34.625,34.625,0,0,0-1.589-5.683c-.612-1.328-1.918-2.339-2.915-3.491q-.35,2.33-.7,4.658l-16.067-1.113c.088-4.141-3.344-3.733-5.644-3.776-4.419-.081-8.851.527-13.278.849-.028-.64-.213-1.8-.059-1.845,2.57-.78,5.193-1.386,7.784-2.1,5.471-1.51,10.93-3.061,16.394-4.595,1.958-.357,4.07-1.353,5.84-.928,2.988.718,7.2,1.584,8.325,3.731C347.686,10.734,348.388,16.119,349.775,21.145Z" fill="#c49d65"/>
    <path d="M101.155,331.324l-18.087.126q.081-7,.161-14.009l17.46.1Z" fill="#a07346"/>
    <path d="M160.964,126.815l-27.94-.3,2.885-.8h23.45c-3.439-6.5-6.62-7.384-13.907-4.842-.446-.942-.891-1.885-1.187-2.512l-7.3,3.572c-1.653-6.105-1.65-6,4.467-6.161,5.862-.157,11.717-.573,17.575-.875l2.978.014,5.859.975q.674,5.189,1.349,10.377Z" fill="#d2ba50"/>
    <path d="M417.94,469.184l-7.877.009q-.513-6.5-1.023-13L399,448.246l18.948.044Z" fill="#6b4527"/>
    <path d="M331.152,3.418c-5.464,1.534-10.923,3.085-16.394,4.6-2.591.715-5.214,1.321-7.784,2.1-.154.047.031,1.205.059,1.846l-.045,3-6.324,5.1-1.734.7c.351-2.935.363-5.959,1.122-8.784a12.858,12.858,0,0,1,13.41-9.932C319.368,2.259,325.256,2.942,331.152,3.418Z" fill="#e8c794"/>
    <path d="M61.876,573.012l2.18,1.949c-13.877,3.56-28.025,1.515-42.051,2a11.941,11.941,0,0,1-5.186-.941C31.623,571.288,46.853,573.705,61.876,573.012Z" fill="#e4daae"/>
    <path d="M100.689,317.545l-17.46-.1q-.007-3.964-.014-7.93l18,.387Z" fill="#774d2a"/>
    <path d="M277.031,573.053c-4.188.331-8.391.535-12.554,1.058-1.552.2-3.009,1.136-4.509,1.736q-13.448-.171-26.9-.341c-.053-.272-.107-.546-.162-.819l4.1-3.629a29.8,29.8,0,0,0,5.145.938c9.912.093,19.825,0,29.736.1A29.091,29.091,0,0,1,277.031,573.053Z" fill="#bc9a78"/>
    <path d="M94.288,468.862l-1.584.374q-4.287-5.559-8.578-11.118-.315-5.424-.629-10.848,3.68.212,7.362.421.066,1.257.129,2.521Z" fill="#774d2a"/>
    <path d="M84.126,458.118q4.29,5.559,8.578,11.118c-5.724,3.774-6.967,9.947-8.559,15.932Q84.136,471.641,84.126,458.118Z" fill="#c49d65"/>
    <path d="M159.008,114.892c-5.858.3-11.713.718-17.575.875-6.117.165-6.12.056-4.466,6.159q-.53,1.89-1.058,3.784l-2.885.8-2.206.071c.182-11.759.182-11.771,12.218-11.775C148.36,114.806,153.684,114.862,159.008,114.892Z" fill="#e8c794"/>
    <path d="M404.244,576.279c-.07-.441-.141-.882-.21-1.323,4.9-.309,9.791-.694,14.693-.9,3.488-.147,6.985-.055,10.479-.07l8.6,2.046-2,.247Z" fill="#a47051"/>
    <path d="M72.159,501.181q-1.255-1.09-2.51-2.183-1.581-5.4-3.164-10.8l1.646-.733a99.011,99.011,0,0,0,5.833,8.7c1.176,1.434,3.2,2.171,4.844,3.223a1.741,1.741,0,0,0-.559.661Q75.208,500.615,72.159,501.181Z" fill="#3b5312"/>
    <path d="M160.964,126.815l8.23-.557c2.4.305,4.1,1.216,3.678,4.079-.559,3.821-3.412,4.4-6.508,4.652-.2-2.268-.406-4.535-.618-6.9Z" fill="#865f37"/>
    <path d="M435.806,576.278l2-.247h13.053l-.036,1.174Z" fill="#c0a793"/>
    <path d="M167.845,115.881l-5.859-.975Z" fill="#e8c794"/>
    <path d="M232.911,574.687c.055.273.109.547.162.819q-1.043-.231-2.085-.458Z" fill="#c0a793"/>
    <path d="M104.256,199.215a.65.65,0,0,1-.158.622l-1.14-.743Z" fill="#bc9a78"/>
    <path d="M418.045,167.675l-1.154-.644Z" fill="#d3aa76"/>
    <path d="M204.709,310.186c3.289-.187,6.577-.525,9.866-.536,16.748-.056,33.5-.028,50.243-.028,6.968,0,6.968,0,7.347,6.95l.036,14.871-69.271-.158c.632-1.647,1.745-3.276,1.807-4.944C204.936,320.964,204.748,315.572,204.709,310.186Z" fill="#6b4527"/>
    <path d="M204.987,448.138c3.741-.008,7.483-.037,11.224-.02q28.08.127,56.163.276.759,4.361,1.515,8.724-.38,6.03-.757,12.06c-2.269.217-4.536.6-6.807.623q-28.555.327-57.112.543l-6.364-.241Q203.919,459.121,204.987,448.138Z" fill="#6b4527"/>
    <path d="M204.709,310.186c.039,5.386.227,10.778.028,16.155-.062,1.668-1.175,3.3-1.807,4.944l-16.746-.134q-.132-4.851-.263-9.7c.015-1.473.026-2.947.045-4.42.038-2.954.614-5.7-4.229-5.737s-4.915,2.446-4.677,5.82c.081,1.142.1,2.288.149,3.432l-.376,10.61-18.492-.135q.261-3.76.528-7.521-.408-3.522-.818-7.043.06-3.137.122-6.272Z" fill="#040302"/>
    <path d="M328.973,448.228l46.88.186.165,20.887h-7.064q-.141-4.481-.28-8.962c.869-9.129.869-9.13-8.306-9.084a11.955,11.955,0,0,0-2.944.086c-.83.222-2.157.851-2.2,1.385-.274,3.48-.258,6.983-.336,10.479q-.5,3.408-1,6.817l-24.744-.011q-.189-3.363-.379-6.727Z" fill="#0a0601"/>
    <path d="M328.973,448.228q-.107,7.529-.209,15.057-24.4-1.029-48.8-2.055l-1.036-4.063-.173-8.981Z" fill="#5b2b01"/>
    <path d="M275.212,319.611q.485-1.1.97-2.2c1.288.677,2.525,1.8,3.873,1.952,4.748.547,9.53.985,14.306,1.059,11.45.178,22.9.125,34.356.166l.108,10.09c-5.92.209-11.843.661-17.758.572-11.2-.167-22.4-.646-33.6-1l-1.494-5.94-.656-.994Z" fill="#713b06"/>
    <path d="M328.825,330.679q-.054-5.044-.106-10.091-.336-5.121-.678-10.24l27.939-.01,0,4.068q-2.01,8.269-4.022,16.54Z" fill="#0a0601"/>
    <path d="M129.239,470.477c-5.008-5.624-11.044-9.233-18.762-9.545l2.517-12.68,8-.05c2.633,4.724-2.661,6.75-4.6,11h42.664q.505,5.433,1.012,10.865Z" fill="#703502"/>
    <path d="M159.055,459.2H116.391c1.941-4.247,7.235-6.273,4.6-11l38.007-.02Q159.027,453.692,159.055,459.2Z" fill="#5b2b01"/>
    <path d="M204.987,448.139q-1.069,10.981-2.138,21.965l-15.894.237-1.737-.311-.267-8.757-.078-7.988q.053-2.618.106-5.234Z" fill="#0a0601"/>
    <path d="M159.055,459.2q-.027-5.508-.055-11.017l19.023-.132q.173,2.658.344,5.313-.2,3.94-.391,7.882l-1.02,8.943-16.888-.124Q159.561,464.631,159.055,459.2Z" fill="#040302"/>
    <path d="M158.868,323.5q-.264,3.761-.527,7.521l-44.727.327q.22-3.942.443-7.886Z" fill="#713b06"/>
    <path d="M376.018,469.3l-.165-20.888,18.137-.152-6.975,8.98q-.573,6.39-1.145,12.781l-9.912.132A5.535,5.535,0,0,0,376.018,469.3Z" fill="#6b4527"/>
    <path d="M389.735,331.106c.083-3.794-.189-7.645.417-11.354.255-1.559,2.134-3.255,3.7-4.076,1.306-.683,3.236-.2,4.889-.192,3.747.028,6.38,1.163,6.468,5.617.068,3.433.631,6.857.975,10.285q-4.149.045-8.305.094Z" fill="#a07346"/>
    <path d="M375.724,310.174q.128,10.1.255,20.206l-8.95.925q-.141-4.377-.283-8.754.086-3.993.172-7.987.084-2.139.169-4.277Z" fill="#040302"/>
    <path d="M100.689,317.545l.531-7.647,6.448-.113q.406,3.927.814,7.854-.314,6.877-.626,13.754l-6.7-.069Q100.923,324.434,100.689,317.545Z" fill="#040302"/>
    <path d="M366.918,314.564q-.086,3.993-.17,7.987c-.993-.039-1.987-.1-2.982-.11-8.624-.079-8.624-.076-7.914,8.353l-3.9.152q2.013-8.27,4.024-16.539Z" fill="#502301"/>
    <path d="M387.015,457.242l6.975-8.98q1.908-.083,3.816-.168l1.2.152,10.036,7.944Z" fill="#865f37"/>
    <path d="M355.852,330.794c-.71-8.429-.71-8.432,7.914-8.353,1,.009,1.989.071,2.982.11q.138,4.377.281,8.754Z" fill="#713b06"/>
    <path d="M176.833,331.153q.188-5.306.375-10.611l8.713.906q.131,4.853.263,9.7Z" fill="#713b06"/>
    <path d="M107.856,331.393q.314-6.876.626-13.754h5.262q.156,2.91.313,5.821-.222,3.944-.443,7.886Z" fill="#c0a793"/>
    <path d="M112.994,448.252l-2.517,12.68q-2.032,1.09-4.063,2.185.729-7.355,1.459-14.71Z" fill="#e8c794"/>
    <path d="M278.759,448.186q.087,4.491.173,8.983-.847.534-1.7,1.065l-3.345-1.116q-.756-4.363-1.515-8.724Z" fill="#d5ad79"/>
    <path d="M105.119,463.042l-4.105,1.176q-.516-7.976-1.034-15.951l4.128.075Z" fill="#6b4527"/>
    <path d="M99.98,448.267q.517,7.976,1.034,15.951l-1.932.961q-1.13-4.911-2.26-9.823l.144-7.275Z" fill="#5b2b01"/>
    <path d="M275.97,324.315l1.494,5.94-5.265,1.188q-.015-7.435-.034-14.871l3.046,3.037q.052,1.857.1,3.71Z" fill="#e4daae"/>
    <path d="M105.119,463.042l-1.011-14.7,3.765.065q-.729,7.356-1.459,14.71Z" fill="#171510"/>
    <path d="M178.37,453.364q-.174-2.656-.347-5.314h6.956q-.054,2.618-.105,5.234Z" fill="#502301"/>
    <path d="M96.966,448.081q-.072,3.637-.143,7.275-2.916-2.572-5.835-5.144-.063-1.263-.129-2.521Q93.912,447.889,96.966,448.081Z" fill="#91613c"/>
    <path d="M124.235,243.471q1.987-16.308,3.974-32.615a2.053,2.053,0,0,0,.806-.3l5.965-.028,6.03-.006h.98l5.03,0,2.958-.006,5.014-.021,2.085.437c.331,3.258.609,6.522,1,9.772.927,7.63,1.909,15.252,2.868,22.878Z" fill="#703502"/>
    <path d="M160.949,243.576c-.959-7.626-1.941-15.248-2.868-22.878-.395-3.25-.673-6.514-1-9.772l17.9-.1q2.992,16.311,5.983,32.62Z" fill="#0a0601"/>
    <path d="M328.041,310.348q.34,5.12.678,10.24c-11.454-.04-22.908.013-34.358-.165-4.776-.074-9.558-.512-14.306-1.059-1.348-.155-2.585-1.275-3.873-1.952q-.476-2.895-.949-5.788.24-.675.475-1.353,25.223-.22,50.446-.42A7.456,7.456,0,0,1,328.041,310.348Z" fill="#502301"/>
    <path d="M283.991,242.609c.074-3.822.029-7.65.254-11.462.256-4.357,2.562-6.358,7.114-6.458,14.748-.326,14.744-.429,14.758,14.238,0,1.5.051,2.991.079,4.485Z" fill="#bc8c1b"/>
    <path d="M158.173,310.182l-.123,6.272-43.876-.021q-.021-2.48-.044-4.96l.88-.954a3.88,3.88,0,0,0,.226-.72Z" fill="#502301"/>
    <path d="M180.962,243.442q-2.991-16.31-5.983-32.62l2.987-1.216q3.627,14.56,7.243,29.125c.431,1.748.719,3.532,1.075,5.3Q183.625,243.731,180.962,243.442Z" fill="#a47051"/>
    <path d="M355.774,243.5q.274-6.837.551-13.67,3.525-.5,7.045-1.01.313,7.371.626,14.741Z" fill="#bc8c1b"/>
    <path d="M366.918,314.564l-10.94-.157q0-2.035,0-4.069l11.107-.051Q367,312.426,366.918,314.564Z" fill="#171510"/>
    <path d="M273.221,243.584l2.883-16.226q.471,7.579.941,15.161Z" fill="#e4daae"/>
    <path d="M114.13,311.473q.023,2.479.044,4.96-.216.6-.43,1.2h-5.262q-.406-3.927-.814-7.854l7.568.013a3.867,3.867,0,0,1-.226.721Z" fill="#986b41"/>
    <path d="M275.708,310.271q-.236.678-.475,1.353Q275.468,310.948,275.708,310.271Z" fill="#865f37"/>
    <path d="M100.929,484.933l1.867-7.178c4.613,4.563,8.175,2.524,12.043.242,2-1.178,4.652-1.243,7.01-1.811l27.022,9.012-8.7,7.266L120.5,491.5c4.237,6.491,7.61,11.658,10.984,16.825q-1.338,4.944-2.674,9.889l-1.7-1.22c-.16-7.243-4.32-12.827-7.332-19.025-3.242-6.671-8.017-10.132-14.857-11.579Z" fill="#865f37"/>
    <path d="M104.925,486.391c6.84,1.447,11.615,4.908,14.857,11.579,3.012,6.2,7.172,11.782,7.331,19.026-.7,6.018-1.008,12.117-2.212,18.033a201.9,201.9,0,0,1-6.092,23.2c-.657,1.983-3.874,3.121-5.916,4.647,1.2-2.295,2.869-4.469,3.5-6.91a165.715,165.715,0,0,0,4.436-20.584c.724-5.723.217-11.61.141-17.424-.15-11.515-3.453-21.491-13.759-28.118C106.149,489.155,105.673,487.562,104.925,486.391Z" fill="#deb035"/>
    <path d="M112.893,562.875c2.042-1.526,5.259-2.664,5.916-4.647a201.9,201.9,0,0,0,6.092-23.2c1.2-5.916,1.507-12.015,2.212-18.033q.851.609,1.7,1.217-1.51,12.88-3.022,25.762c-1.28,4.376-2.189,8.909-3.967,13.072-1.22,2.857-3.111,6.2-5.65,7.555-4.7,2.509-10.091,3.72-15.2,5.471.622-.968,1.02-2.381,1.906-2.827C106.135,565.615,109.545,564.306,112.893,562.875Z" fill="#bc8c1b"/>
    <path d="M72.159,501.181q3.048-.565,6.09-1.133c2.489,3.491,1.436,6.354-2.274,9.944Z" fill="#774d2a"/>
    <path d="M363.37,228.82q-3.52.508-7.045,1.01c-1.831-5.767,1.8-5.414,5.539-4.933l1.279.549.032.024q.279.671.559,1.339Q363.553,227.814,363.37,228.82Z" fill="#efe3b8"/>
    <path d="M363.143,225.446l-1.279-.549Z" fill="#bc8c1b"/>
    <path d="M363.734,226.809q-.28-.669-.559-1.339Z" fill="#bc8c1b"/>
    <path d="M375.958,470.155l9.913-.132,11.289.121c0,15.095-.059,30.191.016,45.287.1,19.211.3,38.421.451,57.633l-120.6-.011a29.064,29.064,0,0,0-5.142-.962c-9.911-.094-19.824,0-29.736-.1a29.8,29.8,0,0,1-5.145-.938c10.529-13.382,9.625-39.668-2.125-52.434-2.758-3-6.566-5.03-9.89-7.506l.036.037-.011-1.325-4.928-1.693-3.189-4.822c.131-.851.631-1.866.336-2.527-3.37-7.558-6.862-15.063-10.322-22.581l2.3-7.863q28.555-.258,57.111-.543c2.271-.026,4.538-.406,6.807-.623l3.892.046c.333,0,.666,0,1-.022l3.1.875,48.02-.065,24.744.011,15.08.118Z" fill="#d5ad79"/>
    <path d="M397.16,470.144l-11.289-.121q.572-6.392,1.144-12.781l22.025-1.052q.511,6.5,1.023,13Z" fill="#a07346"/>
    <path d="M300.664,20.055l6.324-5.1,18.967-.072L342.022,16q.079,2.092.16,4.185c-12.739.2-25.477.428-38.216.579A15.036,15.036,0,0,1,300.664,20.055Z" fill="#a07346"/>
    <path d="M342.182,20.184q-.081-2.092-.16-4.185.349-2.328.7-4.658c1,1.152,2.3,2.163,2.915,3.491a34.625,34.625,0,0,1,1.589,5.683Z" fill="#774d2a"/>
    <path d="M216.9,503.315q1.6,2.412,3.189,4.823c.873,3.46,2.787,7.032,2.427,10.36-1.163,10.756-3.712,21.211-11.654,29.38-3.071,3.159-6.154,6.318-9.395,9.3-7.083,6.515-15.107,11.13-24.933,12.167a54.091,54.091,0,0,0-7.489,1.856c-3.634-2.007-7.292-3.973-10.893-6.038-1.737-1-3.367-2.178-5.044-3.275-1.459-2.983.843-4.481,2.568-6.022a53.281,53.281,0,0,0,13.481-19.606l5.008-2.294,1.405,2.134-4.781,2.276.652,1.169,3.619.692c6.093-.325,10.734-4.412,12.457-11.217a16.672,16.672,0,0,0-.028-4.255l-4.508.455c-2.337-.764-5.7,1.918-7.069-2.092q5.6-10.951,11.193-21.9l13.927-2.125Z" fill="#efe3b8"/>
    <path d="M169.044,571.2a54.091,54.091,0,0,1,7.489-1.856c9.826-1.037,17.85-5.652,24.933-12.167,3.241-2.981,6.324-6.14,9.395-9.3,7.942-8.169,10.491-18.624,11.654-29.38.36-3.328-1.554-6.9-2.427-10.36q2.466.846,4.93,1.7,0,.663.01,1.322l-.036-.037c2.606,8.862,3.275,17.833.986,26.837a50.116,50.116,0,0,1-24.436,31.928C191.506,575.589,180.082,575.64,169.044,571.2Z" fill="#deb035"/>
    <path d="M169.157,536.26a53.3,53.3,0,0,1-13.482,19.605c-1.725,1.541-4.027,3.039-2.568,6.022l-1.1.215c-2.245-.141-4.5-.181-6.731-.451-2.715-.33-3.409-1.86-2.183-4.283,8.462-1.046,20.736-11.84,23.01-20.324.15-.556-.276-1.266-.432-1.9l1.267-.145Z" fill="#deb035"/>
    <path d="M142.985,192.8l-4.964-.006Z" fill="#e4daae"/>
    <path d="M339.324,148.175v4.117c-.752-.066-2.132-.043-2.156-.211a28.131,28.131,0,0,1-.1-3.922Z" fill="#120b01"/>
    <path d="M148.871,485.2l-27.022-9.012q3.693-2.854,7.388-5.71l30.83-.412,16.889.124,8.262-.158,1.737.311c.393,1.574.777,3.15,1.18,4.722,1.335,5.2,5.107,7.007,9.869,5.2,2.051-.777,4.475-.571,6.729-.811.394,4.209,1.09,8.488-2.729,11.719l-2.667-.035c-.631-4.68-4.265-6.374-8.019-6.289-2.973.068-4.571,2.9-3.984,6.227l-4.118,1.07a19.089,19.089,0,0,1-2.754-2.038c-5.678-5.993-12.558-9.028-20.818-7.881C155.986,482.736,152.458,484.179,148.871,485.2Z" fill="#d3aa76"/>
    <path d="M90.988,450.212q2.919,2.571,5.835,5.144,1.128,4.912,2.259,9.823l-4.795,3.684Q92.639,459.536,90.988,450.212Z" fill="#c49d65"/>
    <path d="M134.98,210.524l-5.965.028Z" fill="#e4daae"/>
    <path d="M149.978,210.51l-2.958.006Z" fill="#e4daae"/>
    <path d="M141.99,210.518h0Z" fill="#e4daae"/>
    <path d="M148.871,485.2c3.587-1.019,7.115-2.462,10.773-2.97,8.26-1.147,15.14,1.888,20.818,7.881a19.181,19.181,0,0,0,2.752,2.038q.372,4.5.747,9l-10.234,20.743a3.784,3.784,0,0,0-.673-.02c-1.486-1.545-2.739-3.494-4.524-4.522-1.813-1.043-5.078-2.294-6.067-1.477-2.045,1.689-4.684,5.277-4.07,7.041,1.525,4.386,4.738,8.188,7.273,12.224.158.639.584,1.349.434,1.9-2.274,8.484-14.548,19.278-23.01,20.324q-4.143.009-8.285.013l-1.685-.364-3.326-3.351-.07-.118-3.931-9.571q1.51-12.885,3.022-25.764,1.335-4.941,2.671-9.887,4.343-7.932,8.689-15.862Z" fill="#efe3b8"/>
    <path d="M133.245,568.3q.306,2.845.61,5.69c-4.78-1.667-6.922-4.952-5.923-9.988-5.618-.647-6.341-2.127-3.009-6.59,1.188-1.592,3.175-2.59,4.8-3.86l.069.119q.6,2.193,1.214,4.385Q132.126,563.175,133.245,568.3Z" fill="#6b4527"/>
    <path d="M133.245,568.3q-1.119-5.123-2.24-10.243l2.115-1.036,1.685.364c1.792,1.393,3.583,2.785,5.842,4.539Z" fill="#91613c"/>
    <path d="M325.955,14.886l-18.967.072.045-3c4.427-.323,8.859-.931,13.278-.85C322.611,11.153,326.043,10.745,325.955,14.886Z" fill="#d5ad79"/>
    <path d="M135.909,125.71q.53-1.893,1.058-3.784c2.292-1.12,4.585-2.242,7.3-3.57.3.627.741,1.57,1.187,2.512,7.287-2.542,10.468-1.655,13.907,4.842Z" fill="#d3aa76"/>
    <path d="M204.733,479.455c-2.254.24-4.678.034-6.729.811-4.762,1.8-8.534,0-9.869-5.2-.4-1.572-.787-3.148-1.18-4.722l15.894-.237,6.364.24-2.3,7.863Z" fill="#865f37"/>
    <path d="M277.024,469.224l-3.892-.046q.378-6.03.757-12.06l3.345,1.116q-.2,1.494-.406,2.988l.087,4a2.989,2.989,0,0,1,.131.93Z" fill="#efe3b8"/>
    <path d="M113.744,317.638q.215-.6.43-1.2l43.876.021q.411,3.52.819,7.043l-44.812-.038Q113.9,320.547,113.744,317.638Z" fill="#5b2b01"/>
    <path d="M185.921,321.448l-8.713-.906c-.047-1.143-.067-2.289-.148-3.431-.238-3.374-.173-5.859,4.677-5.82s4.267,2.783,4.229,5.737C185.947,318.5,185.936,319.975,185.921,321.448Z" fill="#502301"/>
    <path d="M329.141,470.012l-48.02.065q-.577-4.423-1.153-8.847,24.4,1.028,48.8,2.055Q328.95,466.65,329.141,470.012Z" fill="#713b06"/>
    <path d="M368.965,470.141l-15.08-.118q.5-3.408,1-6.817a30.9,30.9,0,0,0,4.772-2.107c2.929-1.909,5.83-2.594,9.013-.759q.139,4.482.28,8.961Q368.958,469.721,368.965,470.141Z" fill="#713b06"/>
    <path d="M368.674,460.34c-3.183-1.835-6.084-1.15-9.013.759a30.9,30.9,0,0,1-4.772,2.107c.078-3.5.062-7,.336-10.479.042-.534,1.369-1.163,2.2-1.385a11.955,11.955,0,0,1,2.944-.086C369.543,451.21,369.543,451.211,368.674,460.34Z" fill="#502301"/>
    <path d="M368.965,470.141q-.006-.42-.011-.84h7.064a5.539,5.539,0,0,1-.06.854Z" fill="#502301"/>
    <path d="M279.968,461.23q.576,4.423,1.153,8.847l-3.1-.875q-.488-1.525-.976-3.052a2.978,2.978,0,0,0-.131-.929l-.087-4q.2-1.494.406-2.988.849-.531,1.7-1.065Q279.451,459.2,279.968,461.23Z" fill="#bc8c1b"/>
    <path d="M275.97,324.315l-.656-1Q275.643,323.819,275.97,324.315Z" fill="#bc9a78"/>
    <path d="M185.218,470.03l-8.262.158,1.02-8.943,6.975.028Z" fill="#865f37"/>
    <path d="M184.951,461.273l-6.975-.028q.193-3.942.391-7.882l6.507-.078Q184.912,457.28,184.951,461.273Z" fill="#713b06"/>
    <path d="M114.13,311.473l.88-.954Z" fill="#5b2b01"/>
    <path d="M140.175,492.464q-4.346,7.93-8.689,15.862L120.5,491.5Z" fill="#d3aa76"/>
    <path d="M204.733,479.455l2.182-1.248c3.459,7.518,6.951,15.023,10.321,22.581.3.661-.2,1.676-.336,2.527L201.031,499.1q.486-3.962.973-7.924C205.823,487.943,205.127,483.664,204.733,479.455Z" fill="#a07346"/>
    <path d="M277.046,466.15q.489,1.525.976,3.052c-.332.019-.665.027-1,.022Q277.036,467.687,277.046,466.15Z" fill="#e8c794"/>
    <path d="M225.028,511.155q0-.66-.01-1.322Q225.022,510.492,225.028,511.155Z" fill="#865f37"/>
    <path d="M173.054,521.873a3.632,3.632,0,0,1,.675.022l2.182,1.232c1.373,4.01,4.732,1.328,7.069,2.091a31.963,31.963,0,0,1-1.572,3.982c-2.051,3.715-4.224,7.362-6.349,11.036l-3.619-.692-.652-1.169,4.781-2.276-1.405-2.134-5.008,2.294L166.936,535c.688-4.079,5.023-7.959.841-11.508Z" fill="#d2ba50"/>
    <path d="M202,491.174q-.487,3.963-.973,7.924L187.1,501.223l-3.142-.073q-.375-4.5-.747-9l4.118-1.07c7.305,4.4,7.729,4.405,12,.062Z" fill="#c49d65"/>
    <path d="M175.059,540.236c2.125-3.674,4.3-7.321,6.349-11.036a31.963,31.963,0,0,0,1.572-3.982l4.508-.454a16.672,16.672,0,0,1,.028,4.255C185.793,535.824,181.152,539.911,175.059,540.236Z" fill="#d3aa76"/>
    <path d="M183.961,501.15l3.142.073q-5.6,10.951-11.192,21.9l-2.182-1.232Q178.843,511.521,183.961,501.15Z" fill="#d5ad79"/>
    <path d="M173.054,521.873l-5.277,1.614c4.182,3.549-.153,7.429-.841,11.508l-1.268.144c-2.537-4.036-5.75-7.838-7.275-12.224-.614-1.764,2.025-5.352,4.07-7.041.989-.817,4.254.434,6.067,1.477C170.315,518.379,171.568,520.328,173.054,521.873Z" fill="#d5ad79"/>
    <path d="M199.337,491.139c-4.276,4.343-4.7,4.341-12-.062-.585-3.325,1.013-6.159,3.986-6.227C195.072,484.765,198.706,486.459,199.337,491.139Z" fill="#774d2a"/>
    <path d="M133.12,557.017l-2.115,1.036q-.608-2.193-1.214-4.386Q131.457,555.341,133.12,557.017Z" fill="#865f37"/>
    <path d="M276.828,461.222l.087,4Q276.872,463.22,276.828,461.222Z" fill="#e8c794"/>
  </g>
</svg>
