<svg width="35" height="35" viewBox="0 0 35 35" fill="none" xmlns="http://www.w3.org/2000/svg">
<path d="M3.65742 35C2.72802 35 1.79863 34.6577 1.0649 33.9242C0.382625 33.234 0 32.3028 0 31.3325C0 30.3622 0.382625 29.431 1.0649 28.7408L28.751 1.06357C30.1696 -0.354523 32.5175 -0.354523 33.9361 1.06357C35.3546 2.48166 35.3546 4.82885 33.9361 6.24694L6.24994 33.9242C5.56512 34.6577 4.58681 35 3.65742 35Z" fill="black"/>
<path d="M31.3436 35C30.4142 35 29.4848 34.6577 28.751 33.9242L1.0649 6.24694C0.382625 5.55678 0 4.62558 0 3.65526C0 2.68494 0.382625 1.75373 1.0649 1.06357C2.48345 -0.354523 4.83139 -0.354523 6.24994 1.06357L33.9361 28.7408C35.3546 30.1589 35.3546 32.5061 33.9361 33.9242C33.2024 34.6577 32.273 35 31.3436 35V35Z" fill="black"/>
</svg>
