<svg width="42" height="42" viewBox="0 0 42 42" fill="none" xmlns="http://www.w3.org/2000/svg">
<path d="M19.5 37C9.84651 37 2 29.1535 2 19.5C2 9.84651 9.84651 2 19.5 2C29.1535 2 37 9.84651 37 19.5C37 29.1535 29.1535 37 19.5 37ZM19.5 4.44186C11.1977 4.44186 4.44186 11.1977 4.44186 19.5C4.44186 27.8023 11.1977 34.5581 19.5 34.5581C27.8023 34.5581 34.5581 27.8023 34.5581 19.5C34.5581 11.1977 27.8023 4.44186 19.5 4.44186Z" fill="#4F7359"/>
<path d="M15.1495 25C14.8574 25 14.5653 24.8924 14.3347 24.6619C14.1203 24.445 14 24.1523 14 23.8474C14 23.5424 14.1203 23.2497 14.3347 23.0328L23.036 14.3343C23.4819 13.8886 24.2198 13.8886 24.6656 14.3343C25.1115 14.78 25.1115 15.5176 24.6656 15.9633L15.9643 24.6619C15.749 24.8924 15.4416 25 15.1495 25Z" fill="#4F7359"/>
<path d="M23.8508 25C23.5587 25 23.2666 24.8924 23.036 24.6619L14.3347 15.9633C14.1203 15.7464 14 15.4538 14 15.1488C14 14.8438 14.1203 14.5512 14.3347 14.3343C14.7805 13.8886 15.5184 13.8886 15.9643 14.3343L24.6656 23.0328C25.1115 23.4785 25.1115 24.2162 24.6656 24.6619C24.435 24.8924 24.1429 25 23.8508 25V25Z" fill="#4F7359"/>
</svg>
