<?xml version="1.0" encoding="UTF-8"?><svg id="Layer_1" xmlns="http://www.w3.org/2000/svg" width="733.79" height="596.15" viewBox="0 0 733.79 596.15"><defs><style>.cls-1{fill:#d8bf87;}.cls-2{fill:#4f7359;}</style></defs><path class="cls-2" d="M364.37,596.14c-114.5,0-229,0-343.5,0-18.83,0-20.94,.55-20.86-20.64,.16-42.93,.05-85.86,.07-128.79,0-2.86,.16-5.71,.31-8.57,.22-4.04,3.2-7.39,7.06-7.47,13.34-.28,26.69-.41,40.03-.59,5.72-.07,11.45,0,17.17-.19,7.75-.26,10.79-4.2,10.64-13.43-.06-3.78-3.01-8.3-5.86-8.48-7.6-.46-15.25-.4-22.82-1.12-14.01-1.33-28.53,3.69-42.07-3.38-4.28-13.01-1.85-26.4-2-39.6-.39-35.29-.16-70.6-.09-105.9,0-3.78,.5-7.56,.82-11.34,.3-3.61,3.42-4.96,5.92-5.04,16.21-.47,32.42-.65,48.64-.64,22.12,0,20.31,.2,32.71-16.8,7.58-10.4,11.1-21.78,11.42-34.63,.38-15.25,1.86-30.47,2.54-45.71,1.18-26.75,5.2-53.12,10.04-79.39,1.05-5.69,1.41-10.97-.11-16.8-3.25-12.41,.2-24.6,3.43-36.53,1.59-5.88,6.38-10.31,12.4-10.45,19.03-.44,38.09-.26,57.11,.26,4.87,.13,8.29,3.95,10.7,8.46,5.2,9.71,6.08,20.46,4.87,30.69-1.95,16.43,.87,32.15,3.19,48.15,4.1,28.31,7.65,56.71,8.25,85.38,.14,6.68,.38,13.36,.29,20.03-.1,7.89,2.14,15.13,6.11,21.75,3.92,6.52,8.19,12.87,12.72,18.99,2.89,3.9,6.96,6.42,12.14,6.42,11.45,0,22.9,.06,34.35,.02,6.23-.02,10.74-3.1,14.16-8.15,3.21-4.74,6.85-9.21,9.78-14.1,4.96-8.28,8.14-17.12,7.88-27.06-.72-27.74,2.56-55.23,5.55-82.73,.82-7.57,1.89-15.13,3.16-22.65,2.54-15.01,4.83-29.86,2.92-45.33-1.14-9.27-.39-19.03,3.34-28.16,2.73-6.68,6.86-12,14.32-12.18,18.1-.42,36.22-.44,54.32,.04,5.98,.16,10.89,4.11,12.84,9.96,3.63,10.92,6.57,22.61,4.1,33.67-2.22,9.94-.43,18.67,1.17,28.03,5.98,34.83,8.71,70.01,10.48,105.28,.14,2.86,.44,5.73,.3,8.58-.77,16.01,4.79,29.68,14.2,42.43,6.08,8.24,12.67,13.9,23.59,12.58,3.76-.46,7.64,.18,11.44-.11,8.4-.65,18.04,3.04,24.92-3.08,9.26-8.24,16.47-18.61,20.11-30.71,1.9-6.3,2.75-13.03,3.23-19.63,.75-10.46,.82-20.97,1.11-31.46,.81-28.68,4.78-57,9.86-85.17,1.54-8.52,1.69-16.8,1.08-25.48-.72-10.33,.68-20.9,2.03-31.25,1.02-7.77,8.07-13.7,16.07-13.86,17.16-.33,34.33-.33,51.49-.05,7.83,.13,14.34,5.92,16.15,13.89,2.55,11.22,2.85,22.59,2,34.08-.48,6.58-.62,13.41,.55,19.86,7.37,40.46,11.48,81.18,11.34,122.32-.07,19.62,10.85,34.04,23.2,47.58,1.65,1.81,5.17,2.62,7.85,2.67,16.21,.31,32.43,.2,48.65,.37,4.75,.05,9.58,.11,14.22,.96,2.54,.47,5.47,1.86,5.64,5.49,.18,3.79,.69,7.58,.69,11.37,.05,42.93,.07,85.86-.02,128.79-.01,4.73-.5,9.51-1.39,14.15-.29,1.5-2.36,3.37-3.94,3.76-3.65,.9-7.5,1.31-11.28,1.36-15.26,.18-30.53,.06-45.8,.24-8.13,.1-10.62,3.57-10.05,13.29,.37,6.36,2.75,9.39,7.82,9.45,15.26,.16,30.53,.14,45.79,.29,3.81,.04,7.68,.1,11.38,.85,1.49,.3,3.31,2.3,3.73,3.87,.73,2.7,.62,5.67,.62,8.53,.03,45.79,.04,91.59,.02,137.38,0,2.86-.23,5.72-.4,8.57-.14,2.26-3.24,5.81-5.27,5.89-8.55,.35-17.11,.89-25.66,.9-111.64,.06-223.28,.04-334.92,.04Zm5.25-336.01c-104.91,0-209.83,0-314.74,.01-8.58,0-17.17,.1-25.75,.27-3.8,.08-6.96,3.32-6.96,7.33-.03,37.17,.02,74.35,.07,111.52,0,.94,.03,2.14,.58,2.76,1.14,1.31,2.55,3.17,3.99,3.3,7.55,.66,15.13,1.17,22.71,1.17,211.74,.06,423.47,.05,635.21,.04,5.72,0,11.45,0,17.17-.06,1.9-.02,4.18,.36,5.62-.53,2.16-1.33,5.32-3.61,5.33-5.5,.25-38.13,.11-76.25,.01-114.38,0-2.05-3.53-5.45-5.6-5.51-6.67-.18-13.34-.39-20.01-.39-105.87-.02-211.74-.02-317.6-.02Zm-6.02,315.64c104.94,0,209.88,0,314.82-.02,8.58,0,17.17-.18,25.74-.43,4.15-.12,6.95-2.99,6.96-7.25,.06-37.19,.04-74.37,0-111.56,0-.92-.62-1.83-.69-2.76-.17-2.23-1.34-3.36-3.73-3.44-9.5-.33-18.99-.98-28.49-.98-207.97-.06-415.94-.04-623.92-.04-5.72,0-11.45-.02-17.17,.01-2.86,.02-5.72,.08-8.58,.19-5.56,.21-8.65,3.17-8.66,8.83-.06,36.24-.03,72.48-.02,108.73,0,.95,.13,1.9,.21,2.85,.16,1.84,3.8,5.26,5.83,5.31,8.58,.22,17.15,.53,25.73,.53,103.99,.04,207.97,.02,311.96,.02Zm213.41-335.06v.23c9.52,0,19.04,0,28.56,0,4.76,0,9.52,0,14.28-.1,5.88-.11,9.27-4.36,6.52-8.79-9.92-15.99-12.12-33.4-12.25-51.89-.29-38.14-5.33-75.93-12.04-113.42-1.88-10.53-3.52-20.31,.37-30.58,.93-2.45-.03-5.63-.22-8.47-.26-3.99-3.36-7.68-6.92-7.7-12.34-.06-24.69-.14-37.01,.37-2.46,.1-4.88,2.76-4.86,6.08,.03,4.72-1,9.84,.47,14.07,2.34,6.7,1.63,12.77,.45,19.46-7.59,43.15-13.67,86.49-13.17,130.45,.13,11.73-2.68,22.59-7.77,32.98-1.25,2.56-2.89,4.93-4.12,7.5-2.67,5.52-.59,9.76,4.88,9.79,14.28,.09,28.55,.03,42.83,.03Zm-418.01-.29s0-.01,0-.02c15.23,0,30.46,.02,45.69-.02,2.28,0,4.57-4.31,3.2-6.45-10.7-16.72-12.39-35.27-13.2-54.62-1.66-39.94-4.49-79.85-13.45-119.03-1.49-6.52-1.82-13.08,.88-19.62,2.29-5.54,1.08-11.29-.97-16.69-.6-1.57-2.54-3.71-3.92-3.74-12.32-.32-24.67-.47-36.98,0-1.9,.07-4.34,3.28-5.31,5.56-1.07,2.5-1.5,5.78-.89,8.41,3.56,15.31,.88,30.18-2.31,45.12-1.39,6.5-2,13.16-3,19.75-4.44,29.24-6.59,58.66-6.46,88.23,.07,14.65-3.47,28.23-10.81,40.88-1.43,2.46-2.92,5.04-3.49,7.75-.27,1.27,1.56,4.3,2.47,4.31,16.18,.27,32.36,.19,48.55,.19Zm208.14-.06c0,.14,0,.28,0,.41,15.24,0,30.47,.03,45.71-.02,4.32-.01,6.84-3.86,4.63-7.46-10.32-16.76-13.97-34.89-13.69-54.51,.32-21.88-.81-43.77-4.57-65.46-2.76-15.93-4.94-31.96-7.11-47.98-.89-6.56-2.43-13.44-1.35-19.78,5.02-29.48-1.87-26.05-24.49-26.2-5.68-.04-11.4,.15-17.04,.78-1.5,.17-3.64,2.16-3.98,3.66-1.04,4.56-2.96,9.84-1.61,13.85,3.22,9.54,2.78,18.61,.27,27.98-.98,3.67-1.75,7.41-2.36,11.16-5.85,35.75-9.03,71.79-10.21,107.96-.53,16.47-2.1,32.3-11.94,46.2-.52,.74-.55,1.82-.92,2.69-1.05,2.5,.71,6.66,2.99,6.67,15.23,.05,30.45,.03,45.68,.03Zm-206.35,166.93v-.18c-6.62,0-13.25-.07-19.87,.01-13.24,.17-26.47,.37-39.7,.7-3.53,.09-6.08,3.51-6.31,7.86-.05,.94-.1,1.89-.08,2.83,.19,8.18,2.01,11.06,9.43,11.11,35.96,.22,71.92,.12,107.88,.12,.94,0,2.08,.21,2.8-.23,2.34-1.4,5.24-2.35,5.61-5.74,.2-1.86,.7-3.7,.73-5.56,.13-7.74-2.41-10.84-9.38-10.89-17.03-.12-34.07-.04-51.1-.04Zm205.63,22.63v.04c11.36,0,22.71,.09,34.07-.03,8.5-.09,17.02-.15,25.47-.91,2.51-.22,4.88-2.74,5.08-5.96,.18-2.81,.14-5.62,.3-8.43,.18-3.35-2.08-5.13-4.52-6.41-1.59-.83-3.67-.97-5.54-.97-35.96,0-71.91,.07-107.87,.14-.94,0-2.09-.17-2.79,.28-2.26,1.47-4.85,2.43-5.2,5.97-1.27,12.84,1.07,16.14,12.74,16.24,16.09,.14,32.17,.03,48.26,.03Zm213.12-22.64v-.17c-11.38,0-22.77-.11-34.15,.04-8.51,.11-17.03,.46-25.53,.91-3.83,.21-5.91,3.26-6.01,8.16-.04,1.89-.05,3.8,.17,5.67,.45,3.83,3.78,7.5,7.14,7.54,21.81,.24,43.62,.45,65.43,.51,15.18,.04,30.35-.1,45.53-.3,4.67-.06,8.45-4.13,9.05-9.17,1-8.36-2.55-13.06-10.41-13.13-17.07-.15-34.15-.04-51.22-.04Zm-107.34,23.1c6.05-.39,11.71-.52,17.28-1.28,1.47-.2,3.32-2.11,3.9-3.65,4.28-11.43-.19-18.4-11.98-18.4-8.43,0-16.89,.36-25.28,1.21-2.41,.24-5.23,2.22-5,5.77,.24,3.72,.18,7.51,.93,11.12,.31,1.51,2.27,3.56,3.71,3.78,5.55,.84,11.2,1.05,16.43,1.46Zm-209.8-22.87v-.15c-4.71,0-9.45-.25-14.13,.14-1.62,.13-3.87,1.47-4.54,2.88-2.54,5.3-2.48,10.91,.22,16.15,.74,1.44,2.92,3.03,4.45,3.04,10.32,.09,20.64-.08,30.95-.57,1.32-.06,3.44-2.35,3.62-3.8,.56-4.59,.69-9.29,.29-13.89-.12-1.36-2.46-3.5-3.9-3.61-5.62-.42-11.29-.17-16.95-.17Z"/><path class="cls-1" d="M106.25,324.87c-.57,16.14-14.02,27.98-30.3,26.69-14.26-1.13-26.63-15.16-25.6-29,1.09-14.55,13.71-26.79,27.92-27.1,15.49-.34,28.55,13.39,27.98,29.41Z"/><path class="cls-1" d="M679.67,324.73c-.38,15.04-12.21,26.77-27.19,26.98-15.93,.22-29.1-13.27-28.28-28.96,.78-14.81,13.03-27.03,27.42-27.33,15.58-.32,28.46,13.13,28.05,29.31Z"/><path class="cls-1" d="M679.68,512.93c0,16.44-12.46,28.4-28.97,27.83-14.7-.51-26.64-12.97-26.55-27.7,.1-15.64,14.32-29.43,29.23-28.34,14.91,1.09,26.28,13.29,26.28,28.21Z"/><path class="cls-1" d="M106.24,512.96c-.05,16.42-12.55,28.1-29.12,27.86-12.43-.18-26.77-11.04-26.59-27.84,.19-17.68,14.3-28.97,29.38-28.08,15.11,.89,26.82,13.09,26.33,28.06Z"/></svg>