<?xml version="1.0" encoding="UTF-8"?><svg id="Layer_1" xmlns="http://www.w3.org/2000/svg" width="657.33" height="733.18" viewBox="0 0 657.33 733.18"><defs><style>.cls-1{fill:#d8bf87;}.cls-2{fill:#4f7359;}</style></defs><path class="cls-2" d="M0,548.93c0-36.21-.02-72.42,.01-108.64,0-6.67,0-13.35,.34-20,.72-14.6,7.79-25.26,20.86-31.67,14.29-7.01,27.7-4.87,40.02,4.88,2.22,1.76,4.01,4.04,6.14,5.93,3.68,3.26,7.97,4.93,12.99,4.93,15.25,0,30.5,0,45.74,.24,6.7,.1,13.18,1.22,19.1,4.97,11.2,7.1,18.22,16.79,18.79,30.24,.53,12.37,.32,24.77,.6,37.15,.19,8.33,3.46,11.42,12.61,11.49,20.97,.16,41.93,.04,62.9,.14,6.99,.03,13.05-1.52,17.63-7.4,2.91-3.73,6.25-7.21,9.75-10.41,43.2-39.58,107.09-38.05,147.8,.36,5.49,5.18,10.19,11.68,16.53,15.37,7.54,4.39,16.8,1.95,25.3,2.02,24.78,.2,49.56-.07,74.34,.15,9.5,.09,19.04,.63,28.49,1.64,40.67,4.35,77.27,42.59,78.72,85.19,.39,11.42,.33,22.86,.37,34.3,.06,15.25-.06,30.49,.05,45.74,.04,5.69,.12,11.44,.9,17.06,.87,6.23,7.18,8.5,10.64,12.92,10.74,13.71,8.34,32.71-5.72,42.73-2.28,1.62-4.91,2.96-7.58,3.76-2.69,.81-5.63,1.11-8.46,1.11-33.36,.07-66.71,.07-100.07,.03-5.77,0-11.24-1.06-16.28-4.35-15.92-10.38-16.3-31.86-6.73-42.54,2.52-2.81,5.84-4.95,8.17-7.88,1.65-2.08,3.14-4.97,3.19-7.52,.26-16.19,.21-32.39,.02-48.58-.06-5.45-5.5-10.92-11.18-10.98-22.86-.26-45.72-.29-68.58-.24-3.95,0-7.13,2.13-9.75,5.16-3.73,4.32-7.37,8.77-11.51,12.68-42.81,40.44-108.61,39.56-149.94-.4-5.44-5.26-10.56-10.83-15.83-16.26-9.47-.51-18.94-1.36-28.42-1.46-16.2-.18-32.4,.05-48.6,.24-5.12,.06-8.57,3.7-8.69,9.01-.17,7.62-.12,15.24-.23,22.87-.08,5.71-.11,11.44-.44,17.14-.57,10.07-5.2,18.19-12.62,24.78-5.07,4.5-10.79,7.9-17.71,8.59-5.68,.56-11.37,1.15-17.07,1.26-10.48,.21-20.97,.22-31.45,.05-7.91-.13-15.01,.97-20.51,7.63-2.35,2.85-5.73,5.02-8.97,6.95-21.5,12.82-44.25-.34-51.31-15.24-1.99-4.21-3.29-8.99-3.73-13.62-.72-7.57-.59-15.22-.6-22.84-.05-36.21-.02-72.42-.02-108.63Zm255.13,39.21c3.52,3.09,7.33,5.91,10.48,9.34,3.85,4.19,6.8,9.22,10.72,13.34,36.27,38.09,92.75,38.35,129.62,.45,3.95-4.06,7.14-8.89,10.54-13.47,3.6-4.84,7.91-7.59,14.33-7.52,22.86,.22,45.72,.04,68.59,.05,2.85,0,5.75,.03,8.55,.49,17.33,2.86,27.87,14,28.81,30.39,.33,5.7,.25,11.42,.32,17.14,.12,9.52,.15,19.04,.32,28.56,.07,3.73,3.5,7.57,6.85,7.57,22.85-.01,45.7-.08,68.55-.2,3.58-.02,6.81-3.56,6.83-7.47,.12-28.57,1.15-57.18-.01-85.7-1.32-32.43-17.8-55.21-48.1-67.97-10.06-4.24-20.35-4.55-30.79-4.59-32.39-.12-64.78,.18-97.16-.13-25.13-.23-19.69,3.65-35.54-16.66-1.17-1.5-2.55-2.83-3.87-4.2-32.98-34.14-91.81-35.03-125.82,.13-5.26,5.44-9.38,11.97-14.46,17.61-1.76,1.95-4.84,2.71-7.31,4.01-9.51-.19-19.01-.55-28.52-.53-18.06,.04-36.13,.22-54.19,.51-4.66,.08-9.26,4.49-9.39,9.06-.42,15.19-.71,30.39-.78,45.58-.03,5.67,.59,11.35,1.11,17.01,.3,3.32,4.25,6.89,7.71,7.34,1.88,.24,3.76,.71,5.63,.69,25.66-.23,51.32-.53,76.98-.81Zm-179.37-39.82c0,33.34-.02,66.69,.02,100.03,0,6.66,.21,13.33,.36,19.99,.05,2.17,3.13,6.25,4.8,6.25,16.17-.04,32.35,.12,48.52-.35,6.75-.2,14.33-8.39,14.96-15.26,.52-5.67,.69-11.4,.69-17.1,.04-61.93,.03-123.85,.01-185.78,0-4.76-.02-9.53-.36-14.28-.69-9.5-9.01-17.38-18.9-18.16-.95-.07-1.9-.19-2.85-.18-13.34,.06-26.67,.11-40.01,.23-3.61,.03-6.73,3.44-6.85,7.43-.2,6.66-.36,13.32-.37,19.98-.04,32.39-.02,64.78-.02,97.18Zm-56.43,.51c0,37.08-.03,74.15,.03,111.23,.01,6.64,.16,13.31,.69,19.93,.48,6.07,6.26,11.61,13.2,13.36,9.89,2.49,19.89-3.89,21.13-13.61,.48-3.76,.82-7.56,.82-11.35,.05-78.9,.06-157.81,0-236.71,0-4.73-.48-9.48-1.14-14.17-.85-6.1-7.25-11.54-13.99-12.35-10.34-1.23-19.41,5.54-20.2,15.37-.45,5.67-.52,11.39-.52,17.08-.04,37.08-.02,74.15-.02,111.23Zm560.43,145.15s0,.06,0,.09c-15.25,0-30.51-.2-45.75,.15-3.56,.08-7.32,1.59-10.53,3.31-2.33,1.25-4.41,3.6-4.09,6.96,.22,2.32,4.38,8.51,6.21,8.87,1.85,.37,3.72,.95,5.59,.96,31.45,.07,62.91,.08,94.36,0,1.84,0,3.69-.75,5.53-1.16,2.78-.61,5.91-5.27,6.04-8.74,.13-3.51-3.08-8.07-6.17-8.67-3.69-.72-7.43-1.64-11.16-1.69-13.34-.2-26.69-.08-40.03-.08Z"/><path class="cls-2" d="M243.05,379.96c0-7.63,.18-15.27-.06-22.89-.21-6.68,3.66-10.3,8.75-13.46,10.27-6.37,23.24-8.35,30.93-18.93,1.53-11.75-3.28-22.5-5.5-33.62-8.37-42.05-16.73-84.1-25.78-126-5.31-24.6-5.54-49.3-2.73-73.97,2.65-23.23,11.93-44,27.78-61.56,35.62-39.45,95.02-39.74,130.98,1.41,12.77,14.62,20.55,31.77,24.83,50.79,6.86,30.55,3.96,60.69-2.33,90.79-10.14,48.49-20.38,96.96-30.56,145.44-1.42,6.76,.36,9.51,7.17,13.56,9.78,5.83,21.09,8.89,29.86,16.52,4.7,11.96,1.81,24.43,2.39,36.65,.36,7.61,.15,15.27-.32,22.88-.69,10.94-12.2,18.7-22.7,15.41-3.59-1.13-6.98-2.93-10.39-4.56-26.58-12.69-54.54-15.99-83.62-13.02-12.51,1.28-24.24,4.89-35.78,9.44-5.3,2.09-10.27,5.03-15.56,7.17-12.86,5.21-26.35-2.8-27.1-16.28-.47-8.56-.09-17.16-.09-25.74h-.19ZM416.51,121.93c-.82-10.45-1.07-20.98-2.59-31.32-3-20.36-11.63-38.17-26.58-52.56-9.86-9.5-21.51-15.32-35.32-17.06-29.41-3.7-52.26,6.62-68.58,31.27-5.81,8.78-10,18.27-12.68,28.56-5.89,22.55-6.33,45.3-2.44,68.05,3.37,19.7,7.89,39.2,11.96,58.78,8.31,40.08,16.69,80.15,24.97,120.25,1.43,6.94-.56,11.24-6.35,14.23-5.07,2.62-10.29,4.97-15.37,7.58-21.66,11.14-20.79,7.76-20.6,34.82,.03,3.77,.51,7.54,.85,11.3,.21,2.28,4.29,4.61,6.68,3.75,4.45-1.61,8.82-3.46,13.29-4.99,30.34-10.39,61.17-14.51,92.72-6.28,10.1,2.63,19.94,6.21,29.92,9.3,2.68,.83,5.41,1.54,8.15,2.11,2.35,.49,4-.47,4.14-2.53,.45-6.62,.3-13.3,1.13-19.87,1.51-11.94-2.14-20.05-14.21-24.37-8-2.87-15.38-7.49-22.98-11.44-4.45-2.31-6.18-6.46-5.22-11.96,.33-1.88,.85-3.72,1.23-5.58,8.98-43.83,17.93-87.67,26.92-131.5,4.78-23.31,10.85-46.42,10.95-70.52Z"/><path class="cls-1" d="M256.58,509.29c-.25,15.96-.48,31.92-.77,47.88-.18,10.32-.45,20.65-.67,30.97-25.66,.28-51.32,.58-76.98,.81-1.88,.02-3.75-.45-5.63-.69-3.46-.45-7.41-4.01-7.71-7.34-.51-5.66-1.13-11.34-1.11-17.01,.07-15.2,.36-30.39,.78-45.58,.13-4.57,4.73-8.98,9.39-9.06,18.06-.29,36.12-.47,54.19-.51,9.51-.02,19.01,.34,28.52,.53Z"/><path class="cls-1" d="M339.21,496.63c-7.85-.41-16.77,2.29-24.91,7.61-3.93,2.57-7.7,5.38-11.65,7.91-2.18,1.4-7.58-.7-10.01-3.66-2.52-3.06-2.34-7.35-.23-10.39,4.49-6.46,10.91-10.31,17.62-13.88,27.32-14.54,60.86-7.18,78.59,11.77,1.26,1.34,2.03,3.16,2.95,4.8,1.23,2.2-.83,7.99-3.93,9.81-2.36,1.39-4.78,3.18-7.76,1.2-3.93-2.61-7.84-5.25-11.88-7.69-9.61-5.81-15.86-7.5-28.8-7.49Z"/><path class="cls-1" d="M295.57,118.21c-.7-11.17,1.77-22.43,5.73-33.05,6.57-17.64,18.7-30.59,36.45-37.82,4.51-1.84,9.3-.18,12.07,4.39,1.68,2.77,1.55,5.99-.39,7.9-3.31,3.24-7.34,5.8-11.26,8.36-13.67,8.96-20.75,21.79-22.31,37.8-.55,5.66-.37,11.38-.88,17.05-.25,2.74-.73,5.8-2.2,7.98-1.4,2.08-4.03,3.7-6.46,4.65-3.11,1.21-5.34-1.23-7.13-3.38-3.22-3.87-3.51-8.66-3.62-13.87Z"/></svg>