<?xml version="1.0" encoding="UTF-8"?><svg id="Layer_1" xmlns="http://www.w3.org/2000/svg" width="734.42" height="733.81" viewBox="0 0 734.42 733.81"><defs><style>.cls-1{fill:#d8bf87;}.cls-2{fill:#4f7359;}</style></defs><path class="cls-2" d="M734.14,370.01c1.47,39.43-5.45,76.73-17.65,113.17-1.5,4.48-2.81,9.29-5.46,13.07-4.43,6.34-8.34,12.3-8.5,20.62-.09,4.44-3.04,8.95-5.16,13.2-3.82,7.67-7.69,15.35-12.07,22.71-29.75,50.02-69.7,90.47-117.56,123.12-11.73,8-24.69,14.37-37.56,20.51-14.58,6.96-29.52,13.26-44.64,18.98-9.75,3.69-20.02,6.1-30.18,8.56-26.01,6.3-52.28,10.73-79.22,9.7-5.72-.22-11.45-.2-17.17,0-32.79,1.11-64.51-5.35-95.76-14.22-10.85-3.08-22.27-5.48-31.11-13.66-1.94-1.79-5.06-2.93-7.74-3.17-11.84-1.03-21.67-7.02-31.69-12.41-30.42-16.36-58.32-36.13-81.65-61.88-1.92-2.12-3.74-4.39-5.91-6.21-26.08-21.87-42.81-50.86-60.39-79.19-1-1.62-2.2-3.2-2.8-4.98-8.29-24.29-20.26-47.11-27.88-71.71-6.83-22.04-10.51-44.66-12.46-67.34-2.03-23.66-2.5-47.62,1.05-71.34,2.25-15.06,3.27-30.27,7.34-45.11,11.14-40.66,25.83-80,49.26-115.07,35.49-53.14,80.99-96.04,138.03-125.86,6.69-3.5,13.84-6.6,21.15-8.29,6.65-1.54,12.33-3.73,17.97-7.75,5.27-3.76,11.88-5.94,18.19-7.9C291.16,6.2,328.42-.06,367.02,0c38.55,.06,75.83,5.89,112.61,16.89,11.13,3.33,19.95,11.44,30.53,14.39,10.18,2.84,20.05,5.82,29.27,10.8,32.92,17.79,63.23,39.05,88.57,66.91,5.77,6.35,12.05,12.23,17.95,18.46,23.21,24.5,40.4,52.95,54.29,83.51,1.54,3.4,2.12,7.24,3.09,10.89,.72,2.71,.56,6.07,2.15,8.08,14.19,18.04,16.42,40.3,21.76,61.37,6.61,26.07,7.85,52.75,6.9,78.71ZM258.6,48.61c2.72,2.73,5.35,5.41,8.03,8.04,2.03,2,4.28,3.8,6.15,5.94,4.42,5.06,3.96,13.25-.83,18.15-4.5,4.61-10.19,5.73-15.51,2.38-7.24-4.56-14.53-9.15-21.22-14.47-8.73-6.94-17.17-7.18-26.17-.99-1.55,1.07-3.44,1.63-5.09,2.58-19.92,11.36-38.68,24.38-56.13,39.27-2.14,1.82-1.77,5.68,.81,6.74,5.22,2.15,10.66,3.79,15.73,6.23,5.02,2.41,7.68,9.54,6.14,14.7-1.93,6.48-9.14,11.72-15.13,10.55-10.28-2.01-20.46-4.55-30.77-6.42-4.91-.89-10.09,.79-13.1,4.39-17.13,20.5-33.27,41.73-44.61,66.16-1.72,3.71,.85,6.98,5.61,6.99,4.75,.02,9.54-.32,14.24,.17,5.21,.54,10.09,6.45,10.62,11.95,.54,5.7-3.17,12.03-8.18,13.67-2.69,.88-5.43,1.7-8.21,2.21-37.12,6.81-31.78,1.15-42.05,38.92-4.77,17.55-6.79,35.52-9.02,53.48-.32,2.59,3.18,5.82,5.38,4.98,5.26-2.02,10.43-4.34,15.8-6.02,5.48-1.72,11.24,.97,14.63,6.17,3.2,4.91,2.56,11.83-1.68,15.62-2.82,2.52-5.76,4.99-8.92,7.06-5.57,3.66-11.33,7.02-17.05,10.46-6.36,3.82-9.47,9.46-8.47,16.75,2.07,15.1,3.94,30.27,7.01,45.18,2.29,11.13,6.3,21.91,9.62,32.82,.76,2.5,4.49,2.77,6.82,.52,4.08-3.95,7.91-8.19,12.2-11.9,4.19-3.63,10.92-2.75,15.59,1.51,4.65,4.24,6.41,10.76,3.41,15.44-5.64,8.81-11.65,17.39-17.65,25.96-3.61,5.16-4.28,10.36-1.37,16.03,12.21,23.84,26.55,46.26,44.28,66.4,.61,.69,1.55,1.56,2.33,1.55,1.72-.02,4.56-.04,4.97-.94,1.93-4.3,2.93-9,4.75-13.36,2.7-6.48,9.73-9.99,16.24-8.53,7.15,1.6,11.39,7.42,10.38,14.76-.65,4.69-1.8,9.32-2.73,13.97-1.12,5.6-2.54,11.15-3.28,16.8-.63,4.83,.32,9.59,4.22,13.01,20.14,17.69,42.19,32.58,66.04,44.81,3.45,1.77,8.5-1.08,8.06-4.75-.67-5.59-2.04-11.14-.12-16.92,2.87-8.69,14.08-12.34,20.64-6.18,1.99,1.87,4.08,4.24,4.8,6.75,1.84,6.4,3.49,12.94,4.23,19.54,2.34,21.02,4.15,20.07,24.18,25.87,21.96,6.36,44.14,12.04,67.31,11.8,2.78-.03,5.12-3.22,3.99-5.69-2.36-5.18-5.02-10.24-7.14-15.53-1.42-3.54,1.42-9.87,5.03-12.56,5.56-4.14,14.48-4,18.15,1.08,6.11,8.46,11.55,17.4,17.33,26.1,2.78,4.19,6.56,6.86,11.78,6.82,27.93-.2,54.74-6.39,81.05-15.23,2.74-.92,4.14-4.97,2.45-6.76-4.53-4.79-9.23-9.43-13.41-14.51-2.67-3.25-1.91-7.23,.02-10.71,4.18-7.54,12.36-10.17,19.32-5.77,8.03,5.08,15.73,10.68,23.51,16.15,6.07,4.26,12.41,4.64,18.82,1.19,16.77-9.05,33.28-18.58,48.38-30.28,5.99-4.64,11.61-9.79,17.18-14.94,1.73-1.6,1.41-3.85-.35-4.69-5.12-2.45-10.35-4.67-15.56-6.91-3.93-1.69-5.65-5.17-6.42-8.88-1.92-9.17,5.7-17.94,14.53-16.44,9.37,1.59,18.72,3.57,27.87,6.14,7.59,2.13,12.94-.5,17.64-5.95,16.87-19.57,31.2-40.84,42.9-63.88,.41-.8,.77-1.94,.52-2.7-.53-1.56-1.37-4.14-2.3-4.24-5.63-.59-11.36-.23-16.96-.98-2.61-.35-5.37-2.04-7.38-3.87-6.57-5.96-4.48-18.44,3.73-21.4,5.29-1.91,10.96-3.03,16.55-3.8,25.03-3.45,25.17-4.62,31.63-29.03,4.89-18.48,9.3-36.92,10.38-56.06,.61-10.88-1.07-12.44-10.31-8.96-3.54,1.34-7.01,3.06-10.68,3.83-9.38,1.97-16.84-6.02-14.88-15.41,.82-3.97,2.75-7.1,6.03-9.27,7.94-5.25,15.9-10.47,24.01-15.45,4.57-2.81,6.65-7.06,6.48-11.89-.97-27.79-6.09-54.84-15.21-81.12-.92-2.66-4.96-3.94-6.8-2.09-4,4.04-7.75,8.36-11.95,12.18-3.73,3.39-12.02,2.93-15.96-.4-4.17-3.52-6.05-10.87-3.86-15.63,1.18-2.58,2.4-5.19,4-7.51,3.8-5.48,7.83-10.79,11.78-16.16,4.9-6.66,6.7-13.45,1.93-21.14-8.02-12.94-15.28-26.38-23.8-38.98-6.36-9.41-14.15-17.86-21.53-26.55-.63-.74-4.08-.54-4.4,.11-2.9,5.94-5,12.3-8.13,18.11-3.54,6.57-14.36,6.84-19.88,1.18-2.95-3.02-4.05-6.85-3.49-10.41,1.61-10.32,4.15-20.48,6.01-30.77,.88-4.87-.19-9.61-4.01-13.08-20.6-18.68-43.38-34.16-68.42-46.28-2.38-1.15-5.86,.9-5.97,3.44-.28,6.61-.33,13.24-.95,19.81-.36,3.75-5.94,7.78-10.53,8.37-4.09,.53-7.98-.75-10.23-3.82-2.74-3.74-5.2-8.12-6.21-12.57-1.68-7.4-1.82-15.13-3.15-22.63-1.04-5.88-4.24-10.17-10.35-12.42-24.33-8.97-49.63-13.23-75.23-16.12-9.14-1.03-10.16,1.28-6.21,11.4,1.7,4.35,3.36,8.96,3.7,13.55,.37,5.04-2.76,8.77-7.33,11.25-3.79,2.06-7.56,1.63-10.79-.39-3.13-1.96-6.18-4.55-8.27-7.56-4.33-6.25-8.31-12.79-11.87-19.51-4.23-8-10.8-10.03-19.13-9.03-20.82,2.52-41.51,5.62-61.79,11.18-6.5,1.78-12.83,3.59-18.77,8.21Z"/><path class="cls-2" d="M602.73,366.93c2.04,131.98-108.08,234.57-233.16,235.71-117.71,1.07-236.9-92.03-237.11-235.17-.2-137.82,111.31-234.8,233.64-235.77,131.65-1.05,237.52,106.12,236.63,235.24Zm-235.16,206.64c108.04,2.28,207.11-88.19,207.06-206.82-.05-117.47-100.2-206.53-205.03-206.72-106.43-.2-208,84.68-208.59,206.14-.6,122.72,101.92,209.62,206.56,207.41Z"/><path class="cls-2" d="M367.28,550.88c-89.1,2.83-182.96-71.92-183.87-183.57-.87-106.15,91.15-184.56,183.63-184.67,96.07-.11,184.57,79.21,184.93,182.95,.38,108.8-89.86,187.63-184.69,185.28Zm-13.15-78.41c-.19,0-.38,0-.56,0,0-14.3,.11-28.61-.04-42.91-.08-7.29-3.73-12.59-10.13-16.03-1.68-.9-3.4-1.74-5.02-2.74-6.4-3.97-12.37-3.16-18.74,.62-19.67,11.66-39.37,23.33-59.4,34.35-17.35,9.55-15.87,14.55-4.88,28.44,2.92,3.7,6.59,6.91,10.28,9.89,14.95,12.08,31.54,21.51,49.45,28.34,8.83,3.37,18.23,5.3,27.46,7.52,4.47,1.07,10.24-3.19,10.4-7.48,.52-13.33,.81-26.66,1.19-40Zm-.82-207.43c.14,0,.29,0,.43,0,0-8.58,.14-17.17-.04-25.75-.14-6.65-.22-13.37-1.29-19.89-.35-2.15-3.53-4.16-5.83-5.53-1.46-.87-3.78-.91-5.55-.54-33.66,6.86-62.28,23.09-86.55,47.14-2.64,2.62-4.3,6.25-6.29,9.5-2.47,4.04-1.07,9.9,3.21,12.52,8.12,4.97,16.37,9.73,24.56,14.58,13.94,8.25,27.95,16.38,41.78,24.82,8.49,5.18,16.19,4.38,23.69-1.79,2.2-1.81,4.65-3.34,6.83-5.17,3.02-2.55,4.99-5.84,5.02-9.84,.1-13.34,.04-26.69,.04-40.03Zm-141.27,107.34c.17,13.72,4.86,31.97,11.5,49.8,1.8,4.83,6.78,6.81,11.51,4.14,23.07-13.06,46.04-26.28,69.02-39.49,1.63-.94,3.02-2.29,4.56-3.38,3.33-2.35,5-5.7,5.22-9.6,.26-4.71,.31-9.47-.05-14.17-.29-3.87-2-7.35-5.53-9.41-24.5-14.34-49.01-28.68-73.6-42.89-4.77-2.75-9.49-.83-11.32,4.23-6.46,17.88-11.37,36.08-11.32,60.77Zm170.75-109.46c.11,0,.22,0,.32,.01,0,9.51-.01,19.02,0,28.53,0,3.8,.04,7.61,.14,11.41,.23,8.43,4.28,14.34,11.88,17.9,1.72,.81,3.36,1.79,5.04,2.66,3.54,1.84,7.3,2.42,10.93,.7,6.01-2.85,11.98-5.81,17.74-9.11,19.78-11.33,40.01-21.93,58.57-35.29,2.77-2,3.32-7.49,.83-10.23-5.76-6.32-11.25-12.96-17.61-18.62-22.52-20.02-48.35-33.33-78.58-37.24-2.93-.38-7.91,3.49-8.01,6.56-.49,14.24-.85,28.48-1.26,42.73Zm138.32,104.77c0-5.72-.11-11.45,.02-17.17,.31-13.64-3.51-26.35-8.57-38.8-1.34-3.28-6.49-5.79-9.38-4.47-26.11,11.9-50.17,27.35-74.28,42.73-3.48,2.22-5.07,5.68-5.52,9.54-.44,3.77-.28,7.61-.42,11.42-.26,7.35,2.83,12.9,9.12,16.62,10.67,6.31,21.34,12.62,32.08,18.8,11.57,6.66,23.2,13.2,34.83,19.75,5.52,3.11,11.55,.82,13.93-5.2,.7-1.77,1.25-3.6,1.98-5.36,6.4-15.39,6.41-31.62,6.21-47.86Zm-116.03,40.85c-11.18,3.08-22.01,9.51-21.87,22.62,.26,25.61,.05,51.23,.1,76.85,0,1.88,.49,3.75,.74,5.63,.4,2.94,5.47,6.8,8.46,5.98,10.93-3.01,21.96-5.77,32.66-9.48,25.84-8.96,46.26-25.51,63.26-46.6,2.25-2.79,1.43-8.24-1.69-10.07-24.53-14.38-49.1-28.71-73.69-42.98-1.61-.93-3.52-1.41-5.34-1.91-.88-.24-1.88-.04-2.62-.04Zm-37.63-65.48c-13.22,.08-23.55,10.02-24.03,23.12-.51,14.05,10.84,25.53,24.98,25.26,12.72-.24,23.66-10.74,24.33-23.34,.72-13.71-10.8-25.13-25.28-25.04Z"/><path class="cls-1" d="M354.13,472.46c-.38,13.33-.67,26.67-1.19,40-.17,4.29-5.93,8.55-10.4,7.48-9.23-2.22-18.63-4.15-27.46-7.52-17.9-6.83-34.49-16.26-49.45-28.34-3.69-2.98-7.35-6.19-10.28-9.89-10.99-13.9-12.47-18.9,4.88-28.44,20.04-11.02,39.73-22.69,59.4-34.35,6.37-3.77,12.34-4.58,18.74-.62,1.62,1,3.34,1.84,5.02,2.74,6.4,3.43,10.05,8.73,10.13,16.03,.15,14.3,.04,28.61,.04,42.91,.19,0,.38,0,.56,0Z"/><path class="cls-1" d="M353.32,265.03c0,13.34,.06,26.69-.04,40.03-.03,4-1.99,7.29-5.02,9.84-2.18,1.84-4.63,3.36-6.83,5.17-7.5,6.17-15.2,6.98-23.69,1.79-13.82-8.44-27.84-16.56-41.78-24.82-8.19-4.85-16.44-9.61-24.56-14.58-4.28-2.62-5.68-8.48-3.21-12.52,1.98-3.24,3.65-6.88,6.29-9.5,24.27-24.05,52.89-40.28,86.55-47.14,1.78-.36,4.1-.33,5.55,.54,2.3,1.38,5.48,3.39,5.83,5.53,1.08,6.53,1.15,13.24,1.29,19.89,.18,8.58,.04,17.16,.04,25.75-.14,0-.29,0-.43,0Z"/><path class="cls-1" d="M212.04,372.37c-.05-24.69,4.86-42.89,11.32-60.77,1.83-5.06,6.55-6.99,11.32-4.23,24.59,14.2,49.09,28.54,73.6,42.89,3.52,2.06,5.23,5.54,5.53,9.41,.36,4.7,.31,9.46,.05,14.17-.22,3.89-1.89,7.25-5.22,9.6-1.55,1.09-2.93,2.44-4.56,3.38-22.98,13.21-45.95,26.43-69.02,39.49-4.73,2.68-9.71,.7-11.51-4.14-6.65-17.83-11.34-36.07-11.5-49.8Z"/><path class="cls-1" d="M382.79,262.91c.41-14.24,.77-28.49,1.26-42.73,.11-3.07,5.09-6.94,8.01-6.56,30.22,3.91,56.06,17.22,78.58,37.24,6.36,5.66,11.86,12.3,17.61,18.62,2.49,2.74,1.95,8.23-.83,10.23-18.55,13.36-38.78,23.96-58.57,35.29-5.77,3.3-11.74,6.27-17.74,9.11-3.63,1.72-7.39,1.14-10.93-.7-1.69-.88-3.32-1.86-5.04-2.66-7.6-3.56-11.65-9.47-11.88-17.9-.1-3.8-.13-7.61-.14-11.41-.02-9.51,0-19.02,0-28.53-.11,0-.22,0-.32-.01Z"/><path class="cls-1" d="M521.11,367.68c.2,16.24,.2,32.48-6.21,47.86-.73,1.76-1.28,3.59-1.98,5.36-2.38,6.02-8.41,8.31-13.93,5.2-11.63-6.55-23.27-13.09-34.83-19.75-10.74-6.19-21.41-12.49-32.08-18.8-6.29-3.72-9.37-9.27-9.12-16.62,.13-3.81-.02-7.65,.42-11.42,.45-3.86,2.04-7.32,5.52-9.54,24.11-15.38,48.17-30.83,74.28-42.73,2.89-1.32,8.05,1.18,9.38,4.47,5.06,12.44,8.88,25.15,8.57,38.8-.13,5.72-.02,11.45-.02,17.17Z"/><path class="cls-1" d="M405.08,408.52c.74,0,1.74-.2,2.62,.04,1.82,.5,3.73,.98,5.34,1.91,24.59,14.28,49.16,28.61,73.69,42.98,3.12,1.83,3.94,7.28,1.69,10.07-17,21.08-37.42,37.64-63.26,46.6-10.7,3.71-21.73,6.47-32.66,9.48-2.98,.82-8.06-3.04-8.46-5.98-.26-1.88-.74-3.75-.74-5.63-.05-25.62,.16-51.23-.1-76.85-.13-13.11,10.69-19.54,21.87-22.62Z"/></svg>