<?xml version="1.0" encoding="UTF-8"?><svg id="Layer_1" xmlns="http://www.w3.org/2000/svg" width="732.33" height="313.76" viewBox="0 0 732.33 313.76"><defs><style>.cls-1{fill:#d8bf87;}.cls-2{fill:#4f7359;}</style></defs><path class="cls-2" d="M371.03,.34c39.81-1.59,85.41,2.69,130.93,6.76,32.19,2.88,64.29,7.62,95.68,15.93,15.66,4.14,31.09,8.86,45.34,16.84,11.22,6.29,18.54,14.97,23.29,27.44,19.97,52.45,40.98,104.49,61.55,156.71,1.73,4.39,3.58,8.86,4.35,13.46,.62,3.71-.65,7.42-4.36,9.77-3.4,2.15-6.86,3.4-10.65,1.47-5.07-2.59-9.98-5.5-15.02-8.14-19.97-10.47-40.26-9.67-60.6-1.27-18.34,7.57-31.92,20.43-40.86,38.11-2.57,5.08-4.79,10.34-7.14,15.53-1.06,2.34-4.82,2.59-7.22,.37-3.48-3.21-6.75-6.67-10.27-9.83-17.97-16.1-39-22.99-63.07-21.04-23.2,1.88-41.71,12.39-55.93,30.43-4.67,5.92-8.09,12.83-12.09,19.29-1.29,2.08-5.68,2.15-7.44,.04-4.26-5.08-8.26-10.39-12.72-15.28-14.88-16.36-34.04-24.61-55.59-25.64-22.82-1.09-43,7.22-59.5,23.22-5.42,5.26-9.79,11.61-14.68,17.43-1.82,2.17-5.97,2.06-7.41-.19-3.58-5.6-6.81-11.44-10.68-16.82-27.56-38.23-80.97-42.4-114.17-16.67-5.98,4.64-11.28,10.16-16.93,15.24-1.96,1.76-6.35,1.06-7.4-1.14-3.27-6.85-5.95-14.06-9.88-20.5-18.06-29.58-51.08-42.98-80.32-37.76-7.71,1.38-14.42,4.64-21.22,8.05-5.05,2.53-10.04,5.22-15.23,7.4-4.05,1.7-12.42-5.31-11.77-9.8,.53-3.69,1.22-7.46,2.57-10.91,16.64-42.52,33.41-84.99,50.14-127.47,4.88-12.39,10.25-24.61,14.49-37.21,2.91-8.66,8.25-14.86,15.36-19.92,10.19-7.24,21.67-11.73,33.43-15.73,23.54-8.01,47.86-12.8,72.35-16.15C246.95,4.36,305.82-.21,371.03,.34ZM131.96,46.14c-11.55,1.18-21.96,5.85-32.3,10.68-1.69,.79-3.14,2.11-4.69,3.19-4.52,3.14-4.72,11.76-.03,14.93,4.69,3.17,9.45,6.62,14.7,8.53,25.08,9.11,50.91,15.85,77.32,19.29,21.63,2.82,43.06,8.04,65.13,7.1,2.78-.12,5.69,.66,8.41,1.44,10.22,2.93,20.72,2.91,31.19,2.95,43.81,.17,87.61,.36,131.42,.25,18.06-.04,36.19,.46,53.94-4.27,3.62-.96,7.56-.79,11.36-.94,29.53-1.2,58.52-6.41,87.33-12.47,13.92-2.93,27.66-6.99,41.19-11.44,7.11-2.34,13.81-6.27,20.28-10.15,7.12-4.27,6.97-11.94,.2-15.83-11.65-6.69-24-11.42-37.33-13.45-3.52-1.41-6.92-3.32-10.57-4.15-41.74-9.46-83.98-15.59-126.69-18.19-59.78-3.64-119.56-4.23-179.42-.82-46.57,2.65-92.59,8.55-138.12,18.48-4.57,1-8.88,3.2-13.31,4.85Zm278.33,215.76c4.34,1.87,8.63,3.84,13.03,5.57,2.43,.95,3.88-.04,3.85-2.39-.07-5.7,.03-11.41-.4-17.08-.94-12.36-2.35-24.69-3.18-37.05-.25-3.68,.12-7.72,1.46-11.09,.9-2.25,3.78-4.13,6.2-5.23,2.81-1.27,9.04,1.7,9.65,4.21,1.34,5.53,3.02,11.06,3.49,16.69,1.21,14.25,1.8,28.56,2.72,42.83,.39,6.1,4.64,8.84,9.16,5.98,5.63-3.56,10.87-7.88,16.81-10.78,22.92-11.19,46.7-16.41,71.97-8.53,6.32,1.97,12.67,3.85,19.02,5.74,2.81,.83,5.57-1.87,4.88-4.86-3.81-16.72-7.71-33.42-11.46-50.15-.61-2.73-.73-5.58-.89-8.38-.15-2.66,3.75-7.04,7.1-8.3,2.9-1.1,8.24,1.14,9.71,4.17,1.23,2.54,2.82,5.01,3.5,7.7,2.36,9.23,4.35,18.55,6.56,27.81,1.99,8.34,4.12,16.64,6.15,24.97,.6,2.45,4.61,4.24,6.39,2.91,1.51-1.13,3.15-2.12,4.53-3.4,26.83-24.9,57.43-36.89,94.29-27.68,.75,.19,1.75-.51,2.61-.85,.88-.36,2.53-.94,2.48-1.17-.88-4.62-1.37-9.43-3.07-13.76-12.18-31.03-24.71-61.92-36.94-92.93-6.79-17.23-5.88-15.47-21.97-7.31-13.71,6.95-28.23,11.58-43.06,14.98-18.56,4.25-37.25,8.48-56.11,10.82-56.82,7.05-113.87,11.25-171.18,11.68-42.04,.31-83.93-2.83-125.74-6.16-34.15-2.72-68.23-7.33-101.65-15.62-18.56-4.6-36.68-10.23-53.46-19.59-5.32-2.97-9.33-1.78-11.27,3.11-14.02,35.42-28,70.86-41.95,106.31-1.04,2.65-1.84,5.42-2.55,8.18-.43,1.67,1.03,3.38,3.33,2.86,15.95-3.63,31.65-5.19,47.94-.8,17.94,4.83,33.49,13.22,47.24,25.56,10.44,9.37,11.8,8.86,15.29-5.11,3.46-13.86,6.28-27.89,9.88-41.71,1.16-4.46,3.71-8.62,6.02-12.69,1.64-2.88,7.23-3.16,10.26-1.05,4.44,3.09,5.95,7.54,4.85,12.46-3.12,13.94-6.8,27.76-9.89,41.71-.99,4.47-.88,9.2-1.05,13.82-.03,.71,1.1,2.03,1.76,2.08,1.8,.12,3.78,.08,5.44-.56,12.54-4.79,25.33-8.31,38.89-8.43,18.61-.16,35.71,5.23,51.76,14.26,5.8,3.26,11.2,7.23,17.01,10.45,.89,.49,4.34-1.19,4.42-2.06,1.32-14.24,2.04-28.53,3.42-42.76,.73-7.55,2.07-15.11,4.03-22.42,.49-1.84,4.27-3.49,6.78-3.97,5.15-.98,10.01,2.79,9.85,7.61-.48,14.27-1.33,28.53-2.03,42.79-.32,6.61-.71,13.22-.88,19.83-.06,2.49,1.6,3.49,3.99,2.48,4.34-1.83,8.63-3.8,12.88-5.85,29.42-14.14,58.81-13.5,88.14,.19Z"/><path class="cls-1" d="M131.96,46.14c1.24,5.13,5.19,7.88,9.48,9.9,13.91,6.55,28.89,9.79,43.88,12.28,39.51,6.55,79.34,10.83,119.39,11.56,40.96,.75,81.96,.79,122.92,0,40.04-.77,79.88-4.96,119.39-11.57,14.99-2.51,29.97-5.72,43.89-12.28,4.29-2.02,8.24-4.78,9.17-10.06,13.32,2.03,25.67,6.76,37.32,13.45,6.77,3.89,6.92,11.55-.2,15.83-6.48,3.89-13.17,7.81-20.28,10.15-13.52,4.45-27.26,8.51-41.19,11.44-28.81,6.06-57.8,11.27-87.33,12.47-3.8,.15-7.75-.02-11.36,.94-17.74,4.73-35.88,4.22-53.94,4.27-43.81,.1-87.61-.08-131.42-.25-10.46-.04-20.96-.01-31.19-2.95-2.73-.78-5.63-1.56-8.41-1.44-22.07,.93-43.5-4.28-65.13-7.1-26.4-3.44-52.24-10.18-77.32-19.29-5.25-1.91-10.01-5.36-14.7-8.53-4.69-3.17-4.48-11.79,.03-14.93,1.56-1.08,3-2.4,4.69-3.19,10.34-4.83,20.75-9.51,32.3-10.68Z"/></svg>