<?xml version="1.0" encoding="UTF-8"?><svg id="Layer_1" xmlns="http://www.w3.org/2000/svg" width="576.98" height="733.34" viewBox="0 0 576.98 733.34"><defs><style>.cls-1{fill:#d8bf87;}.cls-2{fill:#4f7359;}</style></defs><path class="cls-2" d="M286.61,733.32c-61.05,0-122.11,0-183.16,0-11.46,0-22.6-1.05-33.88-4.09-50-13.46-87.62-75.29-60.51-133.1,3.64-7.75,7.86-15.24,11.94-22.78,56.29-103.86,112.61-207.7,168.91-311.55,12.52-23.1,11.81-15.86,11.83-45.91,.03-45.78,.02-91.57-.01-137.35,0-4.76,.06-9.57-.56-14.27-.35-2.64-1.72-5.09-5.03-6.1-4.51-1.37-9.1-2.95-13.12-5.33-11.3-6.7-14.08-17.31-12.41-29.59,1.42-10.51,8.13-16.9,17.18-21.15,2.51-1.18,5.49-1.68,8.29-1.84,5.71-.33,11.44-.27,17.16-.27,50.56-.01,101.12-.01,151.68,0,4.77,0,9.55-.09,14.31,.15,19.91,.99,32.67,19.38,26.47,38.37-1.8,5.5-5.1,10.46-10.21,13.34-4.92,2.77-10.36,4.6-15.59,6.81-2.94,1.24-4.21,3.8-4.48,6.59-.46,4.73-.55,9.51-.55,14.27-.03,46.74,.31,93.48-.22,140.21-.16,13.89,3.28,25.95,9.86,38.02,57.5,105.36,114.69,210.9,171.96,316.39,3.64,6.7,7.38,13.35,10.75,20.18,27.65,56.13-5.8,124.23-68.94,137.27-9.22,1.9-18.97,1.62-28.48,1.64-61.05,.13-122.11,.07-183.16,.07Zm199.89-226.64c3.43-1.59,7.54-3.08,5.28-8.02-2.77-6.05-6.05-11.86-9.22-17.72-39.97-73.67-79.9-147.36-120.06-220.93-5.13-9.41-8.31-18.68-8.23-29.7,.42-57.2,.19-114.41,.22-171.62,0-3.8,.35-7.61,.54-11.41,.16-3.16,3.9-7.59,6.96-8.23,6.48-1.35,12.98-2.62,19.45-4.04,2.11-.46,4.57-4.58,3.54-6.76-1.13-2.41-2.57-5.51-4.68-6.42-3.35-1.44-7.38-1.78-11.12-1.79-53.4-.1-106.8-.1-160.2-.02-3.76,0-7.56,.65-11.24,1.44-1.75,.38-3.32,1.74-4.89,2.78-2.5,1.65-2.03,8.76,.79,9.87,3.47,1.36,7.04,2.94,10.67,3.29,18.02,1.76,18.43,5.34,18.46,21.75,0,5.72,.01,11.44,.01,17.16,0,42.9,.07,85.81-.04,128.71-.03,13.33-.55,26.65-.84,39.98-6.21,11.79-12.31,23.65-18.66,35.37-35.83,66.16-71.72,132.29-107.59,198.43-3.18,5.86-6.36,11.71-9.55,17.56-2.56,4.69-1.85,6.13,5.04,10.21-5.35-.6-9.27,2.03-11.98,6.14-20.99,31.87-37.96,65.95-53.69,100.58-6.01,13.23-4.99,28.33-1.03,42.11,10.45,36.33,41.92,56.04,71.38,55.25,5.71-.15,11.42,.03,17.13,.03,117.07,0,234.15,0,351.22,0,7.61,0,15.24,.08,22.84-.3,4.72-.24,9.6-.64,14.07-2.04,37.83-11.86,55.21-45.99,54.3-72.43-.4-11.69-2.11-22.67-7.64-32.96-15.31-28.49-30.58-56.99-46.06-85.38-1.78-3.26-4.42-6.32-7.34-8.6-2-1.56-5.18-1.59-7.84-2.3Z"/><path class="cls-1" d="M486.5,506.69c2.65,.71,5.84,.75,7.84,2.3,2.92,2.28,5.56,5.34,7.34,8.6,15.48,28.39,30.76,56.9,46.06,85.38,5.53,10.29,7.24,21.28,7.64,32.96,.91,26.44-16.47,60.57-54.3,72.43-4.47,1.4-9.35,1.8-14.07,2.04-7.6,.38-15.22,.3-22.84,.3-117.07,.01-234.15,.01-351.22,0-5.71,0-11.43-.18-17.13-.03-29.45,.79-60.93-18.91-71.38-55.25-3.96-13.78-4.98-28.88,1.03-42.11,15.73-34.63,32.7-68.72,53.69-100.58,2.71-4.11,6.63-6.74,11.98-6.14,9.34-4.54,19.26-8.21,27.87-13.87,9.37-6.16,17.52-14.16,26.95-21.99,11.72,14.78,25.66,26.16,43.26,31.82,18.55,5.96,37.37,5.7,55.95-.42,17.63-5.81,30.36-18.69,43.23-31.16,41.72,45.73,97.09,50.23,144.36,.1,4.09,3.89,8.2,7.75,12.25,11.67,7.57,7.33,16.06,13.23,25.89,17.18,5.26,2.11,10.4,4.5,15.59,6.76Z"/></svg>