<svg xmlns="http://www.w3.org/2000/svg" width="38" height="38" viewBox="0 0 38 38">
  <g>
    <path d="M30.849,32.853H7.151a1.188,1.188,0,0,1-1.173-1.041L3.9,13.042a1.174,1.174,0,0,1,.681-1.2,1.174,1.174,0,0,1,.477-.1H32.946a1.174,1.174,0,0,1,.477.1,1.173,1.173,0,0,1,.681,1.2l-2.082,18.77a1.188,1.188,0,0,1-1.173,1.041Z" fill="none" stroke="#435a49" stroke-miterlimit="10" stroke-width="2"/>
    <path d="M13.133,11.736a5.866,5.866,0,1,1,11.731,0" fill="none" stroke="#435a49" stroke-miterlimit="10" stroke-width="2"/>
  </g>
</svg>
