<svg width="38" height="39" viewBox="0 0 38 39" fill="none" xmlns="http://www.w3.org/2000/svg">
<path d="M31.0479 32.1397H7.35076C7.0621 32.1383 6.78381 32.0319 6.56791 31.8403C6.35201 31.6487 6.21327 31.385 6.17764 31.0985L4.09534 12.3285C4.07682 12.165 4.09292 11.9994 4.1426 11.8425C4.19227 11.6856 4.27441 11.5409 4.38367 11.4178C4.49293 11.2947 4.62687 11.196 4.77678 11.128C4.92669 11.0601 5.08922 11.0244 5.2538 11.0234H33.1449C33.3094 11.0244 33.472 11.0601 33.6219 11.128C33.7718 11.196 33.9057 11.2947 34.015 11.4178C34.1242 11.5409 34.2064 11.6856 34.2561 11.8425C34.3057 11.9994 34.3218 12.165 34.3033 12.3285L32.221 31.0985C32.1854 31.385 32.0466 31.6487 31.8307 31.8403C31.6148 32.0319 31.3366 32.1383 31.0479 32.1397V32.1397Z" stroke="black" stroke-width="2" stroke-linecap="round" stroke-linejoin="round"/>
<path d="M13.332 11.0229C13.332 9.46719 13.95 7.97525 15.05 6.87523C16.1501 5.77521 17.642 5.15723 19.1977 5.15723C20.7533 5.15723 22.2453 5.77521 23.3453 6.87523C24.4453 7.97525 25.0633 9.46719 25.0633 11.0229" stroke="black" stroke-width="2" stroke-linecap="round" stroke-linejoin="round"/>
</svg>
