<svg width="73" height="96" viewBox="0 0 73 96" fill="none" xmlns="http://www.w3.org/2000/svg">
<g clip-path="url(#clip0_322_1909)">
<path d="M44.496 35.3637L43.6035 35.659L33.6463 38.9484L28.0372 35.659L25.1549 33.9692L24.1723 35.659L19.5949 43.5585L19.2756 44.1081L9.4986 54.2552L8.96635 54.8048L0 36.8238L9.08099 30.6961L26.4896 18.9658L44.496 35.3637Z" fill="#2E2D26"/>
<path d="M61.5203 14.6182L60.3493 15.2499L44.2345 23.9451L40.3613 16.4885L56.7055 4.84023L57.6963 4.13477L61.5203 14.6182Z" fill="#698B7A"/>
<path d="M65.4018 25.2733L64.0753 25.8803L48.8447 32.8201L44.8242 25.06L60.6607 16.1269L61.8316 15.4707L65.4018 25.2733Z" fill="#2E2D26"/>
<path d="M69.2751 35.8966L67.8012 36.5036V36.5118L64.665 37.7997L52.497 42.8199L49.3936 35.6587L49.0742 34.9122L64.4685 26.9963L65.7868 26.3154L69.2751 35.8966Z" fill="#F0BD7E"/>
<path d="M71.3213 46.9048L71.395 46.7571L71.2394 46.9458L71.2312 46.954L58.3016 52.9586L53.9863 45.7235L65.7695 39.2677L68.2834 37.8896L69.7163 37.1104L72.9999 46.1255L71.3213 46.9048Z" fill="#646D59"/>
<path d="M71.3958 46.7568L71.3221 46.9045L71.2402 46.9455L71.3958 46.7568Z" fill="#646D59"/>
<path d="M71.2315 46.9545L61.782 57.8235L55.2804 58.2091L51.6447 61.9825L35.9229 63.5493L19.5951 43.5585L24.1725 35.659H28.0374L33.6465 38.9484L43.6037 35.659L44.4962 35.3637L26.4898 18.9658L9.08116 30.6961L8.37695 29.8348L18.5143 14.5526L23.5092 13.9538H33.4582L37.8717 5.23396L56.0665 3.02734L56.7052 4.84021L40.361 16.4885L44.2342 23.9451L60.349 15.2498L60.6602 16.1276L44.8237 25.0607L48.8443 32.8207L64.0748 25.881L64.4678 26.9966L49.0735 34.9125L49.3929 35.659L52.4963 42.8202L64.6643 37.8L67.8005 36.5121L68.2836 37.8902L65.7698 39.2683L53.9866 45.7241L58.3019 52.9592L71.2315 46.9545Z" fill="#D1541D"/>
<path d="M28.0368 35.6586H24.1719L25.1545 33.9688L28.0368 35.6586Z" fill="#D1541D"/>
<path d="M32.925 13.9533H31.0499L29.8462 9.72879L29.6742 9.10536L27.0703 0L31.7787 0.78749L32.925 13.9533Z" fill="#2E2D26"/>
<path d="M27.9069 9.2039C27.8496 9.24491 27.8004 9.30233 27.7431 9.34335C26.1791 10.6804 24.2057 11.5582 22.0603 11.8207C20.9549 11.9601 19.8167 11.9355 18.654 11.7304C18.4247 11.6894 18.1954 11.6402 17.9743 11.591C14.789 10.8281 12.2424 8.77734 10.834 6.16057C13.2168 4.04419 16.5905 3.01061 20.0869 3.63404C23.4196 4.22466 26.1382 6.20159 27.694 8.81835C27.7677 8.9496 27.8414 9.07265 27.9069 9.2039Z" fill="#B3A658"/>
<path d="M71.3946 46.7568L71.3209 46.9045L61.8305 66.6737L47.3697 74.0072L43.5375 95.9996L29.5926 95.3023L5.19922 83.7853L12.8718 66.1487L9.49815 54.2544L19.2752 44.1072L19.5945 43.5576L35.9223 63.5484L51.6441 61.9816L55.2798 58.2082L61.7814 57.8227L71.2309 46.9537L71.239 46.9455L71.3946 46.7568Z" fill="#4F7359"/>
</g>
<defs>
<clipPath id="clip0_322_1909">
<rect width="73" height="96" fill="white"/>
</clipPath>
</defs>
</svg>
