<?xml version="1.0" encoding="UTF-8"?><svg id="Layer_1" xmlns="http://www.w3.org/2000/svg" width="468.15" height="733.22" viewBox="0 0 468.15 733.22"><defs><style>.cls-1{fill:#d8bf87;}.cls-2{fill:#4f7359;}</style></defs><path class="cls-2" d="M272.88,733.21c-54.35,0-108.71,.02-163.06-.02-7.62,0-15.28,.04-22.84-.72-2.16-.22-5.61-3.05-5.81-4.96-1.46-14.18-2.31-28.44,.27-42.59,.24-1.33,2.42-3.19,3.82-3.3,8.52-.65,17.07-.95,25.61-1.19,8.57-.24,17.15-.22,25.73-.41,3.84-.08,6.36-2.94,6.76-7.41,.68-7.55,1.35-15.09,2.02-22.64,8.62-5.7,18.3-2.83,27.54-3.32,11.39-.6,22.81-.73,34.22-1.01,2.39-.06,3.59-1.05,3.88-3.3,.24-1.87,1.03-3.7,1.04-5.56,.08-22.88,.11-45.76,.03-68.64-.02-5.59-2.89-8.76-8.46-9.55-14.13-2.01-28.24-3.74-42.11-7.62C80.15,528.16,20.64,458.69,4.45,381.56-17.28,278.04,41.35,157.62,163.94,123.01c10.06-2.84,20.56-4.06,30.76-6.43,5.29-1.23,12.68,1.58,15.4-4.56,2.16-4.87,1.68-11.03,1.88-16.64,.28-7.62,.25-15.26,.06-22.88-.32-13.42,4.3-24.48,16.02-31.41,5.8-3.43,7.5-8.03,7.58-14.04,.09-6.67,.17-13.34,.36-20.01,.1-3.58,3.49-6.73,7.53-6.76,20.02-.15,40.04-.2,60.05-.26,.94,0,2.11-.14,2.77,.33,1.47,1.06,3.37,2.25,3.85,3.78,.83,2.67,.85,5.62,1,8.46,.35,6.63-.11,13.39,1.03,19.87,1.3,7.35,9.53,8.74,13.91,13.63,3.92,4.39,7.18,9.1,7.9,14.9,.94,7.54,1.57,15.16,1.59,22.75,.12,61.02,.07,122.04,.06,183.06,0,4.77,.05,9.54-.21,14.3-.67,12.05-4.75,22.5-15.72,28.77-6.74,3.85-8.71,9.39-8.57,16.63,.13,6.65-.21,13.33-.83,19.95-.13,1.45-2.18,2.84-3.56,3.99-.62,.51-1.78,.49-2.7,.49-20.02-.03-40.04-.02-60.06-.19-5.7-.05-8.06-2.86-8.23-9.09-.12-4.76-.3-9.54-.09-14.3,.36-8.15-1.67-14.2-9.53-18.88-10.67-6.36-14.26-17.21-14.16-29.45,.15-19.07,.02-38.14,.01-57.2,0-21.93,.02-43.86-.02-65.79,0-4.75-.21-9.51-.4-14.26-.13-3.47-4.18-6.42-8.07-6.09-17.16,1.49-34.08,4.42-50.1,10.82-73,29.16-117.36,81.81-131.49,159.71-16.88,93.07,42.25,200.93,150.87,227.55,9.21,2.26,18.63,3.83,28.05,5.06,9.09,1.19,10.69-.18,15.04-9.22,2.47-5.13,4.4-10.7,7.75-15.19,14.9-20,35.09-29.33,59.8-25.44,26.21,4.13,45.46,23.33,50.2,48.37,1.41,7.43,1.85,15.13,1.94,22.71,.25,20.97,.03,41.95,.11,62.92,.02,5.71,.44,11.41,.74,17.12,.1,1.87,3.74,5.59,5.52,5.63,13.32,.31,26.65,.53,39.97,.88,5.69,.15,11.41,.28,17.04,.96,1.43,.17,2.75,2.32,3.85,3.76,.51,.67,.51,1.83,.52,2.77,.06,29.99,2.72,25.99,27.06,26.28,7.63,.09,15.26-.07,22.88,.06,13.2,.23,14.56,1.63,14.76,14.92,.09,5.72,.07,11.44,.02,17.16-.17,20.47-.22,20.63-20.73,20.65-58.17,.07-116.34,.02-174.5,.02Zm.87-440.55c10.96,4.68,22.19,3.48,33.34,1.11,3.8-.81,6.72-3.72,7.62-7.59,.85-3.64,1.15-7.48,1.16-11.24,.07-66.33,.07-132.66,0-198.99,0-3.75-.63-7.52-1.13-11.26-.36-2.74-4.92-7.46-7.7-7.57-10.38-.42-20.77-.59-31.15-.85-10.03-4.37-20.45-3.22-30.64-1.33-6.91,1.28-11.82,6.18-13.49,13.17-1.08,4.54-1.33,9.36-1.34,14.06-.08,61.54-.08,123.08-.02,184.62,0,4.71,.4,9.45,.95,14.13,.63,5.33,6.1,11.05,11.26,11.26,10.37,.42,20.75,.35,31.13,.49Zm1.5,406.58c-49.5,0-99-.03-148.5,.03-7.59,0-15.19,.41-22.77,.73-2.71,.11-5.01,2.83-4.64,5.85,.33,2.7,.46,6.11,3.97,6.75,4.6,.84,9.3,1.59,13.96,1.6,104.71,.08,209.43,.07,314.14,0,3.74,0,7.52-.49,11.21-1.13,3.3-.57,4.09-3.62,4.85-6.29,.63-2.23-2-6.37-3.89-6.49-6.6-.39-13.21-1-19.82-1.02-49.5-.09-99-.05-148.5-.05Zm40.52-149.28c.8-20.43-14.74-41.72-41.04-42.18-26.8-.47-43.71,20.31-43.02,43.3,.68,22.92,18.65,40.8,42.71,40.7,23.59-.1,42.38-20.32,41.36-41.82Zm-40.95,115.18c-29.53,0-59.05-.04-88.58,.03-5.68,.01-11.36,.43-17.04,.73-2.47,.13-5.18,3.18-4.93,5.84,.26,2.76,.79,6.03,3.89,6.76,4.53,1.06,9.25,1.82,13.89,1.82,60.96,.12,121.92,.08,182.88,.06,3.81,0,7.62-.1,11.42-.29,5.23-.26,7.7-3.72,7.18-9.84-.21-2.51-2.82-4.76-5.85-4.84-5.71-.15-11.43-.26-17.14-.26-28.57-.03-57.15-.01-85.72-.01Zm-1.68-19.11c0,.08,0,.16,0,.24,11.4,0,22.8,.05,34.2-.03,4.19-.03,7.92-2.97,7.93-6.41,.03-12.28-.1-24.56-.26-36.85-.03-2.51-1.73-3.59-3.99-2.35-24.26,13.36-48.5,14.6-72.91,.35-2.64-1.54-6.23,.58-6.23,3.32,0,11.37-.06,22.74,.05,34.11,.04,3.66,3.73,7.55,7.04,7.57,11.39,.08,22.78,.03,34.17,.03Zm6.52-313.75c-.67,.06,3.92-.28,8.5-.74,2.23-.23,3.77-4.93,3.83-9.53,.04-3.47-2.33-5.89-4.57-6-9.24-.46-18.52-.25-27.77,.15-1.23,.05-2.87,2.36-3.44,3.94-2.18,6.08,1.32,11.97,7.02,12.16,3.71,.12,7.43,.02,16.43,.02Zm-5.89-296.36c4.93-.29,9.69-.05,14.17-1.05,2.39-.53,4.25-3.02,4.17-6.35-.14-6.32-2.31-9.76-7.06-9.83-7.44-.11-14.89-.05-22.33-.02-.92,0-1.84,.27-2.76,.41-1.8,.27-4.09,5.92-4.23,9.6-.13,3.36,1.91,5.59,4.44,6.12,4.51,.94,9.23,.83,13.61,1.13Z"/><path class="cls-2" d="M272.28,425.77c-31.48,0-62.95,.03-94.43-.04-4.72-.01-9.55-.02-14.11-1.02-2.52-.55-4.32-3.12-4.42-6.45-.22-7.65,2.24-10.75,9.36-10.97,3.81-.12,7.63-.14,11.44-.14,62,0,123.99-.02,185.99,.02,5.71,0,11.43,.32,17.13,.62,3.22,.17,5.78,3.88,5.97,8.46,.17,4.16-2.37,8.52-5.4,8.71-5.7,.36-11.41,.76-17.12,.77-31.48,.07-62.95,.03-94.43,.03Z"/><path class="cls-2" d="M271.06,461.64c-14.23,0-28.46,.18-42.68-.17-2.56-.06-5.02-2.25-5.75-5.45-1.95-8.54,1.22-13.7,8.89-13.7,28.46-.02,56.92,.02,85.37,.27,2.61,.02,6.19,1.03,7.57,2.88,2.2,2.95,2.31,6.99,1.12,10.84-.98,3.17-3.57,4.92-6.17,4.96-16.11,.29-32.24,.14-48.36,.14v.22Z"/><path class="cls-1" d="M273.75,292.66c-10.38-.13-20.77-.07-31.13-.49-5.16-.21-10.63-5.93-11.26-11.26-.55-4.68-.95-9.42-.95-14.13-.06-61.54-.07-123.08,.02-184.62,0-4.7,.26-9.52,1.34-14.06,1.66-6.99,6.58-11.89,13.49-13.17,10.19-1.89,20.61-3.04,30.63,1.34-.53,9.46-1.47,18.9-1.5,28.35-.16,46.55-.01,93.1-.1,139.65-.04,22.79-.34,45.59-.53,68.38Z"/><path class="cls-1" d="M274.88,568.67c-11.4,.34-20.69-8.36-20.26-18.98,.4-9.83,8.29-17.79,18.17-18.34,11.33-.62,20.08,7.79,19.86,19.11-.2,10.47-7.45,17.89-17.77,18.2Z"/></svg>