<svg width="320" height="38" viewBox="0 0 320 38" fill="none" xmlns="http://www.w3.org/2000/svg">
<path d="M18.455 31.2734H86.6934" stroke="#9A9FA5" stroke-width="2"/>
<path d="M87.2085 31.2734H155.447" stroke="#9A9FA5" stroke-width="2"/>
<path d="M153.644 31.2734H221.883" stroke="#9A9FA5" stroke-width="2"/>
<path d="M220.595 31.2734H288.834" stroke="#9A9FA5" stroke-width="2"/>
<circle cx="18.1974" cy="31.2732" r="6.6951" fill="#64876E"/>
<circle cx="88.6351" cy="31.2728" r="4.63507" fill="#9A9FA5"/>
<circle cx="158.635" cy="31.2728" r="4.63507" fill="#9A9FA5"/>
<circle cx="220.635" cy="31.2728" r="4.63507" fill="#9A9FA5"/>
<circle cx="288.635" cy="31.2728" r="4.63507" fill="#9A9FA5"/>
<path d="M5.556 12.7139H7.68L4.128 8.48987L7.584 4.33787H5.556L2.508 8.09387V4.33787H0.828V12.7139H2.508V8.98187L5.556 12.7139ZM15.205 9.38987C15.205 7.28987 13.705 5.95787 11.785 5.95787C9.86503 5.95787 8.36503 7.28987 8.36503 9.38987C8.36503 11.4779 9.81703 12.8219 11.737 12.8219C13.669 12.8219 15.205 11.4779 15.205 9.38987ZM10.069 9.38987C10.069 8.05787 10.873 7.42187 11.761 7.42187C12.649 7.42187 13.477 8.05787 13.477 9.38987C13.477 10.7099 12.625 11.3579 11.737 11.3579C10.837 11.3579 10.069 10.7099 10.069 9.38987ZM21.0934 12.7139H22.7734V8.81387C22.7734 6.97787 21.6694 5.96987 20.1214 5.96987C19.2694 5.96987 18.5494 6.32987 18.1174 6.89387V6.06587H16.4374V12.7139H18.1174V9.04187C18.1174 7.97387 18.7054 7.39787 19.6174 7.39787C20.5054 7.39787 21.0934 7.97387 21.0934 9.04187V12.7139ZM24.635 10.6499C24.635 12.1739 25.487 12.7139 26.759 12.7139H27.815V11.2979H27.035C26.507 11.2979 26.327 11.1059 26.327 10.6619V7.44587H27.815V6.06587H26.327V4.42187H24.635V6.06587H23.843V7.44587H24.635V10.6499ZM28.5913 9.36587C28.5913 11.4419 29.9353 12.8219 31.6153 12.8219C32.6713 12.8219 33.4273 12.3179 33.8233 11.7419V12.7139H35.5153V6.06587H33.8233V7.01387C33.4273 6.46187 32.6953 5.95787 31.6273 5.95787C29.9353 5.95787 28.5913 7.28987 28.5913 9.36587ZM33.8233 9.38987C33.8233 10.6499 32.9833 11.3459 32.0593 11.3459C31.1593 11.3459 30.3073 10.6259 30.3073 9.36587C30.3073 8.10587 31.1593 7.43387 32.0593 7.43387C32.9833 7.43387 33.8233 8.12987 33.8233 9.38987ZM37.1561 12.7139H38.8361V9.88187L41.0921 12.7139H43.2761L40.3241 9.40187L43.2521 6.06587H41.0681L38.8361 8.88587V3.83387H37.1561V12.7139ZM44.4279 10.6499C44.4279 12.1739 45.2799 12.7139 46.5519 12.7139H47.6079V11.2979H46.8279C46.2999 11.2979 46.1199 11.1059 46.1199 10.6619V7.44587H47.6079V6.06587H46.1199V4.42187H44.4279V6.06587H43.6359V7.44587H44.4279V10.6499Z" fill="#4F7359"/>
<path d="M62.828 3.624V12H67.268V10.668H64.508V3.624H62.828ZM71.1918 6.624C72.0558 6.624 72.7518 7.176 72.7758 8.052H69.6198C69.7518 7.14 70.3878 6.624 71.1918 6.624ZM74.3478 9.912H72.5358C72.3198 10.356 71.9238 10.716 71.2038 10.716C70.3638 10.716 69.6918 10.164 69.6078 9.18H74.4678C74.5038 8.964 74.5158 8.748 74.5158 8.532C74.5158 6.552 73.1598 5.244 71.2398 5.244C69.2718 5.244 67.9038 6.576 67.9038 8.676C67.9038 10.764 69.3078 12.108 71.2398 12.108C72.8838 12.108 73.9878 11.136 74.3478 9.912ZM75.0341 5.352L77.4821 12H79.5221L81.9821 5.352H80.1941L78.5141 10.452L76.8341 5.352H75.0341ZM85.7817 6.624C86.6457 6.624 87.3417 7.176 87.3657 8.052H84.2097C84.3417 7.14 84.9777 6.624 85.7817 6.624ZM88.9377 9.912H87.1257C86.9097 10.356 86.5137 10.716 85.7937 10.716C84.9537 10.716 84.2817 10.164 84.1977 9.18H89.0577C89.0937 8.964 89.1057 8.748 89.1057 8.532C89.1057 6.552 87.7497 5.244 85.8297 5.244C83.8617 5.244 82.4937 6.576 82.4937 8.676C82.4937 10.764 83.8977 12.108 85.8297 12.108C87.4737 12.108 88.5777 11.136 88.9377 9.912ZM92.0119 8.688C92.0119 7.404 92.6119 7.02 93.6079 7.02H94.0519V5.256C93.1279 5.256 92.4319 5.7 92.0119 6.384V5.352H90.3319V12H92.0119V8.688ZM95.1835 12H96.8635V5.352H95.1835V12ZM96.0355 4.56C96.6235 4.56 97.0675 4.128 97.0675 3.576C97.0675 3.024 96.6235 2.592 96.0355 2.592C95.4355 2.592 95.0035 3.024 95.0035 3.576C95.0035 4.128 95.4355 4.56 96.0355 4.56ZM103.179 12H104.859V8.1C104.859 6.264 103.755 5.256 102.207 5.256C101.355 5.256 100.635 5.616 100.203 6.18V5.352H98.5233V12H100.203V8.328C100.203 7.26 100.791 6.684 101.703 6.684C102.591 6.684 103.179 7.26 103.179 8.328V12ZM106.025 8.652C106.025 10.728 107.369 12.108 109.061 12.108C110.105 12.108 110.861 11.592 111.257 11.016V12.048C111.257 13.284 110.537 13.812 109.613 13.812C108.773 13.812 108.149 13.416 107.981 12.816H106.313C106.481 14.34 107.789 15.276 109.661 15.276C111.845 15.276 112.949 13.848 112.949 12.048V5.352H111.257V6.3C110.861 5.724 110.105 5.244 109.061 5.244C107.369 5.244 106.025 6.576 106.025 8.652ZM111.257 8.676C111.257 9.936 110.417 10.632 109.493 10.632C108.593 10.632 107.741 9.912 107.741 8.652C107.741 7.392 108.593 6.72 109.493 6.72C110.417 6.72 111.257 7.416 111.257 8.676Z" fill="#9A9FA5"/>
<path d="M146.828 12.7139H148.508V4.33787H146.828V12.7139ZM154.824 12.7139H156.504V8.81387C156.504 6.97787 155.4 5.96987 153.852 5.96987C153 5.96987 152.28 6.32987 151.848 6.89387V6.06587H150.168V12.7139H151.848V9.04187C151.848 7.97387 152.436 7.39787 153.348 7.39787C154.236 7.39787 154.824 7.97387 154.824 9.04187V12.7139ZM158.281 12.7139H159.985V7.44587H161.149V6.06587H159.985V5.78987C159.985 5.04587 160.261 4.78187 161.077 4.80587V3.38987C159.205 3.34187 158.281 4.09787 158.281 5.72987V6.06587H157.525V7.44587H158.281V12.7139ZM168.658 9.38987C168.658 7.28987 167.158 5.95787 165.238 5.95787C163.318 5.95787 161.818 7.28987 161.818 9.38987C161.818 11.4779 163.27 12.8219 165.19 12.8219C167.122 12.8219 168.658 11.4779 168.658 9.38987ZM163.522 9.38987C163.522 8.05787 164.326 7.42187 165.214 7.42187C166.102 7.42187 166.93 8.05787 166.93 9.38987C166.93 10.7099 166.078 11.3579 165.19 11.3579C164.29 11.3579 163.522 10.7099 163.522 9.38987Z" fill="#9A9FA5"/>
<path d="M199.496 10.528C199.496 11.236 199.016 11.632 198.2 11.632H196.508V9.376H198.164C198.98 9.376 199.496 9.808 199.496 10.528ZM199.292 7.036C199.292 7.72 198.836 8.08 198.044 8.08H196.508V5.98H198.044C198.836 5.98 199.292 6.364 199.292 7.036ZM201.2 10.732C201.2 9.748 200.528 8.872 199.58 8.704C200.396 8.44 201.008 7.804 201.008 6.784C201.008 5.536 200.036 4.624 198.284 4.624H194.828V13H198.44C200.18 13 201.2 12.064 201.2 10.732ZM205.395 7.624C206.259 7.624 206.955 8.176 206.979 9.052H203.823C203.955 8.14 204.591 7.624 205.395 7.624ZM208.551 10.912H206.739C206.523 11.356 206.127 11.716 205.407 11.716C204.567 11.716 203.895 11.164 203.811 10.18H208.671C208.707 9.964 208.719 9.748 208.719 9.532C208.719 7.552 207.363 6.244 205.443 6.244C203.475 6.244 202.107 7.576 202.107 9.676C202.107 11.764 203.511 13.108 205.443 13.108C207.087 13.108 208.191 12.136 208.551 10.912ZM210.209 10.936C210.209 12.46 211.061 13 212.333 13H213.389V11.584H212.609C212.081 11.584 211.901 11.392 211.901 10.948V7.732H213.389V6.352H211.901V4.708H210.209V6.352H209.417V7.732H210.209V10.936ZM214.166 9.652C214.166 11.728 215.51 13.108 217.19 13.108C218.246 13.108 219.002 12.604 219.398 12.028V13H221.09V6.352H219.398V7.3C219.002 6.748 218.27 6.244 217.202 6.244C215.51 6.244 214.166 7.576 214.166 9.652ZM219.398 9.676C219.398 10.936 218.558 11.632 217.634 11.632C216.734 11.632 215.882 10.912 215.882 9.652C215.882 8.392 216.734 7.72 217.634 7.72C218.558 7.72 219.398 8.416 219.398 9.676ZM222.73 13H224.41V4.12H222.73V13ZM226.07 13H227.75V6.352H226.07V13ZM226.922 5.56C227.51 5.56 227.954 5.128 227.954 4.576C227.954 4.024 227.51 3.592 226.922 3.592C226.322 3.592 225.89 4.024 225.89 4.576C225.89 5.128 226.322 5.56 226.922 5.56ZM234.066 13H235.746V9.1C235.746 7.264 234.642 6.256 233.094 6.256C232.242 6.256 231.522 6.616 231.09 7.18V6.352H229.41V13H231.09V9.328C231.09 8.26 231.678 7.684 232.59 7.684C233.478 7.684 234.066 8.26 234.066 9.328V13ZM236.912 9.652C236.912 11.728 238.256 13.108 239.948 13.108C240.992 13.108 241.748 12.592 242.144 12.016V13.048C242.144 14.284 241.424 14.812 240.5 14.812C239.66 14.812 239.036 14.416 238.868 13.816H237.2C237.368 15.34 238.676 16.276 240.548 16.276C242.732 16.276 243.836 14.848 243.836 13.048V6.352H242.144V7.3C241.748 6.724 240.992 6.244 239.948 6.244C238.256 6.244 236.912 7.576 236.912 9.652ZM242.144 9.676C242.144 10.936 241.304 11.632 240.38 11.632C239.48 11.632 238.628 10.912 238.628 9.652C238.628 8.392 239.48 7.72 240.38 7.72C241.304 7.72 242.144 8.416 242.144 9.676Z" fill="#9A9FA5"/>
<path d="M263.692 4.22987C261.268 4.22987 259.42 6.00587 259.42 8.51387C259.42 11.0219 261.268 12.7859 263.704 12.7859C265.936 12.7859 267.46 11.2259 267.796 9.52187V8.05787H263.26V9.34187H266.14C265.888 10.5299 265.06 11.2739 263.764 11.2739C262.204 11.2739 261.148 10.2179 261.148 8.51387C261.148 6.84587 262.192 5.77787 263.692 5.77787C264.58 5.77787 265.276 6.14987 265.66 6.85787H267.592C267.052 5.17787 265.564 4.22987 263.692 4.22987ZM275.459 9.38987C275.459 7.28987 273.959 5.95787 272.039 5.95787C270.119 5.95787 268.619 7.28987 268.619 9.38987C268.619 11.4779 270.071 12.8219 271.991 12.8219C273.923 12.8219 275.459 11.4779 275.459 9.38987ZM270.323 9.38987C270.323 8.05787 271.127 7.42187 272.015 7.42187C272.903 7.42187 273.731 8.05787 273.731 9.38987C273.731 10.7099 272.879 11.3579 271.991 11.3579C271.091 11.3579 270.323 10.7099 270.323 9.38987ZM276.259 9.36587C276.259 11.4419 277.603 12.8219 279.295 12.8219C280.339 12.8219 281.083 12.3419 281.479 11.7299V12.7139H283.183V3.83387H281.479V6.98987C281.023 6.36587 280.183 5.95787 279.307 5.95787C277.603 5.95787 276.259 7.28987 276.259 9.36587ZM281.491 9.38987C281.491 10.6499 280.651 11.3459 279.727 11.3459C278.827 11.3459 277.975 10.6259 277.975 9.36587C277.975 8.10587 278.827 7.43387 279.727 7.43387C280.651 7.43387 281.491 8.12987 281.491 9.38987ZM284.824 12.7139H286.504V9.88187L288.76 12.7139H290.944L287.992 9.40187L290.92 6.06587H288.736L286.504 8.88587V3.83387H284.824V12.7139ZM294.688 7.33787C295.552 7.33787 296.248 7.88987 296.272 8.76587H293.116C293.248 7.85387 293.884 7.33787 294.688 7.33787ZM297.844 10.6259H296.032C295.816 11.0699 295.42 11.4299 294.7 11.4299C293.86 11.4299 293.188 10.8779 293.104 9.89387H297.964C298 9.67787 298.012 9.46187 298.012 9.24587C298.012 7.26587 296.656 5.95787 294.736 5.95787C292.768 5.95787 291.4 7.28987 291.4 9.38987C291.4 11.4779 292.804 12.8219 294.736 12.8219C296.38 12.8219 297.484 11.8499 297.844 10.6259ZM303.894 12.7139H305.574V8.81387C305.574 6.97787 304.47 5.96987 302.922 5.96987C302.07 5.96987 301.35 6.32987 300.918 6.89387V6.06587H299.238V12.7139H300.918V9.04187C300.918 7.97387 301.506 7.39787 302.418 7.39787C303.306 7.39787 303.894 7.97387 303.894 9.04187V12.7139ZM306.74 9.36587C306.74 11.4419 308.084 12.8219 309.776 12.8219C310.82 12.8219 311.564 12.3419 311.96 11.7299V12.7139H313.664V3.83387H311.96V6.98987C311.504 6.36587 310.664 5.95787 309.788 5.95787C308.084 5.95787 306.74 7.28987 306.74 9.36587ZM311.972 9.38987C311.972 10.6499 311.132 11.3459 310.208 11.3459C309.308 11.3459 308.456 10.6259 308.456 9.36587C308.456 8.10587 309.308 7.43387 310.208 7.43387C311.132 7.43387 311.972 8.12987 311.972 9.38987ZM315.569 10.6499C315.569 12.1739 316.421 12.7139 317.693 12.7139H318.749V11.2979H317.969C317.441 11.2979 317.261 11.1059 317.261 10.6619V7.44587H318.749V6.06587H317.261V4.42187H315.569V6.06587H314.777V7.44587H315.569V10.6499Z" fill="#9A9FA5"/>
</svg>
