<svg width="320" height="38" viewBox="0 0 320 38" fill="none" xmlns="http://www.w3.org/2000/svg">
<path d="M18.455 31.2734H86.6934" stroke="#4F7359" stroke-width="2"/>
<path d="M87.2085 31.2734H155.447" stroke="#4F7359" stroke-width="2"/>
<path d="M153.644 31.2734H221.883" stroke="#4F7359" stroke-width="2"/>
<path d="M220.595 31.2734H288.834" stroke="#9A9FA5" stroke-width="2"/>
<circle cx="88.6351" cy="31.2728" r="4.63507" fill="#4F7359"/>
<circle cx="158.635" cy="31.2728" r="4.63507" fill="#4F7359"/>
<circle cx="19.6351" cy="31.2728" r="4.63507" fill="#4F7359"/>
<circle cx="288.635" cy="31.2728" r="4.63507" fill="#9A9FA5"/>
<path d="M5.556 12.7139H7.68L4.128 8.48987L7.584 4.33787H5.556L2.508 8.09387V4.33787H0.828V12.7139H2.508V8.98187L5.556 12.7139ZM15.205 9.38987C15.205 7.28987 13.705 5.95787 11.785 5.95787C9.86503 5.95787 8.36503 7.28987 8.36503 9.38987C8.36503 11.4779 9.81703 12.8219 11.737 12.8219C13.669 12.8219 15.205 11.4779 15.205 9.38987ZM10.069 9.38987C10.069 8.05787 10.873 7.42187 11.761 7.42187C12.649 7.42187 13.477 8.05787 13.477 9.38987C13.477 10.7099 12.625 11.3579 11.737 11.3579C10.837 11.3579 10.069 10.7099 10.069 9.38987ZM21.0934 12.7139H22.7734V8.81387C22.7734 6.97787 21.6694 5.96987 20.1214 5.96987C19.2694 5.96987 18.5494 6.32987 18.1174 6.89387V6.06587H16.4374V12.7139H18.1174V9.04187C18.1174 7.97387 18.7054 7.39787 19.6174 7.39787C20.5054 7.39787 21.0934 7.97387 21.0934 9.04187V12.7139ZM24.635 10.6499C24.635 12.1739 25.487 12.7139 26.759 12.7139H27.815V11.2979H27.035C26.507 11.2979 26.327 11.1059 26.327 10.6619V7.44587H27.815V6.06587H26.327V4.42187H24.635V6.06587H23.843V7.44587H24.635V10.6499ZM28.5913 9.36587C28.5913 11.4419 29.9353 12.8219 31.6153 12.8219C32.6713 12.8219 33.4273 12.3179 33.8233 11.7419V12.7139H35.5153V6.06587H33.8233V7.01387C33.4273 6.46187 32.6953 5.95787 31.6273 5.95787C29.9353 5.95787 28.5913 7.28987 28.5913 9.36587ZM33.8233 9.38987C33.8233 10.6499 32.9833 11.3459 32.0593 11.3459C31.1593 11.3459 30.3073 10.6259 30.3073 9.36587C30.3073 8.10587 31.1593 7.43387 32.0593 7.43387C32.9833 7.43387 33.8233 8.12987 33.8233 9.38987ZM37.1561 12.7139H38.8361V9.88187L41.0921 12.7139H43.2761L40.3241 9.40187L43.2521 6.06587H41.0681L38.8361 8.88587V3.83387H37.1561V12.7139ZM44.4279 10.6499C44.4279 12.1739 45.2799 12.7139 46.5519 12.7139H47.6079V11.2979H46.8279C46.2999 11.2979 46.1199 11.1059 46.1199 10.6619V7.44587H47.6079V6.06587H46.1199V4.42187H44.4279V6.06587H43.6359V7.44587H44.4279V10.6499Z" fill="#4F7359"/>
<path d="M64.508 10.668H67.268V12H62.828V3.624H64.508V10.668ZM74.5158 8.532C74.5158 8.772 74.4998 8.988 74.4678 9.18H69.6078C69.6478 9.66 69.8158 10.036 70.1118 10.308C70.4078 10.58 70.7718 10.716 71.2038 10.716C71.8278 10.716 72.2718 10.448 72.5358 9.912H74.3478C74.1558 10.552 73.7878 11.08 73.2438 11.496C72.6998 11.904 72.0318 12.108 71.2398 12.108C70.5998 12.108 70.0238 11.968 69.5118 11.688C69.0078 11.4 68.6118 10.996 68.3238 10.476C68.0438 9.956 67.9038 9.356 67.9038 8.676C67.9038 7.988 68.0438 7.384 68.3238 6.864C68.6038 6.344 68.9958 5.944 69.4998 5.664C70.0038 5.384 70.5838 5.244 71.2398 5.244C71.8718 5.244 72.4358 5.38 72.9318 5.652C73.4358 5.924 73.8238 6.312 74.0958 6.816C74.3758 7.312 74.5158 7.884 74.5158 8.532ZM72.7758 8.052C72.7678 7.62 72.6118 7.276 72.3078 7.02C72.0038 6.756 71.6318 6.624 71.1918 6.624C70.7758 6.624 70.4238 6.752 70.1358 7.008C69.8558 7.256 69.6838 7.604 69.6198 8.052H72.7758ZM78.5141 10.452L80.1941 5.352H81.9821L79.5221 12H77.4821L75.0341 5.352H76.8341L78.5141 10.452ZM89.1057 8.532C89.1057 8.772 89.0897 8.988 89.0577 9.18H84.1977C84.2377 9.66 84.4057 10.036 84.7017 10.308C84.9977 10.58 85.3617 10.716 85.7937 10.716C86.4177 10.716 86.8617 10.448 87.1257 9.912H88.9377C88.7457 10.552 88.3777 11.08 87.8337 11.496C87.2897 11.904 86.6217 12.108 85.8297 12.108C85.1897 12.108 84.6137 11.968 84.1017 11.688C83.5977 11.4 83.2017 10.996 82.9137 10.476C82.6337 9.956 82.4937 9.356 82.4937 8.676C82.4937 7.988 82.6337 7.384 82.9137 6.864C83.1937 6.344 83.5857 5.944 84.0897 5.664C84.5937 5.384 85.1737 5.244 85.8297 5.244C86.4617 5.244 87.0257 5.38 87.5217 5.652C88.0257 5.924 88.4137 6.312 88.6857 6.816C88.9657 7.312 89.1057 7.884 89.1057 8.532ZM87.3657 8.052C87.3577 7.62 87.2017 7.276 86.8977 7.02C86.5937 6.756 86.2217 6.624 85.7817 6.624C85.3657 6.624 85.0137 6.752 84.7257 7.008C84.4457 7.256 84.2737 7.604 84.2097 8.052H87.3657ZM92.0119 6.384C92.2279 6.032 92.5079 5.756 92.8519 5.556C93.2039 5.356 93.6039 5.256 94.0519 5.256V7.02H93.6079C93.0799 7.02 92.6799 7.144 92.4079 7.392C92.1439 7.64 92.0119 8.072 92.0119 8.688V12H90.3319V5.352H92.0119V6.384ZM96.0355 4.56C95.7395 4.56 95.4915 4.468 95.2915 4.284C95.0995 4.092 95.0035 3.856 95.0035 3.576C95.0035 3.296 95.0995 3.064 95.2915 2.88C95.4915 2.688 95.7395 2.592 96.0355 2.592C96.3315 2.592 96.5755 2.688 96.7675 2.88C96.9675 3.064 97.0675 3.296 97.0675 3.576C97.0675 3.856 96.9675 4.092 96.7675 4.284C96.5755 4.468 96.3315 4.56 96.0355 4.56ZM96.8635 5.352V12H95.1835V5.352H96.8635ZM102.207 5.256C102.999 5.256 103.639 5.508 104.127 6.012C104.615 6.508 104.859 7.204 104.859 8.1V12H103.179V8.328C103.179 7.8 103.047 7.396 102.783 7.116C102.519 6.828 102.159 6.684 101.703 6.684C101.239 6.684 100.871 6.828 100.599 7.116C100.335 7.396 100.203 7.8 100.203 8.328V12H98.5233V5.352H100.203V6.18C100.427 5.892 100.711 5.668 101.055 5.508C101.407 5.34 101.791 5.256 102.207 5.256ZM109.061 5.244C109.557 5.244 109.993 5.344 110.369 5.544C110.745 5.736 111.041 5.988 111.257 6.3V5.352H112.949V12.048C112.949 12.664 112.825 13.212 112.577 13.692C112.329 14.18 111.957 14.564 111.461 14.844C110.965 15.132 110.365 15.276 109.661 15.276C108.717 15.276 107.941 15.056 107.333 14.616C106.733 14.176 106.393 13.576 106.313 12.816H107.981C108.069 13.12 108.257 13.36 108.545 13.536C108.841 13.72 109.197 13.812 109.613 13.812C110.101 13.812 110.497 13.664 110.801 13.368C111.105 13.08 111.257 12.64 111.257 12.048V11.016C111.041 11.328 110.741 11.588 110.357 11.796C109.981 12.004 109.549 12.108 109.061 12.108C108.501 12.108 107.989 11.964 107.525 11.676C107.061 11.388 106.693 10.984 106.421 10.464C106.157 9.936 106.025 9.332 106.025 8.652C106.025 7.98 106.157 7.384 106.421 6.864C106.693 6.344 107.057 5.944 107.513 5.664C107.977 5.384 108.493 5.244 109.061 5.244ZM111.257 8.676C111.257 8.268 111.177 7.92 111.017 7.632C110.857 7.336 110.641 7.112 110.369 6.96C110.097 6.8 109.805 6.72 109.493 6.72C109.181 6.72 108.893 6.796 108.629 6.948C108.365 7.1 108.149 7.324 107.981 7.62C107.821 7.908 107.741 8.252 107.741 8.652C107.741 9.052 107.821 9.404 107.981 9.708C108.149 10.004 108.365 10.232 108.629 10.392C108.901 10.552 109.189 10.632 109.493 10.632C109.805 10.632 110.097 10.556 110.369 10.404C110.641 10.244 110.857 10.02 111.017 9.732C111.177 9.436 111.257 9.084 111.257 8.676Z" fill="#4F7359"/>
<path d="M148.508 4.33787V12.7139H146.828V4.33787H148.508ZM153.852 5.96987C154.644 5.96987 155.284 6.22187 155.772 6.72587C156.26 7.22187 156.504 7.91787 156.504 8.81387V12.7139H154.824V9.04187C154.824 8.51387 154.692 8.10987 154.428 7.82987C154.164 7.54187 153.804 7.39787 153.348 7.39787C152.884 7.39787 152.516 7.54187 152.244 7.82987C151.98 8.10987 151.848 8.51387 151.848 9.04187V12.7139H150.168V6.06587H151.848V6.89387C152.072 6.60587 152.356 6.38187 152.7 6.22187C153.052 6.05387 153.436 5.96987 153.852 5.96987ZM161.149 7.44587H159.985V12.7139H158.281V7.44587H157.525V6.06587H158.281V5.72987C158.281 4.91387 158.513 4.31387 158.977 3.92987C159.441 3.54587 160.141 3.36587 161.077 3.38987V4.80587C160.669 4.79787 160.385 4.86587 160.225 5.00987C160.065 5.15387 159.985 5.41387 159.985 5.78987V6.06587H161.149V7.44587ZM165.19 12.8219C164.55 12.8219 163.974 12.6819 163.462 12.4019C162.95 12.1139 162.546 11.7099 162.25 11.1899C161.962 10.6699 161.818 10.0699 161.818 9.38987C161.818 8.70987 161.966 8.10987 162.262 7.58987C162.566 7.06987 162.978 6.66987 163.498 6.38987C164.018 6.10187 164.598 5.95787 165.238 5.95787C165.878 5.95787 166.458 6.10187 166.978 6.38987C167.498 6.66987 167.906 7.06987 168.202 7.58987C168.506 8.10987 168.658 8.70987 168.658 9.38987C168.658 10.0699 168.502 10.6699 168.19 11.1899C167.886 11.7099 167.47 12.1139 166.942 12.4019C166.422 12.6819 165.838 12.8219 165.19 12.8219ZM165.19 11.3579C165.494 11.3579 165.778 11.2859 166.042 11.1419C166.314 10.9899 166.53 10.7659 166.69 10.4699C166.85 10.1739 166.93 9.81387 166.93 9.38987C166.93 8.75787 166.762 8.27387 166.426 7.93787C166.098 7.59387 165.694 7.42187 165.214 7.42187C164.734 7.42187 164.33 7.59387 164.002 7.93787C163.682 8.27387 163.522 8.75787 163.522 9.38987C163.522 10.0219 163.678 10.5099 163.99 10.8539C164.31 11.1899 164.71 11.3579 165.19 11.3579Z" fill="#4F7359"/>
<path d="M202.58 8.704C203.052 8.792 203.44 9.028 203.744 9.412C204.048 9.796 204.2 10.236 204.2 10.732C204.2 11.18 204.088 11.576 203.864 11.92C203.648 12.256 203.332 12.52 202.916 12.712C202.5 12.904 202.008 13 201.44 13H197.828V4.624H201.284C201.852 4.624 202.34 4.716 202.748 4.9C203.164 5.084 203.476 5.34 203.684 5.668C203.9 5.996 204.008 6.368 204.008 6.784C204.008 7.272 203.876 7.68 203.612 8.008C203.356 8.336 203.012 8.568 202.58 8.704ZM199.508 8.08H201.044C201.444 8.08 201.752 7.992 201.968 7.816C202.184 7.632 202.292 7.372 202.292 7.036C202.292 6.7 202.184 6.44 201.968 6.256C201.752 6.072 201.444 5.98 201.044 5.98H199.508V8.08ZM201.2 11.632C201.608 11.632 201.924 11.536 202.148 11.344C202.38 11.152 202.496 10.88 202.496 10.528C202.496 10.168 202.376 9.888 202.136 9.688C201.896 9.48 201.572 9.376 201.164 9.376H199.508V11.632H201.2ZM211.719 9.532C211.719 9.772 211.703 9.988 211.671 10.18H206.811C206.851 10.66 207.019 11.036 207.315 11.308C207.611 11.58 207.975 11.716 208.407 11.716C209.031 11.716 209.475 11.448 209.739 10.912H211.551C211.359 11.552 210.991 12.08 210.447 12.496C209.903 12.904 209.235 13.108 208.443 13.108C207.803 13.108 207.227 12.968 206.715 12.688C206.211 12.4 205.815 11.996 205.527 11.476C205.247 10.956 205.107 10.356 205.107 9.676C205.107 8.988 205.247 8.384 205.527 7.864C205.807 7.344 206.199 6.944 206.703 6.664C207.207 6.384 207.787 6.244 208.443 6.244C209.075 6.244 209.639 6.38 210.135 6.652C210.639 6.924 211.027 7.312 211.299 7.816C211.579 8.312 211.719 8.884 211.719 9.532ZM209.979 9.052C209.971 8.62 209.815 8.276 209.511 8.02C209.207 7.756 208.835 7.624 208.395 7.624C207.979 7.624 207.627 7.752 207.339 8.008C207.059 8.256 206.887 8.604 206.823 9.052H209.979ZM214.901 7.732V10.948C214.901 11.172 214.953 11.336 215.057 11.44C215.169 11.536 215.353 11.584 215.609 11.584H216.389V13H215.333C213.917 13 213.209 12.312 213.209 10.936V7.732H212.417V6.352H213.209V4.708H214.901V6.352H216.389V7.732H214.901ZM217.166 9.652C217.166 8.98 217.298 8.384 217.562 7.864C217.834 7.344 218.198 6.944 218.654 6.664C219.118 6.384 219.634 6.244 220.202 6.244C220.698 6.244 221.13 6.344 221.498 6.544C221.874 6.744 222.174 6.996 222.398 7.3V6.352H224.09V13H222.398V12.028C222.182 12.34 221.882 12.6 221.498 12.808C221.122 13.008 220.686 13.108 220.19 13.108C219.63 13.108 219.118 12.964 218.654 12.676C218.198 12.388 217.834 11.984 217.562 11.464C217.298 10.936 217.166 10.332 217.166 9.652ZM222.398 9.676C222.398 9.268 222.318 8.92 222.158 8.632C221.998 8.336 221.782 8.112 221.51 7.96C221.238 7.8 220.946 7.72 220.634 7.72C220.322 7.72 220.034 7.796 219.77 7.948C219.506 8.1 219.29 8.324 219.122 8.62C218.962 8.908 218.882 9.252 218.882 9.652C218.882 10.052 218.962 10.404 219.122 10.708C219.29 11.004 219.506 11.232 219.77 11.392C220.042 11.552 220.33 11.632 220.634 11.632C220.946 11.632 221.238 11.556 221.51 11.404C221.782 11.244 221.998 11.02 222.158 10.732C222.318 10.436 222.398 10.084 222.398 9.676ZM227.41 4.12V13H225.73V4.12H227.41ZM229.922 5.56C229.626 5.56 229.378 5.468 229.178 5.284C228.986 5.092 228.89 4.856 228.89 4.576C228.89 4.296 228.986 4.064 229.178 3.88C229.378 3.688 229.626 3.592 229.922 3.592C230.218 3.592 230.462 3.688 230.654 3.88C230.854 4.064 230.954 4.296 230.954 4.576C230.954 4.856 230.854 5.092 230.654 5.284C230.462 5.468 230.218 5.56 229.922 5.56ZM230.75 6.352V13H229.07V6.352H230.75ZM236.094 6.256C236.886 6.256 237.526 6.508 238.014 7.012C238.502 7.508 238.746 8.204 238.746 9.1V13H237.066V9.328C237.066 8.8 236.934 8.396 236.67 8.116C236.406 7.828 236.046 7.684 235.59 7.684C235.126 7.684 234.758 7.828 234.486 8.116C234.222 8.396 234.09 8.8 234.09 9.328V13H232.41V6.352H234.09V7.18C234.314 6.892 234.598 6.668 234.942 6.508C235.294 6.34 235.678 6.256 236.094 6.256ZM242.948 6.244C243.444 6.244 243.88 6.344 244.256 6.544C244.632 6.736 244.928 6.988 245.144 7.3V6.352H246.836V13.048C246.836 13.664 246.712 14.212 246.464 14.692C246.216 15.18 245.844 15.564 245.348 15.844C244.852 16.132 244.252 16.276 243.548 16.276C242.604 16.276 241.828 16.056 241.22 15.616C240.62 15.176 240.28 14.576 240.2 13.816H241.868C241.956 14.12 242.144 14.36 242.432 14.536C242.728 14.72 243.084 14.812 243.5 14.812C243.988 14.812 244.384 14.664 244.688 14.368C244.992 14.08 245.144 13.64 245.144 13.048V12.016C244.928 12.328 244.628 12.588 244.244 12.796C243.868 13.004 243.436 13.108 242.948 13.108C242.388 13.108 241.876 12.964 241.412 12.676C240.948 12.388 240.58 11.984 240.308 11.464C240.044 10.936 239.912 10.332 239.912 9.652C239.912 8.98 240.044 8.384 240.308 7.864C240.58 7.344 240.944 6.944 241.4 6.664C241.864 6.384 242.38 6.244 242.948 6.244ZM245.144 9.676C245.144 9.268 245.064 8.92 244.904 8.632C244.744 8.336 244.528 8.112 244.256 7.96C243.984 7.8 243.692 7.72 243.38 7.72C243.068 7.72 242.78 7.796 242.516 7.948C242.252 8.1 242.036 8.324 241.868 8.62C241.708 8.908 241.628 9.252 241.628 9.652C241.628 10.052 241.708 10.404 241.868 10.708C242.036 11.004 242.252 11.232 242.516 11.392C242.788 11.552 243.076 11.632 243.38 11.632C243.692 11.632 243.984 11.556 244.256 11.404C244.528 11.244 244.744 11.02 244.904 10.732C245.064 10.436 245.144 10.084 245.144 9.676Z" fill="#4F7359"/>
<path d="M263.692 4.22987C261.268 4.22987 259.42 6.00587 259.42 8.51387C259.42 11.0219 261.268 12.7859 263.704 12.7859C265.936 12.7859 267.46 11.2259 267.796 9.52187V8.05787H263.26V9.34187H266.14C265.888 10.5299 265.06 11.2739 263.764 11.2739C262.204 11.2739 261.148 10.2179 261.148 8.51387C261.148 6.84587 262.192 5.77787 263.692 5.77787C264.58 5.77787 265.276 6.14987 265.66 6.85787H267.592C267.052 5.17787 265.564 4.22987 263.692 4.22987ZM275.459 9.38987C275.459 7.28987 273.959 5.95787 272.039 5.95787C270.119 5.95787 268.619 7.28987 268.619 9.38987C268.619 11.4779 270.071 12.8219 271.991 12.8219C273.923 12.8219 275.459 11.4779 275.459 9.38987ZM270.323 9.38987C270.323 8.05787 271.127 7.42187 272.015 7.42187C272.903 7.42187 273.731 8.05787 273.731 9.38987C273.731 10.7099 272.879 11.3579 271.991 11.3579C271.091 11.3579 270.323 10.7099 270.323 9.38987ZM276.259 9.36587C276.259 11.4419 277.603 12.8219 279.295 12.8219C280.339 12.8219 281.083 12.3419 281.479 11.7299V12.7139H283.183V3.83387H281.479V6.98987C281.023 6.36587 280.183 5.95787 279.307 5.95787C277.603 5.95787 276.259 7.28987 276.259 9.36587ZM281.491 9.38987C281.491 10.6499 280.651 11.3459 279.727 11.3459C278.827 11.3459 277.975 10.6259 277.975 9.36587C277.975 8.10587 278.827 7.43387 279.727 7.43387C280.651 7.43387 281.491 8.12987 281.491 9.38987ZM284.824 12.7139H286.504V9.88187L288.76 12.7139H290.944L287.992 9.40187L290.92 6.06587H288.736L286.504 8.88587V3.83387H284.824V12.7139ZM294.688 7.33787C295.552 7.33787 296.248 7.88987 296.272 8.76587H293.116C293.248 7.85387 293.884 7.33787 294.688 7.33787ZM297.844 10.6259H296.032C295.816 11.0699 295.42 11.4299 294.7 11.4299C293.86 11.4299 293.188 10.8779 293.104 9.89387H297.964C298 9.67787 298.012 9.46187 298.012 9.24587C298.012 7.26587 296.656 5.95787 294.736 5.95787C292.768 5.95787 291.4 7.28987 291.4 9.38987C291.4 11.4779 292.804 12.8219 294.736 12.8219C296.38 12.8219 297.484 11.8499 297.844 10.6259ZM303.894 12.7139H305.574V8.81387C305.574 6.97787 304.47 5.96987 302.922 5.96987C302.07 5.96987 301.35 6.32987 300.918 6.89387V6.06587H299.238V12.7139H300.918V9.04187C300.918 7.97387 301.506 7.39787 302.418 7.39787C303.306 7.39787 303.894 7.97387 303.894 9.04187V12.7139ZM306.74 9.36587C306.74 11.4419 308.084 12.8219 309.776 12.8219C310.82 12.8219 311.564 12.3419 311.96 11.7299V12.7139H313.664V3.83387H311.96V6.98987C311.504 6.36587 310.664 5.95787 309.788 5.95787C308.084 5.95787 306.74 7.28987 306.74 9.36587ZM311.972 9.38987C311.972 10.6499 311.132 11.3459 310.208 11.3459C309.308 11.3459 308.456 10.6259 308.456 9.36587C308.456 8.10587 309.308 7.43387 310.208 7.43387C311.132 7.43387 311.972 8.12987 311.972 9.38987ZM315.569 10.6499C315.569 12.1739 316.421 12.7139 317.693 12.7139H318.749V11.2979H317.969C317.441 11.2979 317.261 11.1059 317.261 10.6619V7.44587H318.749V6.06587H317.261V4.42187H315.569V6.06587H314.777V7.44587H315.569V10.6499Z" fill="#9A9FA5"/>
<circle cx="223.695" cy="31.2732" r="6.6951" fill="#64876E"/>
</svg>
