<svg width="238" height="220" viewBox="0 0 238 220" fill="none" xmlns="http://www.w3.org/2000/svg">
<circle cx="208" cy="26" r="4.5" fill="#4F7359" stroke="#4F7359"/>
<circle cx="205" cy="5" r="4.5" fill="#4F7359" stroke="#4F7359"/>
<circle cx="233" cy="5" r="4.5" fill="#4F7359" stroke="#4F7359"/>
<path d="M173.164 19.3203L199.805 45.9609" stroke="#4F7359" stroke-width="8" stroke-linecap="round" stroke-linejoin="round"/>
<path d="M179.827 25.9805L126.546 65.9414L93.2455 72.6016L22.731 143.116C20.2601 145.624 18.875 149.003 18.875 152.523C18.875 156.044 20.2601 159.423 22.731 161.931L57.1974 196.397C59.7051 198.868 63.0843 200.253 66.6048 200.253C70.1254 200.253 73.5046 198.868 76.0123 196.397L146.527 125.883L153.187 92.582L193.148 39.3008" stroke="#4F7359" stroke-width="8" stroke-linecap="round" stroke-linejoin="round"/>
<path d="M79.9219 85.9219L133.203 139.203" stroke="#4F7359" stroke-width="8" stroke-linecap="round" stroke-linejoin="round"/>
<path d="M86.582 185.824L33.3008 132.543" stroke="#4F7359" stroke-width="8" stroke-linecap="round" stroke-linejoin="round"/>
</svg>
