<svg xmlns="http://www.w3.org/2000/svg" xmlns:xlink="http://www.w3.org/1999/xlink" width="405.172" height="785.106" viewBox="0 0 405.172 785.106">
  <defs>
    <clipPath id="a">
      <rect x="41.78" y="667.06" width="120.91" height="159" fill="none"/>
    </clipPath>
    <clipPath id="b">
      <rect x="238.701" y="600.034" width="159" height="120.91" transform="translate(-414.286 691.486) rotate(-66.7)" fill="none"/>
    </clipPath>
  </defs>
  <g>
    <ellipse cx="308.69" cy="689.5" rx="68" ry="3.5" fill="#2e2d26"/>
    <ellipse cx="109.69" cy="771.5" rx="68" ry="3.5" fill="#2e2d26"/>
    <g clip-path="url(#a)">
      <g>
        <path d="M160.03,744.5l-.12.24-.14.07Z" fill="#646d59"/>
        <polygon points="159.76 744.83 144.11 762.83 133.34 763.47 127.32 769.72 101.28 772.31 75.18 740.35 73.71 740.11 56.82 717.9 55.65 716.47 72.44 691.16 80.72 690.17 97.2 690.17 104.51 675.73 134.64 672.07 135.7 675.07 108.63 694.37 115.04 706.72 141.74 692.31 142.25 693.77 116.02 708.56 122.68 721.42 147.91 709.92 148.56 711.77 123.06 724.88 123.59 726.12 128.73 737.98 148.88 729.66 154.08 727.53 154.88 729.81 150.71 732.09 131.2 742.79 138.35 754.77 159.76 744.83" fill="#d1541d"/>
        <path d="M88.22,726.12h-6.4l1.63-2.8Z" fill="#d1541d"/>
        <path d="M96.31,690.17H93.2l-1.99-7-.28-1.03-4.31-15.08,7.8,1.3,1.9,21.81Z" fill="#2e2d26"/>
        <path d="M88,682.3c-.09.07-.18.16-.27.23a17.8,17.8,0,0,1-9.41,4.1,18.8,18.8,0,0,1-5.64-.15c-.38-.07-.76-.15-1.13-.23a18.208,18.208,0,0,1-11.83-8.99,18.583,18.583,0,0,1,27.93,4.41c.12.22.24.42.35.64Z" fill="#b3a658"/>
        <path d="M134.64,672.07l25.12,72.75-14.25,13-22.44.18s-21.75-31.99-20.83-33.29-8.47-30.6-8.47-30.6l20.29-10.15,20.59-11.9Z" fill="#d1541d"/>
      </g>
    </g>
    <g clip-path="url(#b)">
      <g>
        <path d="M266.08,636.19l-.1-.12-.02-.27.11.39Z" fill="#646d59"/>
        <polygon points="266.09 636.21 273.34 658.93 282.98 663.78 286.03 671.91 308.93 684.59 345.54 665.56 346.99 665.92 371.28 652.2 372.92 651.36 367.51 621.47 360.31 617.28 345.17 610.76 344.17 594.61 317.94 579.33 315.78 581.67 333.01 610.09 322.23 618.9 303.42 595.11 302.37 596.24 320.61 620.21 309.41 629.38 290.78 608.84 289.46 610.28 307.69 632.41 306.71 633.34 297.3 642.2 282.08 626.59 278.15 622.58 276.51 624.35 279.43 628.1 293.13 645.64 281.82 653.82 266.09 636.21" fill="#d1541d"/>
        <path d="M344.69,646.65l.39,3.21-5.88-2.53Z" fill="#d1541d"/>
        <path d="M356.35,591.83l7.68,1.89-9.93,12.14-.67.84-4.6,5.64-2.85-1.23,10.37-19.28Z" fill="#2e2d26"/>
        <path d="M357.3,606.73a18.577,18.577,0,0,1,27.39,7.01,18.174,18.174,0,0,1-14.42,3.58c-.37-.07-.75-.15-1.13-.23A19.022,19.022,0,0,1,363.9,615a17.808,17.808,0,0,1-7.02-7.49c-.06-.1-.1-.22-.16-.32.19-.16.38-.3.58-.45Z" fill="#b3a658"/>
        <path d="M317.94,579.33l-51.85,56.88,7.95,17.58,20.54,9.04s32.63-20.78,32.3-22.33,19.89-24.76,19.89-24.76l-14.62-17.35-14.2-19.07Z" fill="#d1541d"/>
      </g>
    </g>
    <polygon points="55.11 22 44.54 29.55 44.54 44.92 49.83 55.16 0 96.74 48.32 136.75 352.55 132.22 352.55 47.48 55.11 22" fill="#2e2d26"/>
    <polygon points="81.53 266.09 17.42 342.99 45.3 368 348.23 368 352.55 266.09 81.53 266.09" fill="#2e2d26"/>
    <polygon points="320.95 146.05 388.69 222.96 359.23 247.97 39.15 247.97 34.59 146.05 320.95 146.05" fill="#2e2d26"/>
    <polygon points="223.58 0 191.69 777.02 162.59 777.02 191.69 0 223.58 0" fill="#a64e3a"/>
    <polygon points="223.58 0 191.69 777.02 178.18 777.02 209.65 0 223.58 0" fill="#723730" opacity="0.47" style="isolation: isolate"/>
    <polygon points="55.11 14 44.54 21.55 44.54 36.92 49.83 47.16 0 88.74 48.32 128.75 352.55 124.22 352.55 39.48 55.11 14" fill="#e2a168"/>
    <polygon points="81.53 257.09 17.42 333.99 45.3 359 348.23 359 352.55 257.09 81.53 257.09" fill="#e2a168"/>
    <polygon points="320.95 137.05 388.69 213.96 359.23 238.97 39.15 238.97 34.59 137.05 320.95 137.05" fill="#e2a168"/>
    <g>
      <path d="M175.46,316.77h-8.74V298.01h8.44c3.82,0,6.09,1.9,6.09,4.86a4.244,4.244,0,0,1-3.18,4.27,4.551,4.551,0,0,1,3.61,4.52c0,3.1-2.27,5.1-6.23,5.1Zm-1.18-15.1h-2.99v3.93h2.99c1.5,0,2.32-.67,2.32-1.95s-.83-1.98-2.32-1.98Zm.32,7.27h-3.31v4.14h3.37c1.52,0,2.4-.69,2.4-2.03s-.94-2.11-2.46-2.11Z" fill="#723730"/>
      <path d="M188.89,298.02v15.23h5.98v3.53H184.32V298.02Z" fill="#723730"/>
      <path d="M205.93,316.96a9.605,9.605,0,1,1,9.59-9.62A9.438,9.438,0,0,1,205.93,316.96Zm0-4.17c2.99,0,4.94-2.16,4.94-5.45s-1.95-5.45-4.94-5.45-4.97,2.11-4.97,5.45S202.88,312.79,205.93,312.79Z" fill="#723730"/>
      <path d="M235.56,303.95h-5.05a3.918,3.918,0,0,0-3.69-1.92c-2.94,0-4.89,2.08-4.89,5.34,0,3.47,1.98,5.5,5.26,5.5a4.486,4.486,0,0,0,4.54-3.31h-5.8v-3.37h9.94v4.25a9.55,9.55,0,1,1-9.05-12.63c4.49,0,7.75,2.3,8.74,6.15Z" fill="#723730"/>
    </g>
    <g>
      <path d="M74.55,182.02v15.23h5.98v3.53H69.98V182.02Z" fill="#723730"/>
      <path d="M94.4,197.46h-7l-1.12,3.31H81.5l6.79-18.76h5.29l6.79,18.76H95.53l-1.12-3.31Zm-3.5-10.39-2.3,6.87h4.62Z" fill="#723730"/>
      <path d="M115.18,182.02h4.84l-6.65,18.76h-5.72L101,182.02h4.86l4.65,14.16,4.68-14.16Z" fill="#723730"/>
      <path d="M144.43,191.39c0,5.56-3.85,9.38-9.83,9.38h-7.03V182.01h7.03c5.98,0,9.83,3.79,9.83,9.38Zm-10.13,5.42c3.45,0,5.48-1.98,5.48-5.42s-2.03-5.48-5.48-5.48h-2.16v10.9Z" fill="#723730"/>
      <path d="M146.99,182.02h4.57v18.76h-4.57Z" fill="#723730"/>
      <path d="M171.65,182.02v18.76h-4.57l-7.64-11.57v11.57h-4.57V182.02h4.57l7.64,11.62V182.02Z" fill="#723730"/>
      <path d="M192.11,185.68h-6.92v3.79h6.12V193h-6.12v4.11h6.92v3.66H180.62V182.01h11.49v3.67Z" fill="#723730"/>
      <path d="M212.57,187.95h-5.05a3.918,3.918,0,0,0-3.69-1.92c-2.94,0-4.89,2.08-4.89,5.34,0,3.47,1.98,5.5,5.26,5.5a4.486,4.486,0,0,0,4.54-3.31h-5.8v-3.37h9.94v4.25a9.55,9.55,0,1,1-9.05-12.63c4.49,0,7.75,2.3,8.74,6.15Z" fill="#723730"/>
      <path d="M226.91,185.68h-6.92v3.79h6.12V193h-6.12v4.11h6.92v3.66H215.42V182.01h11.49v3.67Z" fill="#723730"/>
      <path d="M246.66,182.02v18.76h-4.57l-7.64-11.57v11.57h-4.57V182.02h4.57l7.64,11.62V182.02Z" fill="#723730"/>
      <path d="M264.28,181.8c4.46,0,7.83,2.51,8.9,6.57h-5.02a4.129,4.129,0,0,0-3.93-2.4c-2.81,0-4.73,2.08-4.73,5.4s1.92,5.4,4.73,5.4a4.138,4.138,0,0,0,3.93-2.4h5.02c-1.07,4.06-4.44,6.55-8.9,6.55-5.53,0-9.43-3.93-9.43-9.54s3.9-9.56,9.43-9.56Z" fill="#723730"/>
      <path d="M275.98,182.02h4.57v18.76h-4.57Z" fill="#723730"/>
      <path d="M300.72,191.39c0,5.56-3.85,9.38-9.83,9.38h-7.03V182.01h7.03c5.98,0,9.83,3.79,9.83,9.38Zm-10.13,5.42c3.45,0,5.48-1.98,5.48-5.42s-2.03-5.48-5.48-5.48h-2.16v10.9Z" fill="#723730"/>
      <path d="M314.77,185.68h-6.92v3.79h6.12V193h-6.12v4.11h6.92v3.66H303.28V182.01h11.49v3.67Z" fill="#723730"/>
      <path d="M325.4,182.02c4.6,0,6.89,2.65,6.89,5.9a5.449,5.449,0,0,1-4.17,5.42l4.33,7.43h-5.16l-3.9-7.08h-1.1v7.08h-4.57V182.01h7.67Zm-.27,3.79H322.3v4.65h2.83c1.71,0,2.51-.88,2.51-2.35,0-1.39-.8-2.3-2.51-2.3Z" fill="#723730"/>
    </g>
    <g>
      <path d="M146.09,84.96a9.605,9.605,0,1,1,9.59-9.62A9.438,9.438,0,0,1,146.09,84.96Zm0-4.17c2.99,0,4.94-2.16,4.94-5.45s-1.95-5.45-4.94-5.45-4.97,2.11-4.97,5.45S143.04,80.79,146.09,80.79Z" fill="#723730"/>
      <path d="M158.21,66.02h5.4l5.26,12.99,5.21-12.99h5.37V84.78h-4.57V73.53l-4.19,11.25H167l-4.22-11.27V84.78h-4.57V66.02Z" fill="#723730"/>
      <path d="M197.05,65.8c4.46,0,7.83,2.51,8.9,6.57h-5.02a4.129,4.129,0,0,0-3.93-2.4c-2.81,0-4.73,2.08-4.73,5.4s1.92,5.4,4.73,5.4a4.138,4.138,0,0,0,3.93-2.4h5.02c-1.07,4.06-4.44,6.55-8.9,6.55-5.53,0-9.43-3.93-9.43-9.54s3.9-9.56,9.43-9.56Z" fill="#723730"/>
      <path d="M208.75,66.02h4.57V84.78h-4.57Z" fill="#723730"/>
      <path d="M233.49,75.39c0,5.56-3.85,9.38-9.83,9.38h-7.03V66.01h7.03C229.64,66.01,233.49,69.8,233.49,75.39Zm-10.13,5.42c3.45,0,5.48-1.98,5.48-5.42s-2.03-5.48-5.48-5.48H221.2v10.9Z" fill="#723730"/>
      <path d="M247.54,69.68h-6.92v3.79h6.12V77h-6.12v4.11h6.92v3.66H236.05V66.01h11.49v3.67Z" fill="#723730"/>
      <path d="M258.17,66.02c4.6,0,6.89,2.65,6.89,5.9a5.449,5.449,0,0,1-4.17,5.42l4.33,7.43h-5.16l-3.9-7.08h-1.1v7.08h-4.57V66.01h7.67Zm-.27,3.79h-2.83v4.65h2.83c1.71,0,2.51-.88,2.51-2.35C260.41,70.72,259.61,69.81,257.9,69.81Z" fill="#723730"/>
    </g>
    <circle cx="56.69" cy="150" r="3" fill="#c4804e"/>
    <circle cx="59.69" cy="115" r="3" fill="#c4804e"/>
    <circle cx="65.69" cy="30" r="3" fill="#c4804e"/>
    <circle cx="329.69" cy="50" r="3" fill="#c4804e"/>
    <circle cx="332.69" cy="109" r="3" fill="#c4804e"/>
    <circle cx="59.69" cy="230" r="3" fill="#c4804e"/>
    <circle cx="308.69" cy="150" r="3" fill="#c4804e"/>
    <circle cx="345.69" cy="220" r="3" fill="#c4804e"/>
    <circle cx="335.69" cy="273" r="3" fill="#c4804e"/>
    <circle cx="332.69" cy="348" r="3" fill="#c4804e"/>
    <circle cx="59.69" cy="351" r="3" fill="#c4804e"/>
    <circle cx="85.69" cy="270" r="3" fill="#c4804e"/>
  </g>
</svg>
