<svg xmlns="http://www.w3.org/2000/svg" width="680" height="680" viewBox="0 0 680 680">
  <g>
    <polygon points="325.022 209.181 318.396 203.165 318.395 203.165 325.022 209.181 325.022 209.181" fill="none"/>
    <polygon points="607.881 351.409 607.881 351.41 614.379 348.737 638.695 338.783 614.378 348.737 607.881 351.409" fill="none"/>
    <polygon points="666.564 417.976 665.995 419.114 666.567 417.973 666.564 417.976" fill="none"/>
    <path d="M186.656,475.924l-4.126,4.247L113.01,341.192l70.409-47.361,82.7-55.549-82.7,55.548-5.46-6.657,34.056-51.179a336.862,336.862,0,0,0-99,67.624C43.993,371.253.594,469.268.594,578.321A400.4,400.4,0,0,0,13.609,680H163.873l48.94-112.143Z" fill="#feb31c"/>
    <polygon points="541.62 506.483 588.876 503.689 541.621 506.482 541.62 506.483" fill="#feb31c"/>
    <polygon points="493.497 326.419 493.497 326.419 549.866 297.524 493.497 326.419" fill="#feb31c"/>
    <rect x="328.235" y="370.627" width="0.001" height="199.751" transform="translate(-223.851 314.584) rotate(-39.329)" fill="#feb31c"/>
    <polygon points="300.429 332.189 300.428 332.189 264.938 393.246 300.429 332.189" fill="#feb31c"/>
    <polygon points="491.719 310.252 546.741 285.26 546.74 285.259 491.719 310.252 491.719 310.252" fill="#feb31c"/>
    <polygon points="586.884 360.045 607.881 351.41 607.881 351.409 586.884 360.045" fill="#feb31c"/>
    <polygon points="455.976 241.65 449.017 228.294 449.016 228.294 455.975 241.65 455.976 241.65" fill="#feb31c"/>
    <polygon points="426.145 340.403 451.087 332.189 452.882 331.597 451.086 332.189 426.145 340.403" fill="#feb31c"/>
    <path d="M679.01,560.427A395.787,395.787,0,0,0,655.3,441.314l-62.892,130.6L480.29,628.6,471.305,680H666.391a398.808,398.808,0,0,0,12.619-83.785q.39-8.9.4-17.894T679.01,560.427Z" fill="#feb31c"/>
    <polygon points="458.006 329.906 458.007 329.906 325.022 209.181 325.022 209.181 458.006 329.906" fill="#feb31c"/>
    <polygon points="300.428 332.189 308.047 319.128 330.395 332.189 373.885 357.613 426.145 340.403 451.086 332.189 452.882 331.597 458.006 329.906 325.022 209.181 318.395 203.165 307.473 210.502 266.115 238.282 183.419 293.831 113.01 341.192 182.53 480.171 186.656 475.924 186.656 475.923 262.461 397.494 264.937 393.246 264.938 393.247 264.938 393.246 300.428 332.189" fill="#2e2d26"/>
    <polygon points="467.16 235.634 580.921 174.443 580.921 174.444 590 169.562 560.351 88.533 552.669 93.986 425.946 184.017 449.017 228.294 455.976 241.65 467.16 235.634" fill="#698b7a"/>
    <polygon points="477.819 240.56 460.547 250.273 491.719 310.252 546.74 285.259 609.807 256.613 620.092 251.921 592.411 176.155 583.333 181.227 583.333 181.227 477.819 240.56" fill="#2e2d26"/>
    <polygon points="556.765 293.988 549.866 297.524 493.497 326.419 495.973 332.189 520.035 387.539 586.884 360.045 607.881 351.409 614.378 348.737 638.695 338.783 638.695 338.72 650.122 334.028 623.076 259.974 612.856 265.236 612.856 265.236 556.765 293.988" fill="#f0bd7e"/>
    <polygon points="616.316 363.709 531.59 409.984 565.049 465.905 649.625 426.75 665.297 419.494 665.3 419.491 665.359 419.431 666.566 417.973 666.564 417.976 666.567 417.973 665.995 419.114 679.01 413.091 653.552 343.411 642.441 349.434 622.95 360.086 616.316 363.709" fill="#646d59"/>
    <polygon points="665.994 419.114 665.994 419.115 665.995 419.114 666.564 417.976 665.994 419.114" fill="#646d59"/>
    <polygon points="183.419 293.83 266.115 238.282 307.473 210.502 318.395 203.165 318.396 203.165 325.022 209.181 458.007 329.906 458.006 329.906 452.882 331.597 451.087 332.189 426.145 340.403 373.885 357.613 330.395 332.189 308.047 319.128 300.428 332.189 300.429 332.189 264.938 393.246 391.535 547.758 513.431 535.648 541.62 506.483 541.62 506.483 541.621 506.482 588.876 503.689 592.03 503.503 652.572 434.085 665.296 419.495 665.297 419.494 665.297 419.494 649.625 426.75 565.049 465.905 531.59 409.984 616.316 363.709 622.95 360.086 642.441 349.434 638.695 338.783 614.379 348.737 607.881 351.41 586.884 360.045 520.035 387.539 495.973 332.189 493.497 326.419 493.497 326.419 549.866 297.524 556.765 293.988 612.856 265.236 612.856 265.236 609.808 256.613 546.741 285.26 491.719 310.252 491.719 310.252 460.547 250.273 477.819 240.56 583.333 181.227 583.333 181.227 580.921 174.444 580.921 174.443 467.16 235.634 455.976 241.65 455.975 241.65 449.016 228.294 425.945 184.017 552.668 93.986 547.716 79.974 406.645 97.029 372.425 164.426 368.297 164.426 353.758 164.426 295.286 164.426 256.558 169.054 212.015 235.994 177.959 287.173 183.419 293.83" fill="#d1541d"/>
    <polygon points="359.408 62.665 322.903 56.578 343.092 126.955 344.425 131.774 353.758 164.426 368.297 164.426 359.408 62.665" fill="#2e2d26"/>
    <path d="M252.368,146.166c1.714.38,3.492.761,5.27,1.078a88.269,88.269,0,0,0,26.411.7,83.471,83.471,0,0,0,44.061-19.148c.444-.317.825-.76,1.27-1.077-.508-1.015-1.08-1.966-1.651-2.98a85.715,85.715,0,0,0-58.981-40.071c-27.109-4.818-53.267,3.17-71.742,19.528A85.152,85.152,0,0,0,252.368,146.166Z" fill="#b3a658"/>
    <polygon points="592.411 571.914 655.303 441.314 665.994 419.115 665.994 419.114 666.564 417.976 666.566 417.973 665.359 419.431 665.3 419.491 665.297 419.494 665.297 419.494 665.296 419.495 652.572 434.085 592.03 503.503 588.876 503.689 541.62 506.483 541.62 506.483 513.431 535.648 391.535 547.758 391.533 547.758 264.938 393.247 264.937 393.246 262.461 397.494 186.656 475.923 186.656 475.924 212.813 567.857 163.873 680 471.305 680 480.29 628.596 592.411 571.914" fill="#4f7359"/>
  </g>
</svg>
