<svg width="100" height="100" viewBox="0 0 100 100" fill="none" xmlns="http://www.w3.org/2000/svg">
<path d="M36.1328 48.75C39.3485 55.3907 44.7183 60.7466 51.3672 63.9453C51.8576 64.1775 52.4001 64.278 52.9412 64.2369C53.4823 64.1958 54.0034 64.0145 54.4531 63.7109L64.2187 57.1875C64.6502 56.8948 65.1488 56.7163 65.6679 56.6685C66.1871 56.6206 66.7098 56.7051 67.1875 56.914L85.4688 64.7656C86.0936 65.0256 86.6155 65.4839 86.9543 66.0697C87.2932 66.6556 87.43 67.3365 87.3438 68.0078C86.7643 72.5302 84.5569 76.6865 81.1345 79.6991C77.7122 82.7116 73.3094 84.3739 68.75 84.375C54.6604 84.375 41.1478 78.7779 31.185 68.815C21.2221 58.8521 15.625 45.3396 15.625 31.25C15.626 26.6906 17.2883 22.2878 20.3009 18.8654C23.3134 15.4431 27.4698 13.2356 31.9922 12.6562C32.6634 12.57 33.3444 12.7068 33.9303 13.0456C34.5161 13.3844 34.9743 13.9064 35.2344 14.5312L43.0859 32.8515C43.2901 33.3216 43.3755 33.8348 43.3347 34.3457C43.2938 34.8566 43.1279 35.3496 42.8516 35.7812L36.3281 45.7031C36.0377 46.1519 35.8672 46.6676 35.833 47.2011C35.7989 47.7345 35.9021 48.2678 36.1328 48.75V48.75Z" stroke="#4F7359" stroke-width="2" stroke-linecap="round" stroke-linejoin="round"/>
</svg>
