<?xml version="1.0" encoding="UTF-8"?><svg id="Layer_1" xmlns="http://www.w3.org/2000/svg" width="462.69" height="733.69" viewBox="0 0 462.69 733.69"><defs><style>.cls-1{fill:#d8bf87;}.cls-2{fill:#4f7359;}</style></defs><path class="cls-2" d="M211.97,369.16c0,83.85-.09,167.7,.07,251.54,.03,14.41-1.13,28.49-6.05,42.15-17.69,49.17-65.29,74.97-109.42,70.29-54.66-5.8-91.29-47.12-96.18-97.36-.55-5.67-.37-11.42-.37-17.14C.01,450.95,.02,283.26,0,115.56c0-12.4,.47-24.62,3.95-36.76C15.48,38.59,42.08,14.06,81.61,2.51c74.85-15.11,128.07,40.62,130.21,97.96,.28,7.61,.15,15.24,.15,22.86,0,81.94,0,163.88,0,245.83ZM22.1,589.76c-.09,0-.17,0-.26,0,0,13.35-.35,26.72,.14,40.06,.28,7.56,.94,15.37,3.12,22.55,10.02,33.05,40.16,57.11,73.21,59.24,38.46,2.48,69.81-16.08,85.38-49.92,5.35-11.63,6.86-23.81,7.02-36.2,.32-24.8,.09-49.6,.05-74.4,0-1.89-.37-3.79-.56-5.68-.23-2.27-3.32-5.61-5.47-5.66-8.58-.19-17.16-.22-25.74-.48-3.79-.11-7.58-.53-11.35-.97-2.61-.3-6.27-5.11-6.66-8.47-.4-3.46,2.04-8.35,5.05-9.53,2.6-1.02,5.33-2.24,8.05-2.37,10.47-.5,20.96-.58,31.44-.87,1.83-.05,4.69-3.82,4.86-6.17,1.27-17.91-.9-17.4-13.71-18.37-2.71-.21-5.39-1.65-7.95-2.8-2.69-1.21-5.33-6.85-4.13-9.83,1-2.48,2.8-5.71,4.96-6.43,5.31-1.76,11.09-2.04,16.57-3.4,1.56-.39,3.74-2.32,3.88-3.72,1.52-15.76,2.05-20.82-13.64-20.72-7.63,.05-15.27,.01-22.87-.43-2.75-.16-5.44-1.55-8.12-2.48-2.29-.79-5.37-7.27-4.15-9.87,1.13-2.43,2.91-5.31,5.16-6.3,3.32-1.47,7.29-1.8,11.01-2,9.48-.5,18.98-.52,28.45-1.12,1.37-.09,3.37-2.1,3.78-3.58,1.52-5.53,2.23-11.28-.34-16.72-2.48-5.27-7.69-4.54-12.29-5.15-2.81-.37-5.74-.75-8.3-1.87-1.53-.67-2.81-2.61-3.56-4.27-2.48-5.49,.93-12,6.87-13.1,4.62-.85,9.39-.98,13.95-2.04,1.45-.34,3.29-2.48,3.52-4.01,.7-4.64,.91-9.39,.89-14.1-.02-3.57-3.93-6.94-7.61-6.99-9.54-.13-19.08-.07-28.61-.37-2.76-.09-5.54-1.01-8.23-1.8-3.19-.94-4.19-3.95-4.67-6.62-.87-4.84,2.94-10.32,7.23-10.64,7.58-.56,15.19-.74,22.79-1.16,4.74-.26,9.52-.4,14.19-1.18,1.49-.25,3.47-2.15,3.84-3.64,.91-3.62,1.32-7.44,1.39-11.19,.11-5.99-2.45-9.15-7.62-9.86-3.77-.52-7.58-.72-11.35-1.23-3.02-.41-6.96-4.95-7.31-7.96-.52-4.56,2.75-9.8,7.29-10.9,4.61-1.11,9.37-1.58,13.97-2.7,3.03-.73,4.53-3.35,4.72-6.25,.24-3.78,0-7.59-.14-11.39-.09-2.32-3.18-5.86-5.13-5.91-8.58-.2-17.16-.24-25.74-.53-3.78-.12-7.57-.58-11.33-1.07-2.7-.34-6.39-4.92-6.95-8.3-.72-4.34,3.06-10.57,6.93-11.24,2.8-.48,5.63-1,8.45-1.08,9.53-.26,19.08-.19,28.6-.59,1.63-.07,4.49-1.72,4.57-2.81,.42-5.58,.86-11.36-.17-16.79-.8-4.19-5.52-4.39-9.31-4.85-2.83-.34-5.68-.7-8.42-1.42-4.48-1.18-7.84-6.39-7.35-10.91,.31-2.87,4.26-7.79,7-8.2,4.7-.7,9.51-.85,14.16-1.77,1.55-.31,3.86-2.19,3.96-3.5,.43-5.59,.43-11.25-.02-16.84-.11-1.4-2.25-3.43-3.78-3.78-3.67-.84-7.53-1-11.32-1.19-8.55-.42-17.12-.56-25.67-1.09-4.39-.27-7.86-5.37-7.58-10.44,.16-2.96,4.27-7.92,6.98-8.02,11.43-.42,22.86-.69,34.29-1.05,3.94-.12,7.46-3.2,7.74-6.74,1.24-15.24,1.44-30.49-.96-45.62-.89-5.58-2.55-11.11-4.51-16.42-13.67-37.04-57.4-64.54-105.71-49.21-30.7,9.74-54.65,39.85-56.68,72.2-.84,13.27,.04,26.65,.21,39.99,.03,2.37,3.22,5.59,5.46,5.64,8.58,.19,17.16,.21,25.74,.46,3.8,.11,7.59,.53,11.37,.95,2.63,.3,6.41,5.27,6.61,8.45,.21,3.37-2.91,8.52-5.8,9.01-4.64,.78-9.32,1.51-14.01,1.8-8.55,.53-17.13,.56-25.66,1.23-1.31,.1-3.2,2.4-3.48,3.94-.7,3.7-.83,7.56-.78,11.35,.1,6.82,1.82,8.87,7.66,9.55,3.78,.44,7.65,.33,11.35,1.1,4.08,.85,6.09,4.37,7.25,7.96,1.13,3.53-3.21,10.16-7.17,11.08-4.6,1.07-9.37,1.4-13.96,2.51-1.55,.37-3.81,2.02-3.94,3.28-.59,5.61-.78,11.29-.49,16.92,.06,1.18,2.65,2.99,4.22,3.18,4.72,.55,9.51,.48,14.28,.58,6.67,.14,13.36,.09,20.02,.37,5.5,.23,11.14,6.58,10.46,11.41-.61,4.37-5.2,9.16-9.26,9.43-4.75,.31-9.51,.47-14.27,.59-6.67,.18-13.36,.06-20.01,.48-2.84,.18-5.52,1.81-5.69,5.09-.23,4.71-.24,9.48,.23,14.16,.14,1.46,1.9,3.55,3.31,3.95,5.42,1.53,11.04,2.32,16.5,3.75,3.09,.81,5.9,5.73,5.78,9.11-.1,2.97-3.63,8.41-6.13,8.8-4.69,.72-9.43,1.21-14.16,1.58-3.42,.27-5.35,2.6-5.56,5.3-1.66,21.36,.19,20.18,16.86,20.46,6.68,.11,13.37-.12,20.03,.27,2.74,.16,5.44,1.43,8.08,2.4,2.55,.94,5.34,7.1,4.02,9.74-1.23,2.47-3,5.75-5.22,6.41-4.46,1.33-9.38,1.28-14.12,1.52-8.52,.44-17.05,.52-25.55,1.18-1.33,.1-3.37,2.32-3.56,3.77-.63,4.66-.8,9.43-.68,14.14,.1,4.06,2.9,6.56,7.23,7.24,4.64,.73,9.51,.82,13.83,2.41,2.15,.79,3.71,4.11,4.79,6.61,1.06,2.45-2.53,9.06-4.81,9.55-5.54,1.19-11.18,1.98-16.65,3.4-1.46,.38-3.36,2.31-3.57,3.75-.67,4.64-.85,9.38-.84,14.08,0,3.83,3.33,6.66,7.4,6.78,11.43,.34,22.86,.62,34.28,1.01,2.2,.07,7.26,5.09,7.92,7.57,.89,3.31-3.57,10.71-7.03,11.31-3.73,.65-7.51,1.26-11.29,1.42-8.57,.36-17.16,.31-25.72,.7-3.14,.14-5.13,2.58-5.36,5.49-.36,4.71-.31,9.49,.13,14.18,.14,1.43,1.94,3.57,3.31,3.87,4.62,1,9.4,1.2,14.09,1.94,4.32,.68,8.34,5.88,8.15,10.18-.19,4.53-4,9.22-8.55,10.03-3.73,.66-7.57,.72-11.32,1.29-4.29,.65-6,2.9-6.21,7.95-.12,2.85-.12,5.72,0,8.57,.2,4.7,2.57,7.45,6.54,7.56,10.48,.28,20.98,.35,31.46,.73,5.97,.21,11.18,5.14,11.62,10.51,.4,4.88-5.22,10.36-11.08,10.51-10.49,.28-20.98,.35-31.46,.56-3.8,.08-6.92,3.23-6.94,7.23-.07,14.3-.03,28.6-.03,42.91Z"/><path class="cls-2" d="M393.61,339.17c0,76.29,0,152.58,0,228.86,0,5.72-.05,11.45,.15,17.16,.17,4.9,1.43,9.06,6.66,11.38,4.3,1.91,8.57,4.34,12.14,7.37,15.27,12.98,20.72,29.78,15.55,48.86-4.76,17.56-17.86,31.7-41.29,34.45-24.35,2.86-48.32-16.85-50.44-40.43-1.78-19.84,4.56-35.55,21.61-46.43,2.39-1.53,4.85-3.11,7.49-4.06,5.53-2,6.4-6.45,6.47-11.33,.13-8.58,.11-17.16,.11-25.74,0-147.81,0-295.62,0-443.42,0-7.63-.07-15.26,.08-22.89,.06-2.84,.16-5.83,1.11-8.45,1.32-3.66,4.37-6.12,8.09-7.27,3.41-1.06,10.56,3.71,10.95,7.46,.68,6.61,1.24,13.26,1.25,19.9,.1,55.31,.06,110.62,.06,165.93,0,22.89,0,45.77,0,68.66Zm-9.92,326.54c13.98-.3,25.02-11.83,24.79-25.9-.23-13.76-12.01-25.6-25.46-25.59-14.72,0-28.17,13.89-26.36,27.68,1.78,13.56,11.83,24.66,27.03,23.8Z"/><path class="cls-2" d="M436.77,351.12c-6.64,0-13.29,.07-19.93-.03-3.37-.05-5.86-3.52-6.01-8.13-.06-1.89-.56-4.14,.26-5.61,1.28-2.29,3.43-5.69,5.34-5.77,12.31-.54,24.66-.42,36.99-.27,6.78,.08,9.54,3.7,9.19,11.27-.23,4.91-2.4,8.09-5.96,8.17-6.62,.14-13.25,.04-19.88,.04,0,.11,0,.22,0,.33Z"/><path class="cls-2" d="M436.88,424.2c6.53,.3,13.06,.54,19.58,.92,3.42,.2,6.13,3.7,6.14,7.82,0,1.85,.3,3.99-.5,5.48-1.23,2.29-3.21,5.81-5,5.89-13.96,.65-27.96,.62-41.94,.66-.62,0-1.25-1.3-1.87-2-2.99-3.3-3.52-12.73-.63-15.67,1.17-1.19,3.01-2.33,4.6-2.39,6.53-.27,13.07-.11,19.61-.11v-.6Z"/><path class="cls-2" d="M434.96,539.58c-6.57-.3-13.15-.39-19.68-1.06-1.37-.14-3.42-2.27-3.62-3.7-.5-3.64-.48-7.45,.02-11.1,.37-2.71,1.89-5.51,5.21-5.56,12.21-.17,24.44-.43,36.64-.06,7.4,.23,9.03,3.79,9.06,11.5,.02,5.73-2.8,9.18-7.9,9.3-6.57,.16-13.15,.04-19.73,.04,0,.21,0,.42-.01,.62Z"/><path class="cls-2" d="M437.81,236.58c4.71,0,9.42-.1,14.13,.02,8.07,.21,11.17,4.07,10.7,12.83-.2,3.83-3.33,8.08-6.35,8.15-12.23,.26-24.46,.52-36.69,.61-5.39,.04-8.5-3.04-8.7-8.6-.1-2.78,.15-5.69,.92-8.35,.46-1.58,2.18-3.9,3.42-3.96,7.51-.37,15.04-.18,22.57-.18,0-.18,0-.35,0-.53Z"/><path class="cls-2" d="M436.92,143.31c6.62,.31,13.25,.57,19.87,.96,3.42,.2,5.86,3.77,5.82,8.22,0,.95,.04,1.9-.03,2.85-.3,4.23-3.08,7.78-6.56,7.88-11.37,.3-22.74,.56-34.12,.59-9.07,.02-11.5-2.78-11.1-12.04,.21-4.9,2.37-7.76,6.19-7.82,6.64-.1,13.27-.03,19.91-.03,0-.2,0-.41,.01-.61Z"/><path class="cls-2" d="M422.34,397.91c-1.89,0-3.81,.24-5.65-.05-2.99-.48-5.2-2.19-5.53-5.38-.28-2.79-.42-5.65-.17-8.43,.27-3.02,2.26-5.53,5.16-5.71,5.62-.36,11.3-.08,16.94,.21,3.94,.2,6.06,3.02,6.32,7.75,.05,.94,.07,1.89,.05,2.83-.1,4.53-2.42,7.81-5.85,8.32-.93,.14-1.85,.5-2.78,.53-2.83,.07-5.66,.03-8.49,.03v-.09Z"/><path class="cls-2" d="M427.28,492.64c-4.98,0-6.84,.07-8.69-.01-4.87-.22-7.53-3.41-7.75-9.43-.07-1.84,.08-3.72,.39-5.53,.48-2.77,1.41-5.7,4.66-5.92,5.52-.37,11.09-.37,16.62-.11,1.62,.08,3.42,1.3,4.69,2.47,3.15,2.9,3.11,12.21-.09,15.4-1.23,1.22-2.98,2.25-4.66,2.62-2.69,.59-5.51,.55-5.17,.52Z"/><path class="cls-2" d="M419.84,304.56c.33,.04-2.5-.21-5.28-.75-.75-.15-1.4-1.09-2-1.75-2.71-2.99-2.32-13.6,.77-16.03,1.38-1.08,3.2-2.02,4.9-2.17,3.77-.33,7.59-.3,11.38-.1,6.83,.37,9.63,3.68,9.79,11.18,.12,5.72-2.72,9.27-7.87,9.58-2.83,.17-5.68,.03-11.69,.03Z"/><path class="cls-2" d="M423.98,211.39c-1.85,0-3.7,.08-5.55-.02-4.2-.22-6.67-2.47-7.15-6.87-.3-2.72-.42-5.53-.06-8.23,.36-2.74,1.51-5.59,4.89-5.61,6.41-.04,12.85,.1,19.23,.68,1.27,.12,2.45,2.46,3.43,3.94,.47,.71,.46,1.78,.54,2.69,.76,8.67-2.37,12.98-9.8,13.42-1.84,.11-3.7,.02-5.55,.02v-.02Z"/><path class="cls-1" d="M115.91,338.9c0,73.35,0,146.69,0,220.04,0,7.62,.16,15.24,0,22.86-.15,7.01,1.03,13.15,7.7,17.15,2.39,1.44,4.43,3.62,6.29,5.76,9.1,10.48,10.15,22.47,4.79,34.66-5.03,11.44-15.01,17.47-27.16,17.98-12.11,.51-22.16-4.7-28.58-15.56-6.39-10.81-6.39-21.67,.11-32.41,1.46-2.41,3.02-5.42,5.32-6.57,12.84-6.4,11.95-17.93,11.95-29.45-.06-128.59-.04-257.19-.03-385.78,0-29.53-.05-59.06,.07-88.59,.02-4.72,.71-9.45,1.24-14.16,.28-2.44,5.8-6.81,8.41-6.91,2.56-.1,8.15,4.19,8.43,6.78,.61,5.65,1.37,11.33,1.4,16.99,.14,31.43,.07,62.87,.07,94.3,0,47.63,0,95.25,0,142.88Zm1.11,287.34c.34-5.25-4.36-11-9.53-11.64-5.69-.71-10.83,3.21-11.83,9.01-1.15,6.68,4.08,13.1,10.6,13.01,5.33-.07,10.41-4.97,10.76-10.38Z"/></svg>