<svg width="125" height="47" viewBox="0 0 125 47" fill="none" xmlns="http://www.w3.org/2000/svg">
<rect width="125" height="47" fill="#B8A1DF"/>
<path d="M41.4062 17.625V29H38.6641V17.625H41.4062ZM44.8281 17.625V19.7422H35.3203V17.625H44.8281ZM48.9062 17.625V29H46.1719V17.625H48.9062ZM58.3516 26.8906V29H52.6016V26.8906H58.3516ZM53.5781 17.625V29H50.8359V17.625H53.5781ZM64.1484 24.1641H61.2188L61.2031 22.3672H63.5781C64.0052 22.3672 64.3464 22.3203 64.6016 22.2266C64.8568 22.1276 65.0417 21.9844 65.1562 21.7969C65.276 21.6094 65.3359 21.375 65.3359 21.0938C65.3359 20.7708 65.276 20.5104 65.1562 20.3125C65.0365 20.1146 64.8464 19.9714 64.5859 19.8828C64.3307 19.7891 64 19.7422 63.5938 19.7422H62.25V29H59.5078V17.625H63.5938C64.2969 17.625 64.9245 17.6901 65.4766 17.8203C66.0286 17.9453 66.4974 18.138 66.8828 18.3984C67.2734 18.6589 67.5703 18.987 67.7734 19.3828C67.9766 19.7734 68.0781 20.2344 68.0781 20.7656C68.0781 21.2292 67.9792 21.6641 67.7812 22.0703C67.5833 22.4766 67.2526 22.8073 66.7891 23.0625C66.3307 23.3125 65.7031 23.4427 64.9062 23.4531L64.1484 24.1641ZM64.0391 29H60.5547L61.4922 26.8906H64.0391C64.4141 26.8906 64.7135 26.8333 64.9375 26.7188C65.1667 26.599 65.3307 26.4427 65.4297 26.25C65.5339 26.0521 65.5859 25.8333 65.5859 25.5938C65.5859 25.3021 65.5365 25.0495 65.4375 24.8359C65.3438 24.6224 65.1927 24.4583 64.9844 24.3438C64.776 24.224 64.4974 24.1641 64.1484 24.1641H61.8438L61.8594 22.3672H64.6172L65.2578 23.0859C66.0182 23.0547 66.6198 23.1615 67.0625 23.4062C67.5104 23.651 67.8307 23.974 68.0234 24.375C68.2161 24.776 68.3125 25.1953 68.3125 25.6328C68.3125 26.3776 68.151 27 67.8281 27.5C67.5104 28 67.0339 28.375 66.3984 28.625C65.763 28.875 64.9766 29 64.0391 29ZM76.0078 17.625H78.75V25.0547C78.75 25.9401 78.5651 26.6901 78.1953 27.3047C77.8255 27.9141 77.3073 28.375 76.6406 28.6875C75.974 29 75.1901 29.1562 74.2891 29.1562C73.3984 29.1562 72.6146 29 71.9375 28.6875C71.2656 28.375 70.7396 27.9141 70.3594 27.3047C69.9844 26.6901 69.7969 25.9401 69.7969 25.0547V17.625H72.5469V25.0547C72.5469 25.5234 72.6146 25.9062 72.75 26.2031C72.8854 26.4948 73.0833 26.7083 73.3438 26.8438C73.6042 26.9792 73.9193 27.0469 74.2891 27.0469C74.6641 27.0469 74.9792 26.9792 75.2344 26.8438C75.4896 26.7083 75.6823 26.4948 75.8125 26.2031C75.9427 25.9062 76.0078 25.5234 76.0078 25.0547V17.625ZM84.1719 29H81.6484L81.6641 26.8906H84.1719C84.6927 26.8906 85.1328 26.7656 85.4922 26.5156C85.8568 26.2656 86.1328 25.8932 86.3203 25.3984C86.513 24.8984 86.6094 24.2839 86.6094 23.5547V23.0625C86.6094 22.5156 86.5547 22.0365 86.4453 21.625C86.3411 21.2083 86.1849 20.862 85.9766 20.5859C85.7682 20.3047 85.5078 20.0938 85.1953 19.9531C84.888 19.8125 84.5339 19.7422 84.1328 19.7422H81.6016V17.625H84.1328C84.9036 17.625 85.6094 17.7578 86.25 18.0234C86.8958 18.2839 87.4531 18.6589 87.9219 19.1484C88.3958 19.6328 88.7604 20.2083 89.0156 20.875C89.276 21.5365 89.4062 22.2708 89.4062 23.0781V23.5547C89.4062 24.3568 89.276 25.0911 89.0156 25.7578C88.7604 26.4245 88.3984 27 87.9297 27.4844C87.4609 27.9688 86.9062 28.3438 86.2656 28.6094C85.6302 28.8698 84.9323 29 84.1719 29ZM83.2188 17.625V29H80.4766V17.625H83.2188Z" fill="white"/>
</svg>
