<?xml version="1.0" encoding="UTF-8"?><svg id="Layer_1" xmlns="http://www.w3.org/2000/svg" width="733.76" height="577.46" viewBox="0 0 733.76 577.46"><defs><style>.cls-1{fill:#d8bf87;}.cls-2{fill:#4f7359;}</style></defs><path class="cls-2" d="M392.89,38.61c47.71,0,95.42,0,143.13,.01,6.68,0,13.38-.19,20.03,.3,15.53,1.15,28.48,12.77,31.78,28.41,.78,3.7,.19,7.69,1.06,11.35,.61,2.57,2.1,5.45,4.1,7.06,4.43,3.56,9.37,6.51,14.22,9.51,17.83,11.04,35.67,22.06,53.57,32.98,15.23,9.29,25.7,22.33,32.04,38.99,2.41,6.33,4.25,12.66,4.48,19.39,.29,8.58,.48,17.17,.49,25.75,.04,65.83,.02,131.66,.03,197.49,0,7.63-.2,15.29,.41,22.88,.19,2.43,2.11,5.78,4.19,6.85,19.85,10.2,21.29,27.6,18.61,46.58-.52,3.68-1.44,8.05-3.8,10.59-7.53,8.08-2.86,13.61,2.88,19.32,2.7,2.69,5.26,5.52,8.05,8.12,3.73,3.48,5.16,7.91,5.44,12.77,.22,3.81,.19,7.63,.13,11.45-.47,32.54,4.35,28.88-28.82,28.92-83.02,.1-166.03,.03-249.05,.03-6.68,0-13.36,.03-20.04-.1-6.69-.12-9.2-2.22-9.28-7.9-.15-9.54,.25-19.1-.29-28.61-.47-8.35,2.49-14.62,8.52-20.17,4.15-3.82,7.48-8.53,11.19-12.83,1.57-1.82,1.33-3.32-.13-5.11-6.32-7.77-7.86-16.85-8.28-26.7-.68-15.78,3.92-28.09,18.76-35.35,3.72-1.82,5.52-4.83,5.48-9.09-.09-8.59,.06-17.17,.06-25.76,.01-66.79,0-133.57,.03-200.36,0-11.42-.11-22.74,3.72-33.91,6.09-17.81,16.07-32.3,32.12-42.36,11.31-7.09,22.64-14.14,33.98-21.16,10.54-6.52,21.17-12.89,31.65-19.5,6.84-4.31,8.65-9.01,7.09-17.01-1.45-7.48-8.29-14.13-15.43-14.77-3.79-.34-7.62-.49-11.42-.5-100.19-.03-200.39-.03-300.58,0-4.76,0-9.56,.1-14.28,.64-9.68,1.1-17.04,14.74-13.29,24.49,.66,1.7,1.7,3.55,3.1,4.62,3.76,2.89,7.73,5.55,11.78,8.04,17.06,10.47,34.02,21.11,51.31,31.2,29.21,17.04,42.15,42.85,42.15,75.97,0,7.63,.01,15.27,.01,22.9,0,66.79,.08,133.57-.08,200.36-.02,8.04,.55,14.65,8.94,19.12,11.13,5.94,15.34,16.34,14.91,28.79-.27,7.59,.18,15.06-3.54,22.3-6.73,13.11-6.47,13.31,1.65,21.31,3.4,3.35,6.96,6.6,9.9,10.32,1.67,2.12,2.75,5.02,3.19,7.71,.62,3.73,.56,7.6,.5,11.41-.55,37.2,5.33,31.79-31.42,31.93-82.06,.31-164.13,.12-246.19,.05-8.55,0-17.1-.45-25.62-1.07-1.4-.1-3.76-2.13-3.8-3.33-.49-13.28-.83-26.57-.64-39.85,.04-2.48,2.26-5.24,4.09-7.33,5.02-5.73,10.49-11.07,15.48-16.82,.98-1.14,1.33-3.78,.71-5.16-1.55-3.45-4.1-6.43-5.75-9.84-5.24-10.84-4.99-22.15-1.94-33.47,2.07-7.71,6.66-13.91,13.84-17.41,8.25-4.01,10-10.49,9.57-18.86-.54-10.47-.26-20.98-.43-31.47-.05-2.79-4.3-7.22-7.4-7.81-1.86-.35-3.79-.47-5.69-.55-13.53-.53-20.87-7.84-23.09-20.88-.32-1.87-.32-4.07-1.34-5.49-1.6-2.24-3.73-4.02-7.04-3.85-13.22,.66-22.8,8.04-24.24,19.67-.82,6.59-.74,13.31-.75,19.97-.05,51.52,.02,103.04-.09,154.56-.02,7.59-.62,15.18-1.29,22.75-.28,3.19-3.14,4.54-5.87,5.32-3.4,.97-8.26-2.07-8.73-5.43-.66-4.68-1.53-9.39-1.53-14.08-.11-57.24-.09-114.49-.04-171.73,0-4.75,.05-9.58,.82-14.25,2.96-17.87,13.74-28.93,30.97-33.58,4.52-1.22,9.51-.66,14.19-1.45,1.49-.25,3.11-2.02,3.91-3.5,.86-1.6,.82-3.69,1.16-5.56,2.33-12.98,9.51-20.36,23.25-20.57,2.73-.04,5.61-.69,8.12-1.75,1.52-.64,3.16-2.47,3.54-4.05,.88-3.64,1.39-7.46,1.41-11.2,.12-25.76,.04-51.52,.1-77.28,.02-7.63,0-15.28,.49-22.88,1.67-25.48,13.4-45.29,34.41-59.64,4.72-3.22,9.66-6.12,14.53-9.13,15.41-9.52,30.56-19.49,46.34-28.34,9.22-5.17,13.87-11.56,14.17-22.38,.35-12.48,7.79-21.26,18.75-26.67,4.17-2.05,8.92-3.45,13.53-3.94,6.61-.7,13.34-.34,20.02-.34,47.71-.02,95.42,0,143.13,0ZM107.27,314.6c-.2,36.23-.44,72.47-.55,108.7,0,2.8,.3,5.9,1.52,8.33,1.16,2.3,3.4,4.78,5.72,5.58,3.5,1.22,7.48,1.41,11.26,1.42,53.43,.08,106.87,.08,160.3,.01,3.78,0,7.57-.66,11.33-1.16,3.21-.43,7.31-4.3,7.94-7.39,.57-2.79,1.48-5.6,1.47-8.39-.1-36.24-.33-72.47-.53-108.71,.15-38.09,.5-76.17,.38-114.26-.08-24.62-9.97-44.1-31.56-57.1-20.38-12.27-40.65-24.72-60.81-37.33-6.6-4.13-12.2-3.12-18.46,.84-19.3,12.2-38.84,24.03-58.27,36.01-2.43,1.5-4.93,2.9-7.2,4.61-14.46,10.89-22.87,25.21-24.09,43.44-.32,4.75-.44,9.51-.45,14.27-.03,32.38-.09,64.76,.08,97.14,.02,4.67,1.25,9.33,1.92,13.99Zm372.93-1.05c-.15,37.06-.34,74.12-.39,111.19,0,2.79,.62,5.72,1.64,8.31,.62,1.59,2.39,3.57,3.91,3.83,5.58,.96,11.26,1.75,16.91,1.77,51.34,.13,102.69,.07,154.03,.07,1.9,0,3.8,0,5.7-.06,14.4-.42,17.39-2.85,17.4-16.26,.02-36.11-.32-72.22-.51-108.33,.33-40.92,1.01-81.83,.86-122.75-.07-20.59-10.26-36.53-27.26-47.5-21.58-13.92-43.7-27-65.64-40.36-4.31-2.62-8.91-3.15-13.44-.37-21.9,13.42-43.98,26.57-65.63,40.39-18.11,11.56-27.89,28.75-28.09,50.12-.37,39.98,.29,79.97,.51,119.95Zm-277.04,246.3c38.98,0,77.97,.04,116.95-.04,5.66-.01,11.35-.36,16.97-1.02,1.39-.16,3.46-2.01,3.7-3.35,1.73-9.6,2.01-18.84-6.59-26.06-5.08-4.27-9.47-9.35-14.31-13.91-3.55-3.35-7.77-5.34-12.8-5.33-5.7,0-11.41-.09-17.11-.09-56.1,0-112.2-.09-168.3,.09-8.44,.03-17.68-2.69-25.15,1.84-7.16,4.34-12.69,11.28-19.22,16.75-8.24,6.9-9.8,15.68-8.36,25.67,.32,2.19,.9,3.72,3.25,3.96,5.62,.57,11.24,1.42,16.87,1.44,38.03,.13,76.07,.07,114.1,.07Zm375.89-.02v.02c38.11,0,76.23,.03,114.34-.03,5.69,0,11.39-.21,17.05-.76,1.51-.15,3.76-1.68,4.15-3.02,2.48-8.49,2.78-16.89-3.54-24.12-2.5-2.86-5.35-5.41-8.01-8.13-15.97-16.26-13.76-13.65-32.22-13.7-59.08-.16-118.16-.13-177.23-.03-26.36,.04-20.37-2.04-39.74,16.52-.69,.66-1.23,1.49-1.97,2.06-6.69,5.19-8.24,12.23-7.96,20.28,.31,9.21,1.69,10.86,12.23,10.88,40.97,.07,81.95,.03,122.92,.03Zm-377.67-67.45c32.31,0,64.62,.03,96.93-.02,6.65-.01,13.31-.07,19.93-.52,8.65-.59,11.45-6.78,11.58-13.53,.02-.95,.04-1.9,.08-2.85,.69-15.72-6.38-18.74-18.51-18.67-.95,0-1.9-.01-2.85,0-69.37,0-138.75-.01-208.12,.04-3.77,0-7.59,.32-11.29,.99-1.66,.3-3.42,1.55-4.57,2.87-5.9,6.75-6.57,19.17-1.14,26.4,1.55,2.06,4.36,4,6.84,4.38,5.6,.84,11.35,.87,17.04,.89,31.36,.07,62.72,.03,94.08,.04Zm378.35,0c30.5,0,61,.01,91.51-.01,6.67,0,13.35,0,20.01-.29,7.83-.35,12.44-4.86,12.58-12.47,.09-4.71-.35-9.46-.9-14.16-.37-3.17-4.72-7.42-7.57-7.73-3.77-.41-7.57-.89-11.35-.89-69.58-.05-139.17-.06-208.75,0-3.78,0-7.57,.51-11.34,.95-2.89,.33-6.99,4.62-7.63,7.72-1.35,6.61-1.9,13.32,.56,19.66,.89,2.3,3.56,4.96,5.85,5.47,5.51,1.21,11.28,1.65,16.94,1.68,33.36,.14,66.72,.07,100.08,.07ZM87.21,338.36c.12,.98-.32-4.61-1.4-10.07-.27-1.35-2.41-2.79-3.99-3.35-6.37-2.26-12.77,.96-12.89,6.5-.21,9.42-.16,18.84-.08,28.27,.02,2.98,4.24,6.3,8.06,6.69,5.14,.52,10.11-2.91,10.26-7.3,.16-4.71,.04-9.42,.04-20.73Z"/><path class="cls-2" d="M391.59,17.78c-36.14,0-72.29,0-108.43,0-3.85,0-7.43-.77-10.7-3.04-2.61-1.82-3.21-8.12-.55-9.93,2.29-1.55,4.69-3.53,7.26-3.95,4.65-.77,9.46-.66,14.21-.66,66.58-.03,133.16-.04,199.74,.02,5.63,0,11.62-1.23,16.67,2.11,2.1,1.39,3.9,3.97,4.7,6.39,1.12,3.38-2.47,7.9-6,8.17-5.67,.44-11.35,.89-17.03,.91-33.29,.08-66.58,.04-99.87,.04v-.06Z"/><path class="cls-1" d="M480.2,313.55c4.72,.26,9.44,.76,14.17,.76,61.51-.04,123.02-.16,184.53-.25,.19,36.12,.52,72.23,.5,108.34,0,13.4-3,15.84-17.4,16.26-1.9,.06-3.8,.06-5.7,.06-51.34,0-102.69,.05-154.03-.07-5.65-.01-11.33-.8-16.91-1.77-1.52-.26-3.29-2.24-3.91-3.83-1.01-2.6-1.64-5.53-1.64-8.31,.05-37.06,.24-74.13,.39-111.19Z"/><path class="cls-1" d="M107.27,314.6c55.79-.08,111.57-.09,167.36-.29,10.37-.04,20.75-.88,31.11-1.33,.19,36.25,.43,72.49,.53,108.73,0,2.8-.9,5.61-1.47,8.39-.64,3.1-4.73,6.97-7.94,7.39-3.76,.5-7.55,1.15-11.33,1.16-53.43,.07-106.87,.07-160.3-.01-3.78,0-7.76-.2-11.26-1.42-2.32-.81-4.56-3.29-5.72-5.58-1.22-2.43-1.53-5.53-1.52-8.33,.11-36.23,.34-72.47,.55-108.7Z"/><path class="cls-2" d="M495.76,206.57c0-5.69-.27-11.4,.05-17.07,.68-12.1,6.49-21.9,15.61-29.3,5.82-4.72,12.84-7.98,19.39-11.77,2.62-1.52,8,.49,9.91,3.46,1.88,2.94,1.1,8.24-1.65,10.35-3,2.3-5.9,4.82-9.18,6.63-12.04,6.65-17.44,16.61-16.97,30.38,.29,8.49-.53,17.03-1.16,25.52-.25,3.33-9.72,5.76-12.33,3.24-1.3-1.26-2.95-2.83-3.16-4.43-.71-5.63-.86-11.33-1.21-17l.7-.02Z"/><path class="cls-2" d="M120.34,211.27c0-7.32-.07-10.17,.01-13.01,.53-19.45,8.18-34.79,25.73-44.39,3.32-1.82,6.57-3.77,9.89-5.59,2.57-1.4,7.8,.38,9.87,3.55,1.61,2.46,2.2,4.95,.56,7.73-3.05,5.15-8.12,7.91-13.03,10.61-10.24,5.65-14.19,14.85-15.08,25.71-.54,6.59-.1,13.27-.33,19.89-.1,2.79-.62,5.61-1.3,8.33-.77,3.06-3.31,4.33-6.14,5.07-3.14,.82-8.49-2.52-8.86-5.47-.71-5.61-1.2-11.24-1.32-12.42Z"/></svg>