<?xml version="1.0" encoding="UTF-8"?><svg id="Layer_1" xmlns="http://www.w3.org/2000/svg" width="568.93" height="733.52" viewBox="0 0 568.93 733.52"><defs><style>.cls-1{fill:#d8bf87;}.cls-2{fill:#4f7359;}</style></defs><path class="cls-2" d="M282.14,733.52c-66.75,0-133.51,.02-200.26-.03-8.58,0-17.2,.14-25.72-.68-16.13-1.55-29.83-15.9-31.4-32.25-.36-3.79-.18-7.62-.39-11.43-.61-11.02,1.93-21.47,10.22-28.67,8.84-7.67,8.17-15.96,5.76-25.69-6.62-26.8-13.31-53.6-19.16-80.58C4.33,476.51-3.34,398.02,1.37,318.46c2.2-37.19,7.67-73.93,14.43-110.47,6.93-37.45,15.22-74.64,25.2-111.42,2.1-7.72,2.86-15.06-4.89-20.51-1.51-1.06-2.65-2.74-3.77-4.27-10.57-14.44-10.26-30.66-5.32-46.41C31.71,10.47,43.93,2.77,59.19,.56,64.81-.25,70.6,.06,76.32,.06c138.27-.02,276.55-.02,414.82,0,5.72,0,11.48-.25,17.15,.35,19.48,2.04,33.35,15.56,35.77,35.09,2.1,16.99-1.56,32.19-15.15,43.95-3.05,2.64-3.95,6.23-2.98,10.29,5.09,21.3,10.01,42.64,15.18,63.92,12.62,51.95,21.19,104.59,25.59,157.83,3.3,39.96,2.85,79.96-.8,119.97-5.98,65.67-18.98,130-35.32,193.75-.95,3.69-1.23,7.58-2.47,11.16-3.01,8.66-2.75,15.37,4.71,22.87,13.3,13.37,14.33,30.52,9.06,47.99-1.34,4.44-3.78,8.78-6.61,12.49-6.03,7.9-14.18,12.7-24.28,13.29-7.61,.45-15.24,.5-22.87,.5-68.66,.03-137.32,.02-205.98,.02Zm-9.93-567.72h-.16c0-5.72,.03-11.44,0-17.16-.13-18.1-.25-36.19-.47-54.29-.04-3.57-3.81-7.3-7.2-7.5-2.85-.16-5.71-.3-8.57-.31-22.88-.03-45.76-.04-68.64-.03-35.12,.01-27.59-2.49-34.74,27.85-17.97,76.29-25.72,154-27.93,232.28-.11,3.8,0,7.62,.11,11.42,.14,5.07,3.79,9.3,8.57,9.33,24.77,.18,49.54,.22,74.31,.26,3.1,0,7.06-3.62,7.96-7.14,1.42-5.54,2.35-11.26,4.31-16.6,16.44-44.58,71.34-59.9,108.16-29.34,12.92,10.73,21.25,24.36,23.66,41.14,1.36,9.48,3.86,12.23,15.37,12.23,21.93,0,43.85-.04,65.78-.13,1.89,0,3.96-.07,5.6-.84,1.53-.71,3.39-2.22,3.73-3.7,.84-3.62,1.2-7.43,1.21-11.16,.28-68.85-7.68-136.91-20.14-204.5-3.28-17.76-7.77-35.31-11.87-52.91-1.08-4.65-5.64-8.04-10.4-8.05-31.46-.06-62.92-.05-94.37-.04-.94,0-1.88,.28-2.83,.35-3.68,.28-7.41,3.67-7.53,7.11-.26,7.61-.55,15.22-.56,22.83-.06,36.22,.03,72.44-.1,108.66-.02,5.67-.58,11.39-1.52,16.98-1.07,6.35-11.13,8.88-16.23,4.45-3.89-3.37-5.5-7.63-5.5-12.6-.03-22.87-.01-45.75-.01-68.62Zm22.7,395.18h.02c0,20.97-.07,41.94,.05,62.91,.03,4.73,.24,9.59,1.37,14.14,.58,2.34,3.13,4.45,5.25,6.06,1.38,1.05,3.6,1.37,5.44,1.37,30.5,.06,61,.03,91.5,0,.95,0,1.9-.16,2.84-.34,5.1-1.02,8.86-4.1,10.19-8.92,2.52-9.15,4.58-18.45,6.4-27.77,4.37-22.4,9.6-44.71,12.4-67.31,2.92-23.56,8.27-46.94,7.32-70.92-.07-1.88,.11-3.86,.61-5.67,4.65-16.79,3.86-34.01,4.15-51.14,.18-10.48,.22-20.97-.13-31.44-.31-9.17-5.23-14.43-14.11-14.55-20.96-.28-41.92-.06-62.89-.01-.94,0-1.92,.13-2.83,.39-3.8,1.09-7.19,3.07-8.58,6.84-1.96,5.34-2.92,11.06-4.97,16.36-10.69,27.61-34.22,43.54-64.06,43.61-2.86,0-5.72-.1-8.58-.13-10.9-.11-20.76-3.78-29.16-10.3-12.87-9.99-24.75-20.99-29.15-37.73-.96-3.64-2.89-7.03-4.46-10.5-2.64-5.82-7.43-8.59-13.6-8.63-19.06-.14-38.12-.1-57.18-.05-1.88,0-3.82,.39-5.62,.95-3.81,1.17-6.67,3.61-8.17,7.34-.71,1.75-1.38,3.68-1.37,5.52,.14,34.25-2.12,68.58,3.9,102.63,1.32,7.47,1.43,15.15,2.09,22.73,.58,6.64,.73,13.35,1.82,19.91,2.96,17.81,6.1,35.61,9.59,53.32,3.5,17.72,7.62,35.32,11.27,53.01,2.28,11.02,6.51,12.94,15.47,13,27.65,.18,55.29,.13,82.94,.06,2.82,0,5.65-.67,8.47-1.06,3.23-.46,6.9-4.3,7.1-7.87,.44-7.59,.9-15.2,.92-22.8,.1-36.22-.04-72.44,.16-108.66,.03-5.63,1.06-11.3,2.14-16.86,.8-4.13,6.26-7.57,10.97-7.63,4.55-.06,9.13,4.01,9.56,8.74,.44,4.73,.87,9.48,.89,14.22,.1,19.06,.04,38.13,.04,57.19Zm209.76-192.97v-.02c7.61,0,15.22,.02,22.83,0,2.85-.01,5.71-.08,8.56-.22,5.01-.25,8.78-4.09,8.93-8.96,.99-32.46-3-64.64-7.31-96.63-5.84-43.31-14.17-86.25-25.29-128.58-3.84-14.61-5.25-29.93-12.44-43.56-2.12-4.03-4.06-4.03-47.25-3.49-3.78,.05-7.55,.42-11.32,.69-2.1,.15-5.53,3.94-5.25,5.86,.84,5.62,1.44,11.31,2.69,16.84,17.29,76.29,26.85,153.5,27.74,231.74,.31,26.95-1.09,26.51,26.69,26.34,3.81-.02,7.61,0,11.42,0Zm-442.82-.03c0-.13,0-.27,0-.4,10.47,0,20.93,.05,31.4-.03,3.56-.03,6.96-3.53,7.15-7.24,1.19-22.81,2.46-45.61,3.49-68.43,2.06-45.71,7.93-90.96,16.49-135.87,3.91-20.54,8.28-40.99,12.4-61.49,.69-3.44-2.67-7.69-6.24-7.7-17.13-.06-34.26-.08-51.39,.04-5.3,.04-8.27,2.71-9.8,8.53-11.11,42.32-21.04,84.92-28.55,128.02-7.36,42.22-12.64,84.67-13.05,127.64-.16,17.24,2.85,16.68,15.26,16.89,7.61,.13,15.23,.03,22.85,.03Zm444.68-1.51c-9.85,.47-19.36,.81-28.85,1.44-4.34,.29-9.43,4.94-9.83,9.06-.73,7.56-1.29,15.16-1.51,22.75-.6,20.95-.98,41.91-1.45,62.87-6.35,24.07-4.82,49.09-9.42,73.51-5.81,30.79-9.95,61.91-17.09,92.48-.64,2.74-.51,5.67-.65,8.51-.16,3.09,3.78,7.7,7.11,7.74,16.16,.19,32.34,.48,48.49,.09,5.07-.12,8.29-4.35,10.1-8.99,1.03-2.63,1.41-5.52,2.14-8.27,10.98-41.39,19.99-83.24,27.04-125.42,3.43-20.55,8.23-41.07,7.85-62.23-.12-6.56,1.73-13.16,2.75-19.74,2.2-14.19,2.68-28.41,.8-42.66-.59-4.46-5.02-9.29-9.29-9.6-9.48-.69-18.99-1.06-28.19-1.54ZM24.22,407.75c1.12,11.52,2.34,24.73,3.71,37.93,.78,7.54,1.73,15.07,2.76,22.58,1.15,8.44,2.24,16.91,3.78,25.29,4.45,24.25,8.56,48.58,13.84,72.66,5.29,24.09,11.78,47.91,17.91,71.81,1,3.9,3.95,6.85,8.09,6.9,17.07,.2,34.14,.1,51.21-.03,3.14-.02,6.8-5.04,6.28-8.13-.48-2.8-.97-5.6-1.62-8.36-6.35-26.78-10.81-53.89-15.21-81.06-2.59-15.98-3.1-32.19-6.16-47.93-3.66-18.86-4.44-37.73-4.52-56.69-.09-21.92-4.99-43.34-5.96-65.14-.2-4.46-5.07-9.26-9.19-9.63-18.01-1.65-36.04-1.71-54.05,.06-4.33,.43-8.88,5.02-9.22,9.55-.7,9.45-1.06,18.92-1.65,30.18Zm264.05,263.02c-68.54,0-137.09-.03-205.63,.04-7.58,0-15.26,.03-22.71,1.21-3.32,.53-7.26,3.28-9.03,6.18-4.74,7.74-4.45,16.27-.73,24.46,1.63,3.61,4.95,6.1,8.82,6.48,7.55,.74,15.17,1.06,22.76,1.08,46.65,.09,93.29,.05,139.94,.05,87.58,0,175.17,.03,262.75-.05,8.54,0,17.1-.5,25.61-1.2,4.04-.33,6.57-3.36,8.43-6.86,3.87-7.27,3.44-14.61,.35-21.95-2-4.75-6.03-7.86-10.72-8.48-7.5-.99-15.18-.91-22.78-.92-65.69-.06-131.37-.03-197.06-.03Zm-5.86-607.94c67.59,0,135.17,.02,202.76-.02,7.6,0,15.22-.18,22.81-.58,5.29-.28,10.75-5.22,12.02-10.64,.64-2.75,1.05-5.62,1.05-8.44,0-10.96-6.6-18.68-16.63-19.53-3.79-.32-7.61-.34-11.41-.34-139.93-.01-279.86-.01-419.79,.02-3.8,0-7.62,.15-11.39,.56-7.32,.79-13.41,7.65-13.84,15.71-.2,3.78-.07,7.62,.37,11.37,.63,5.34,6.24,10.95,11.36,11.21,8.55,.43,17.11,.65,25.67,.66,65.68,.05,131.36,.03,197.05,.03Zm1.97,349.05c24.36,1.08,45.44-20.99,44.73-45.64-.57-20.12-14.68-43.14-43.73-44.04-24.42-.76-45.34,15.4-46.21,44.5-.79,26.2,20.24,45.87,45.21,45.19Z"/><path class="cls-1" d="M294.91,560.98c0-19.06,.06-38.13-.04-57.19-.02-4.74-.45-9.49-.89-14.22-.44-4.73-5.02-8.79-9.56-8.74-4.71,.06-10.17,3.49-10.97,7.63-1.08,5.55-2.11,11.23-2.14,16.86-.19,36.22-.06,72.44-.16,108.66-.02,7.6-.48,15.21-.92,22.8-.2,3.58-3.87,7.42-7.1,7.87-2.82,.4-5.65,1.06-8.47,1.06-27.65,.06-55.29,.12-82.94-.06-8.96-.06-13.19-1.98-15.47-13-3.66-17.69-7.77-35.29-11.27-53.01-3.5-17.72-6.63-35.51-9.59-53.32-1.09-6.56-1.24-13.27-1.82-19.91-.66-7.58-.77-15.27-2.09-22.73-6.03-34.05-3.77-68.38-3.9-102.63,0-1.84,.67-3.77,1.37-5.52,1.5-3.73,4.36-6.17,8.17-7.34,1.81-.55,3.74-.94,5.62-.95,19.06-.05,38.12-.09,57.18,.05,6.17,.04,10.96,2.81,13.6,8.63,1.57,3.47,3.51,6.86,4.46,10.5,4.4,16.74,16.29,27.73,29.15,37.73,8.4,6.52,18.27,10.19,29.16,10.3,2.86,.03,5.72,.14,8.58,.13,29.84-.07,53.37-16,64.06-43.61,2.05-5.3,3.01-11.02,4.97-16.36,1.38-3.77,4.78-5.75,8.58-6.84,.91-.26,1.88-.39,2.83-.39,20.96-.04,41.93-.27,62.89,.01,8.89,.12,13.8,5.38,14.11,14.55,.36,10.47,.31,20.96,.13,31.44-.29,17.12,.5,34.35-4.15,51.14-.5,1.81-.68,3.79-.61,5.67,.94,23.98-4.41,47.36-7.32,70.92-2.8,22.6-8.03,44.91-12.4,67.31-1.82,9.32-3.88,18.62-6.4,27.77-1.33,4.82-5.09,7.9-10.19,8.92-.93,.19-1.89,.34-2.84,.34-30.5,.03-61,.07-91.5,0-1.84,0-4.06-.33-5.44-1.37-2.12-1.6-4.67-3.72-5.25-6.06-1.13-4.55-1.34-9.4-1.37-14.14-.13-20.97-.05-41.94-.05-62.91h-.02Z"/><path class="cls-1" d="M506.53,366.46c9.19,.48,18.7,.85,28.19,1.54,4.27,.31,8.7,5.15,9.29,9.6,1.89,14.26,1.4,28.48-.8,42.66-1.02,6.57-2.86,13.18-2.75,19.74,.38,21.16-4.42,41.68-7.85,62.23-7.04,42.19-16.06,84.04-27.04,125.42-.73,2.76-1.11,5.64-2.14,8.27-1.82,4.63-5.03,8.86-10.1,8.99-16.15,.39-32.33,.1-48.49-.09-3.32-.04-7.27-4.65-7.11-7.74,.14-2.84,.01-5.77,.65-8.51,7.14-30.57,11.28-61.69,17.09-92.48,4.6-24.42,3.08-49.45,9.42-73.51,.47-20.96,.85-41.91,1.45-62.87,.22-7.59,.78-15.19,1.51-22.75,.4-4.12,5.5-8.77,9.83-9.06,9.49-.63,19-.97,28.85-1.44Z"/><path class="cls-1" d="M24.22,407.75c.59-11.26,.95-20.73,1.65-30.18,.34-4.54,4.88-9.13,9.22-9.55,18.01-1.77,36.04-1.71,54.05-.06,4.12,.38,8.99,5.18,9.19,9.63,.97,21.81,5.86,43.22,5.96,65.14,.08,18.96,.86,37.83,4.52,56.69,3.05,15.73,3.57,31.95,6.16,47.93,4.41,27.17,8.86,54.27,15.21,81.06,.65,2.76,1.14,5.56,1.62,8.36,.53,3.08-3.13,8.1-6.28,8.13-17.07,.13-34.14,.22-51.21,.03-4.14-.05-7.09-3-8.09-6.9-6.13-23.9-12.62-47.72-17.91-71.81-5.29-24.07-9.39-48.41-13.84-72.66-1.54-8.38-2.63-16.84-3.78-25.29-1.03-7.51-1.98-15.04-2.76-22.58-1.37-13.2-2.59-26.42-3.71-37.93Z"/></svg>