<svg width="38" height="38" viewBox="0 0 38 38" fill="none" xmlns="http://www.w3.org/2000/svg">
<path d="M30.6186 31.6744H6.92144C6.63278 31.673 6.35449 31.5666 6.13859 31.375C5.92268 31.1833 5.78395 30.9197 5.74832 30.6332L3.66602 11.8632C3.6475 11.6997 3.6636 11.5341 3.71328 11.3771C3.76295 11.2202 3.84509 11.0755 3.95435 10.9524C4.06361 10.8293 4.19754 10.7306 4.34746 10.6627C4.49737 10.5948 4.6599 10.5591 4.82448 10.5581H32.7155C32.8801 10.5591 33.0426 10.5948 33.1926 10.6627C33.3425 10.7306 33.4764 10.8293 33.5857 10.9524C33.6949 11.0755 33.7771 11.2202 33.8267 11.3771C33.8764 11.5341 33.8925 11.6997 33.874 11.8632L31.7917 30.6332C31.7561 30.9197 31.6173 31.1833 31.4014 31.375C31.1855 31.5666 30.9072 31.673 30.6186 31.6744V31.6744Z" stroke="white" stroke-width="2" stroke-linecap="round" stroke-linejoin="round"/>
<path d="M12.9044 10.5581C12.9044 9.00247 13.5224 7.51052 14.6224 6.41051C15.7224 5.31049 17.2143 4.6925 18.77 4.6925C20.3257 4.6925 21.8176 5.31049 22.9176 6.41051C24.0176 7.51052 24.6356 9.00247 24.6356 10.5581" stroke="white" stroke-width="2" stroke-linecap="round" stroke-linejoin="round"/>
</svg>
