<?xml version="1.0" encoding="UTF-8"?><svg id="Layer_1" xmlns="http://www.w3.org/2000/svg" width="666.87" height="733.16" viewBox="0 0 666.87 733.16"><defs><style>.cls-1{fill:#d8bf87;}.cls-2{fill:#4f7359;}</style></defs><path class="cls-2" d="M343.56,624.62c0,31.46-.16,62.91,.1,94.37,.08,9.5-7.29,11.78-16.06,9.13-1.61-.49-3.55-2.15-3.99-3.67-.78-2.67-.67-5.65-.68-8.5-.06-15.25-.04-30.5-.04-45.75,0-42.89,.04-85.79-.05-128.68-.01-5.69-.43-11.41-1.24-17.03-.16-1.08-3.51-2.92-4.53-2.47-6.08,2.68-11.89,5.96-17.82,8.97-17.3,8.79-35.86,13.51-55.06,13.18-47.1-.81-84.38-20.65-110.44-60.35-3.12-4.75-5.4-10.05-7.9-15.18-2.65-5.46-6.31-9.14-12.79-9.89-4.69-.54-9.29-2.06-13.89-3.29-53.09-14.15-84.68-49.1-96.56-101.9-3.98-17.69-3.48-36.04,1.95-53.77,2.22-7.27,4.7-14.46,7.19-21.64,1.62-4.66,1.9-9.28,.22-13.95-1.92-5.37-4.09-10.66-5.79-16.09C-16.14,176.52,29.68,102.24,98.38,86.26c6.48-1.51,13.08-2.62,19.46-4.47,2.53-.74,5.34-2.53,6.75-4.68,3.12-4.75,5.08-10.26,8.15-15.05C158.26,22.22,194.34,1.03,242.06,.27c27.6-.44,52.59,7.2,75.1,23.08,3.11,2.19,6.06,4.61,9.12,6.86,5.68,4.17,7.77,4.36,12.51,.92,4.63-3.35,9-7.07,13.77-10.19,57.31-37.56,140.26-24.74,180.33,39.69,3.01,4.84,5.47,10.03,8.08,15.1,1.88,3.65,4.91,5.69,8.77,6.56,7.43,1.67,15.03,2.72,22.3,4.92,50.08,15.17,80.77,48.97,92.01,99.54,4.56,20.5,3.68,41.75-3.5,62.1-1.9,5.38-4.34,10.6-5.71,16.1-.88,3.52-.99,7.6-.15,11.11,1.32,5.51,4.01,10.67,5.66,16.12,11.12,36.63,7.29,71.73-12.43,104.5-17.95,29.84-43.97,49.63-77.97,58.33-6.45,1.65-13,2.95-19.51,4.38-4.01,.88-6.64,3.42-8.48,6.93-2.66,5.05-5.09,10.23-7.97,15.15-30.9,52.75-100.14,79.82-164.46,50.85-6.92-3.12-13.42-7.14-20.32-10.31-.94-.43-4.21,1.47-4.42,2.64-.82,4.65-1.12,9.44-1.14,14.18-.09,28.6-.04,57.19-.04,85.79h-.07Zm77.14-101.07c45.7,1.59,83.75-25.26,100.72-60.76,2.46-5.15,4.41-10.54,6.69-15.78,1.66-3.79,4.96-5.82,8.75-6.54,6.55-1.26,13.16-2.36,19.8-2.92,8.74-.74,16.74-3.88,24.56-7.29,48.17-21.07,74.13-73.72,62.12-124.78-2.43-10.33-6.66-19.81-11.06-29.31-1.7-3.67-1.47-7.4,.11-11.03,1.9-4.36,4.03-8.63,5.84-13.03,9.39-22.8,11.57-46.11,4.13-69.86-13.4-42.79-41.66-69.4-86.04-78.11-5.61-1.1-11.32-1.65-16.98-2.46-5.97-.86-10.6-3.16-13.02-9.39-2.4-6.19-5.29-12.28-8.72-17.96-22.04-36.54-54.77-54.84-97.2-54.52-26.68,.2-50.55,9.91-69.89,28.34-15.81,15.06-19.53,15.26-34.57-.24-2.63-2.71-5.81-4.92-8.88-7.18-17.35-12.76-36.9-20.37-58.3-20.88-44.82-1.06-78.88,18.18-101.51,57.05-2.86,4.92-5.22,10.21-7.18,15.55-2.31,6.3-7.07,8.49-13.06,9.31-4.72,.65-9.44,1.35-14.16,2-28.89,3.99-52.07,18.18-69.47,41.04-19.35,25.42-27.19,54.07-20.76,86.09,1.89,9.43,4,18.82,8.71,27.06,5.39,9.42,5.03,17.88-.57,26.7-1,1.58-1.44,3.52-2.13,5.3-7.72,19.98-9.73,40.11-5.96,61.6,6.73,38.33,41.99,79.49,88.56,86.02,4.72,.66,9.44,1.36,14.17,1.95,7.17,.89,12.21,3.89,14.63,11.42,2.02,6.28,5.19,12.28,8.44,18.07,31.87,56.74,102.69,69.03,151.17,39.11,5.65-3.49,11.2-7.38,16.04-11.9,16.89-15.79,16.8-18.38,36.06,.99,.67,.67,1.45,1.24,2.2,1.83,20.05,15.89,42.51,25.11,66.76,24.52Z"/><path class="cls-1" d="M544.17,685.88c-.46,21.21-15.63,46.39-47.12,47.27-23.77,.66-47.04-16.89-47.92-46.16-.92-30.5,24.46-49.5,48.22-48.78,27.5,.84,46.26,23.02,46.82,47.67Z"/><path class="cls-2" d="M133.44,573.21c24.72-.8,46.64,22.42,46.38,47.87-.24,23.17-19.75,46.89-47.51,46.9-26.74,0-48.64-21.48-47.65-49.46,.92-26.05,23.29-46.96,48.78-45.3Zm26.66,47.66c.25-14.01-12.7-27.64-26.89-28.32-14.2-.68-27.87,11.79-28.72,26.19-.94,15.97,12.05,29.66,28.01,29.52,14.33-.13,27.34-13.05,27.6-27.39Z"/><path class="cls-1" d="M196.44,301.72c1.01,24.36-18.75,47.42-46.82,47.54-25.97,.11-47.21-19.85-47.13-47.24,.08-26.41,20.69-47.54,46.84-47.7,24.06-.15,47.87,20.24,47.12,47.39Z"/><path class="cls-1" d="M541.09,288.32c-25.87-1.04-46.15-23.77-44.38-49.68,1.78-26.13,22.52-45.52,49.88-44.25,27.56,1.28,45.77,25.46,44.52,49.75-1.2,23.26-22.44,46.5-50.01,44.18Z"/><path class="cls-2" d="M252.14,363.23c31.81,2.16,48.39,28.68,46.86,51.22-1.63,24.04-23.27,46.55-50.15,44.68-27.92-1.94-46.03-23.49-45.47-49.43,.56-25.91,23.7-47.2,48.77-46.47Zm-28.28,47.05c-.43,15.53,10.33,27.44,25.55,28.28,16.12,.89,30.64-12.05,29.52-27.54-1.08-14.85-10.59-26.66-27.4-26.85-15.6-.18-27.26,10.89-27.68,26.11Z"/><path class="cls-2" d="M221.08,74.98c27.71-1.11,47.67,22.06,48.5,46.08,.77,22.41-17.2,49.15-48.88,48.64-30.01-.49-47.3-25.76-47.08-47.6,.25-24.54,20.3-47.73,47.46-47.12Zm27.77,48.15c.47-16.79-11.74-27.36-25.69-28.68-15.46-1.47-28.98,12.1-28.74,28.4,.22,15.02,12.33,27.26,27.05,27.34,14.68,.08,27.04-12.14,27.38-27.06Z"/><path class="cls-2" d="M433.82,185.62c-23.52,1.26-47.19-18.36-48.32-46.4-1.07-26.62,22.22-49.42,49.08-48.72,25.97,.68,47.3,22.3,46.87,48.07-.47,27.74-24.29,48.11-47.64,47.05Zm-.99-75.01c-14.96,.21-26.52,12.19-26.54,27.52-.03,15.07,11.51,27.32,26.44,28.05,15.27,.76,28.66-13.26,28.04-29.35-.57-15-12.76-26.44-27.94-26.22Z"/><path class="cls-2" d="M451.64,420.76c-26.18,1.47-47.72-19.61-49.03-45.48-1.14-22.36,16.2-49.47,48.24-49.29,30.72,.17,47.51,25.45,47.65,47.07,.16,25.79-21.42,48.32-46.85,47.69Zm26.11-48.03c-.03-17.89-16.07-27.21-27.23-27.18-11.19,.02-27.07,9.27-27.25,27.2-.16,16.22,13.39,30.25,28.66,28.51,16.02-1.83,26.14-12.9,25.81-28.53Z"/><path class="cls-2" d="M374.39,247.23c.72,27.59-24.7,47.12-47.33,47.15-20.3,.03-47.25-16.96-47.47-47.13-.21-27.86,21.32-49.29,48.88-48.39,28.6,.93,47.1,24.15,45.92,48.37Zm-47.2-28.1c-16.36-.96-27.87,14.59-27.96,26.54-.13,17.43,14.39,29.56,29.11,28.47,17.65-1.3,26.45-14.86,26.62-28.21,.14-11.02-10.49-27.54-27.77-26.81Z"/></svg>