<svg width="142" height="47" viewBox="0 0 142 47" fill="none" xmlns="http://www.w3.org/2000/svg">
<rect width="142" height="47" fill="#9A9FA5"/>
<path d="M42.4219 17.625H45.1641V25.0547C45.1641 25.9401 44.9792 26.6901 44.6094 27.3047C44.2396 27.9141 43.7214 28.375 43.0547 28.6875C42.388 29 41.6042 29.1562 40.7031 29.1562C39.8125 29.1562 39.0286 29 38.3516 28.6875C37.6797 28.375 37.1536 27.9141 36.7734 27.3047C36.3984 26.6901 36.2109 25.9401 36.2109 25.0547V17.625H38.9609V25.0547C38.9609 25.5234 39.0286 25.9062 39.1641 26.2031C39.2995 26.4948 39.4974 26.7083 39.7578 26.8438C40.0182 26.9792 40.3333 27.0469 40.7031 27.0469C41.0781 27.0469 41.3932 26.9792 41.6484 26.8438C41.9036 26.7083 42.0964 26.4948 42.2266 26.2031C42.3568 25.9062 42.4219 25.5234 42.4219 25.0547V17.625ZM50.5859 29H48.0625L48.0781 26.8906H50.5859C51.1068 26.8906 51.5469 26.7656 51.9062 26.5156C52.2708 26.2656 52.5469 25.8932 52.7344 25.3984C52.9271 24.8984 53.0234 24.2839 53.0234 23.5547V23.0625C53.0234 22.5156 52.9688 22.0365 52.8594 21.625C52.7552 21.2083 52.599 20.862 52.3906 20.5859C52.1823 20.3047 51.9219 20.0938 51.6094 19.9531C51.3021 19.8125 50.9479 19.7422 50.5469 19.7422H48.0156V17.625H50.5469C51.3177 17.625 52.0234 17.7578 52.6641 18.0234C53.3099 18.2839 53.8672 18.6589 54.3359 19.1484C54.8099 19.6328 55.1745 20.2083 55.4297 20.875C55.6901 21.5365 55.8203 22.2708 55.8203 23.0781V23.5547C55.8203 24.3568 55.6901 25.0911 55.4297 25.7578C55.1745 26.4245 54.8125 27 54.3438 27.4844C53.875 27.9688 53.3203 28.3438 52.6797 28.6094C52.0443 28.8698 51.3464 29 50.5859 29ZM49.6328 17.625V29H46.8906V17.625H49.6328ZM63.1094 25.9766C63.1094 25.7995 63.0833 25.6406 63.0312 25.5C62.9792 25.3542 62.8828 25.2188 62.7422 25.0938C62.6016 24.9688 62.3984 24.8438 62.1328 24.7188C61.8724 24.5885 61.5286 24.4531 61.1016 24.3125C60.6016 24.1458 60.1198 23.9583 59.6562 23.75C59.1927 23.5365 58.7786 23.2891 58.4141 23.0078C58.0495 22.7214 57.7604 22.388 57.5469 22.0078C57.3333 21.6224 57.2266 21.1745 57.2266 20.6641C57.2266 20.1745 57.3359 19.7344 57.5547 19.3438C57.7734 18.9479 58.0781 18.612 58.4688 18.3359C58.8646 18.0547 59.3281 17.8411 59.8594 17.6953C60.3906 17.5443 60.9714 17.4688 61.6016 17.4688C62.4349 17.4688 63.1693 17.6146 63.8047 17.9062C64.4453 18.1927 64.9453 18.6016 65.3047 19.1328C65.6693 19.6589 65.8516 20.2812 65.8516 21H63.125C63.125 20.7135 63.0651 20.4609 62.9453 20.2422C62.8307 20.0234 62.6562 19.8516 62.4219 19.7266C62.1875 19.6016 61.8932 19.5391 61.5391 19.5391C61.1953 19.5391 60.9062 19.5911 60.6719 19.6953C60.4375 19.7995 60.2604 19.9401 60.1406 20.1172C60.0208 20.2891 59.9609 20.4792 59.9609 20.6875C59.9609 20.8594 60.0078 21.0156 60.1016 21.1562C60.2005 21.2917 60.3385 21.4193 60.5156 21.5391C60.6979 21.6589 60.9167 21.7734 61.1719 21.8828C61.4323 21.9922 61.724 22.099 62.0469 22.2031C62.651 22.3958 63.1875 22.612 63.6562 22.8516C64.1302 23.0859 64.5286 23.3542 64.8516 23.6562C65.1797 23.9531 65.4271 24.2917 65.5938 24.6719C65.7656 25.0521 65.8516 25.4818 65.8516 25.9609C65.8516 26.4714 65.7526 26.9245 65.5547 27.3203C65.3568 27.7161 65.0729 28.0521 64.7031 28.3281C64.3333 28.599 63.8906 28.8047 63.375 28.9453C62.8594 29.0859 62.2839 29.1562 61.6484 29.1562C61.0651 29.1562 60.4896 29.0833 59.9219 28.9375C59.3594 28.7865 58.849 28.5573 58.3906 28.25C57.9323 27.9375 57.5651 27.5391 57.2891 27.0547C57.0182 26.5651 56.8828 25.9844 56.8828 25.3125H59.6328C59.6328 25.6458 59.6771 25.9271 59.7656 26.1562C59.8542 26.3854 59.9844 26.5703 60.1562 26.7109C60.3281 26.8464 60.5391 26.9453 60.7891 27.0078C61.0391 27.0651 61.3255 27.0938 61.6484 27.0938C61.9974 27.0938 62.2786 27.0443 62.4922 26.9453C62.7057 26.8411 62.862 26.7057 62.9609 26.5391C63.0599 26.3672 63.1094 26.1797 63.1094 25.9766ZM76.8906 23.0859V23.5469C76.8906 24.4167 76.7682 25.1979 76.5234 25.8906C76.2839 26.5781 75.9427 27.1667 75.5 27.6562C75.0573 28.1406 74.5339 28.513 73.9297 28.7734C73.3255 29.0286 72.6589 29.1562 71.9297 29.1562C71.1953 29.1562 70.5234 29.0286 69.9141 28.7734C69.3099 28.513 68.7839 28.1406 68.3359 27.6562C67.8932 27.1667 67.5495 26.5781 67.3047 25.8906C67.0651 25.1979 66.9453 24.4167 66.9453 23.5469V23.0859C66.9453 22.2161 67.0651 21.4349 67.3047 20.7422C67.5495 20.0495 67.8906 19.4609 68.3281 18.9766C68.7708 18.487 69.2943 18.1146 69.8984 17.8594C70.5078 17.599 71.1797 17.4688 71.9141 17.4688C72.6432 17.4688 73.3099 17.599 73.9141 17.8594C74.5234 18.1146 75.0495 18.487 75.4922 18.9766C75.9349 19.4609 76.2786 20.0495 76.5234 20.7422C76.7682 21.4349 76.8906 22.2161 76.8906 23.0859ZM74.1094 23.5469V23.0703C74.1094 22.5078 74.0599 22.013 73.9609 21.5859C73.8672 21.1536 73.7266 20.7917 73.5391 20.5C73.3516 20.2083 73.1198 19.9896 72.8438 19.8438C72.5729 19.6927 72.263 19.6172 71.9141 19.6172C71.5495 19.6172 71.2318 19.6927 70.9609 19.8438C70.6901 19.9896 70.4635 20.2083 70.2812 20.5C70.099 20.7917 69.9609 21.1536 69.8672 21.5859C69.7786 22.013 69.7344 22.5078 69.7344 23.0703V23.5469C69.7344 24.1042 69.7786 24.599 69.8672 25.0312C69.9609 25.4583 70.099 25.8203 70.2812 26.1172C70.4688 26.4141 70.6979 26.638 70.9688 26.7891C71.2448 26.9401 71.5651 27.0156 71.9297 27.0156C72.2786 27.0156 72.5885 26.9401 72.8594 26.7891C73.1302 26.638 73.3568 26.4141 73.5391 26.1172C73.7266 25.8203 73.8672 25.4583 73.9609 25.0312C74.0599 24.599 74.1094 24.1042 74.1094 23.5469ZM85.8281 26.8906V29H80.0781V26.8906H85.8281ZM81.0547 17.625V29H78.3125V17.625H81.0547ZM95.7891 22.9219V27.5938C95.5964 27.8073 95.2995 28.0365 94.8984 28.2812C94.5026 28.5208 94.0026 28.7266 93.3984 28.8984C92.7943 29.0703 92.0833 29.1562 91.2656 29.1562C90.5104 29.1562 89.8255 29.0365 89.2109 28.7969C88.5964 28.5521 88.0677 28.1953 87.625 27.7266C87.1875 27.2526 86.849 26.6745 86.6094 25.9922C86.375 25.3047 86.2578 24.5182 86.2578 23.6328V23C86.2578 22.1146 86.3776 21.3281 86.6172 20.6406C86.8568 19.9531 87.1927 19.375 87.625 18.9062C88.0625 18.4323 88.5755 18.0729 89.1641 17.8281C89.7578 17.5833 90.4089 17.4609 91.1172 17.4609C92.1641 17.4609 93.0156 17.6276 93.6719 17.9609C94.3281 18.2891 94.8255 18.7448 95.1641 19.3281C95.5026 19.9062 95.7083 20.5755 95.7812 21.3359H93.1484C93.0964 20.9609 92.9974 20.6432 92.8516 20.3828C92.7109 20.1172 92.5078 19.9167 92.2422 19.7812C91.9766 19.6406 91.6328 19.5703 91.2109 19.5703C90.8828 19.5703 90.5833 19.6406 90.3125 19.7812C90.0469 19.9219 89.8203 20.1354 89.6328 20.4219C89.4453 20.7031 89.2995 21.0573 89.1953 21.4844C89.0964 21.9115 89.0469 22.4115 89.0469 22.9844V23.6328C89.0469 24.2005 89.0938 24.6979 89.1875 25.125C89.2865 25.5521 89.4323 25.9089 89.625 26.1953C89.8229 26.4766 90.0729 26.6901 90.375 26.8359C90.6823 26.9766 91.0443 27.0469 91.4609 27.0469C91.7526 27.0469 92.0026 27.0234 92.2109 26.9766C92.4193 26.9245 92.5911 26.862 92.7266 26.7891C92.8672 26.7109 92.974 26.638 93.0469 26.5703V24.8047H91.1406V22.9219H95.7891ZM102.898 17.625V29H100.156V17.625H102.898ZM106.32 17.625V19.7422H96.8125V17.625H106.32Z" fill="white"/>
</svg>
